<svg width="461" height="551" viewBox="0 0 461 551" fill="none" xmlns="http://www.w3.org/2000/svg">
<g id="29">
<g id="Group">
<path id="29_BaDinh" fill-rule="evenodd" clip-rule="evenodd" d="M333.044 247.173L332.186 248.032L328.752 246.315V242.024H326.178L322.746 238.589L326.178 234.298V227.432L330.47 230.006L339.909 232.581L341.625 230.864H345.057V227.432L346.773 224.856L348.489 226.573L352.78 223.139L357.07 230.864L350.206 232.581L349.347 238.589L346.773 240.306L340.767 237.732L337.334 240.306L333.902 246.315L333.044 247.173Z" fill="#D147AC" fill-opacity="0.5" stroke="#0000FF" stroke-opacity="0.4" stroke-linecap="round" stroke-linejoin="round"/>
<g id="29_BacTuLiem">
<path id="Vector" fill-rule="evenodd" clip-rule="evenodd" d="M297.86 230.864V232.581L292.713 233.44L290.997 231.723L282.415 229.149V225.715L277.267 220.565V217.989L274.692 214.555L270.402 211.981L271.26 209.406H274.692L276.408 204.256L275.55 193.955L282.415 188.804L288.423 194.814L293.571 197.388L319.315 193.097L316.739 198.246L318.455 205.113L322.746 206.83L321.888 209.406L325.32 212.838V215.414L320.172 220.565L321.888 222.28L318.455 224.856V228.29H315.881V226.573L316.739 227.432L315.023 223.998L314.165 224.856L315.881 228.29L309.875 230.006L310.733 225.715L303.868 229.149L302.152 227.432L298.72 230.864H297.86Z" fill="#D1475A" fill-opacity="0.5"/>
<path id="Vector_2" d="M315.881 228.29H318.455V224.856L321.888 222.28L320.172 220.565L325.32 215.414V212.838L321.888 209.406L322.746 206.83L318.455 205.113L316.739 198.246L319.315 193.097L293.571 197.388L288.423 194.814L282.415 188.804L275.55 193.955L276.408 204.256L274.692 209.406H271.26L270.402 211.981L274.692 214.555L277.267 217.989V220.565L282.415 225.715V229.149L290.997 231.723L292.713 233.44L297.86 232.581V230.864H298.72L302.152 227.432L303.868 229.149L310.733 225.715L309.875 230.006L315.881 228.29ZM315.881 228.29V226.573L316.739 227.432L315.023 223.998L314.165 224.856L315.881 228.29Z" stroke="#0000FF" stroke-opacity="0.4" stroke-linecap="round" stroke-linejoin="round"/>
</g>
<g id="29_CauGiay">
<path id="Vector_3" fill-rule="evenodd" clip-rule="evenodd" d="M330.47 253.183H325.32L317.597 258.333L315.881 254.041L316.739 251.466L311.591 245.458V239.448L302.152 235.157V230.864L305.584 227.432L310.733 225.715L309.875 230.006L315.881 228.29L314.165 225.715L315.023 223.998L316.739 227.432L315.881 226.573V228.29H318.455V225.715L321.03 227.432L326.178 223.139V221.422L327.036 222.28V219.706L327.894 223.998L326.178 227.432V234.298L320.172 242.882L325.32 248.89L330.47 253.183Z" fill="#D18847" fill-opacity="0.5"/>
<path id="Vector_4" d="M315.881 228.29L309.875 230.006L310.733 225.715L305.584 227.432L302.152 230.864V235.157L311.591 239.448V245.458L316.739 251.466L315.881 254.041L317.597 258.333L325.32 253.183H330.47L325.32 248.89L320.172 242.882L326.178 234.298V227.432L327.894 223.998L327.036 219.706V222.28L326.178 221.422V223.139L321.03 227.432L318.455 225.715V228.29H315.881ZM315.881 228.29L314.165 225.715L315.023 223.998L316.739 227.432L315.881 226.573V228.29Z" stroke="#0000FF" stroke-opacity="0.4" stroke-linecap="round" stroke-linejoin="round"/>
</g>
<path id="29_DongDa" fill-rule="evenodd" clip-rule="evenodd" d="M344.199 260.05L337.334 257.474L333.044 258.333L332.186 254.898L323.604 248.032L320.173 242.882L321.888 239.448L322.746 238.589L327.894 242.024L328.752 241.165V245.458L332.186 248.032L339.909 237.732H342.483L346.773 240.306L347.631 239.448L348.489 260.908L344.199 260.05Z" fill="#B7E830" fill-opacity="0.5" stroke="#0000FF" stroke-opacity="0.4" stroke-linecap="round" stroke-linejoin="round"/>
<path id="29_HaDong" fill-rule="evenodd" clip-rule="evenodd" d="M276.408 315.843L274.692 314.126L276.408 309.835L271.26 307.259L264.395 306.401L263.537 303.827L267.828 302.11L275.55 306.401L278.125 305.542L274.692 298.676L271.26 302.968L266.97 301.251V297.817L267.828 296.102L275.55 291.809L274.692 289.233L278.125 284.942L278.983 285.801L286.705 283.225L284.131 278.934L285.847 270.35L281.557 268.633L278.125 264.341L281.557 261.767H287.563L288.423 263.482L294.429 266.058L296.144 268.633L295.287 272.066L297.002 271.209L298.72 272.924L301.294 269.492H308.158L309.875 266.916H313.307L315.023 267.775L314.165 268.633L312.449 267.775L319.315 268.633L320.172 269.492L318.455 272.066L321.888 275.5L318.455 276.359V278.076L315.881 279.791L317.597 280.65V283.225L324.462 286.659H321.888L318.455 289.233L316.739 297.817H315.023V300.393L313.307 299.534L312.449 305.542L307.3 306.401V308.118L301.294 310.694L297.002 307.259L298.72 306.401L295.287 303.827L294.429 306.401L291.855 305.542L290.139 308.118L291.855 310.694L290.139 314.985L285.847 315.843V317.56H278.983L276.408 315.843Z" fill="#49E830" fill-opacity="0.5" stroke="#0000FF" stroke-opacity="0.4" stroke-linecap="round" stroke-linejoin="round"/>
<path id="29_HaiBaTrung" fill-rule="evenodd" clip-rule="evenodd" d="M354.496 262.625L353.638 266.058L349.347 263.482L348.489 264.341L347.631 244.599L354.496 247.173L364.793 245.458L365.651 251.466L369.083 255.757L374.233 257.474L369.083 258.333L370.799 259.191V260.908H369.083L369.941 262.625H368.225V264.341L363.078 263.482L361.362 261.767V264.341L359.644 263.482V261.767L357.928 263.482H355.354L354.496 262.625Z" fill="#30E886" fill-opacity="0.5" stroke="#0000FF" stroke-opacity="0.4" stroke-linecap="round" stroke-linejoin="round"/>
<path id="29_HoanKiem" fill-rule="evenodd" clip-rule="evenodd" d="M355.354 247.173L348.489 245.458L347.631 239.448H349.347L350.206 232.581L357.07 230.864L358.786 231.723L364.793 245.458L356.212 247.173H355.354Z" fill="#30DCE8" fill-opacity="0.5" stroke="#0000FF" stroke-opacity="0.4" stroke-linecap="round" stroke-linejoin="round"/>
<path id="29_HoangMai" fill-rule="evenodd" clip-rule="evenodd" d="M345.915 287.518L344.199 286.659V288.375L341.625 289.233V290.95L332.186 285.801L337.334 279.791L334.76 277.217L329.612 278.934L327.036 276.359L327.894 270.35L328.752 272.066L332.186 270.35L333.902 272.066V269.492L339.909 263.482L345.915 270.35L347.631 268.633V264.341L349.347 263.482L352.78 266.058L354.496 265.199V262.625L357.928 263.482L359.644 261.767L360.502 264.341L361.362 261.767L363.078 263.482L368.225 264.341V262.625H369.941L369.083 260.908H370.799V259.191L369.083 258.332L369.941 257.474H374.233L385.388 262.625L390.536 270.35L389.678 274.641L375.949 296.102L368.225 289.233L365.651 292.667L359.644 290.092L358.786 287.518L349.347 291.809L348.489 287.518H345.915Z" fill="#306EE8" fill-opacity="0.5" stroke="#0000FF" stroke-opacity="0.4" stroke-linecap="round" stroke-linejoin="round"/>
<path id="29_LongBien" fill-rule="evenodd" clip-rule="evenodd" d="M385.388 262.625L369.083 255.757L365.651 251.466L362.22 238.589L352.78 223.139L348.489 205.113H350.205L362.22 214.555L366.509 213.697L380.239 205.971L396.543 208.547L399.975 211.123L405.125 221.422L408.556 232.581L401.691 241.165L402.551 242.882L403.409 242.024L407.698 244.599L400.833 245.458V247.173L399.117 248.032L399.975 249.749H398.259L397.401 251.466V256.615L393.969 257.474L390.536 255.757L387.104 258.333L385.388 262.625Z" fill="#6130E8" fill-opacity="0.5" stroke="#0000FF" stroke-opacity="0.4" stroke-linecap="round" stroke-linejoin="round"/>
<path id="29_NamTuLiem" fill-rule="evenodd" clip-rule="evenodd" d="M321.888 266.916L317.597 269.492L312.449 266.916H310.733L308.158 269.492H300.436L301.294 270.35L298.72 272.924L297.002 271.209L295.286 272.066L296.144 268.633L294.429 266.058L287.563 262.625L281.557 261.767V253.183L279.841 254.041L280.699 248.89L278.125 247.173L280.699 244.599L284.131 243.741L282.415 238.589L284.131 237.732V236.015L280.699 233.44V230.006L277.266 226.573L276.408 223.998L278.125 221.422L279.841 222.28L282.415 228.29L292.713 233.44L297.86 232.581V230.864L300.436 230.006L302.152 227.432L303.868 229.149L302.152 230.864V234.298L306.442 237.732L311.591 239.448V245.458L316.739 251.466L315.881 254.041L317.597 256.615L316.739 257.474L319.315 260.05V264.341L321.888 266.916Z" fill="#D030E8" fill-opacity="0.5" stroke="#0000FF" stroke-opacity="0.4" stroke-linecap="round" stroke-linejoin="round"/>
<path id="29_TayHo" fill-rule="evenodd" clip-rule="evenodd" d="M331.328 230.006L326.178 227.432L327.894 223.998V219.706L327.036 222.28L326.178 221.422V223.139L321.031 227.432L318.455 224.856L321.888 222.28L320.173 220.565L325.32 215.414L324.462 210.264L321.888 209.406L322.746 206.83L319.315 205.113L318.455 205.971L316.739 198.246L321.031 191.38L327.894 190.521L337.334 194.814L342.483 198.246L344.199 201.68L348.489 205.113L352.78 223.139L348.489 226.573L346.773 224.856L345.057 230.006L339.909 232.581L334.76 230.864L331.328 230.006Z" fill="#E83092" fill-opacity="0.5" stroke="#0000FF" stroke-opacity="0.4" stroke-linecap="round" stroke-linejoin="round"/>
<path id="29_ThanhXuan" fill-rule="evenodd" clip-rule="evenodd" d="M347.631 268.633L345.915 269.492L340.767 263.482L333.902 269.492V271.209L332.186 270.35L328.752 272.066V269.492L323.604 267.775L322.746 270.35L319.315 268.633L321.888 266.916L319.315 264.341V260.05L317.597 259.191L325.32 253.183H330.47L333.044 258.333L337.334 257.474L348.489 260.908L347.631 264.341V268.633Z" fill="#E83D30" fill-opacity="0.5" stroke="#0000FF" stroke-opacity="0.4" stroke-linecap="round" stroke-linejoin="round"/>
<g id="29_SonTay">
<path id="Vector_5" fill-rule="evenodd" clip-rule="evenodd" d="M157.132 222.28L154.558 223.998H156.274V225.715L155.416 224.856L152.842 226.573L151.125 231.723L148.551 234.298L145.119 235.157V236.874L142.544 238.589L141.686 241.165L140.828 240.306V242.024L138.254 242.882L127.098 231.723L116.801 245.458L112.511 242.882L111.653 240.306L108.22 238.589V225.715L110.794 220.565L109.936 216.272L112.511 211.981L109.936 213.697L109.078 219.706L107.362 218.848V217.131L109.078 216.272V211.981L106.504 214.555L103.072 217.131L97.0648 215.414L97.923 214.555L96.2067 212.838L97.923 210.264V206.83L96.2067 205.972V200.822L97.923 197.388L100.497 195.672L97.923 193.955V188.804L93.6325 191.38L86.7676 188.804L91.0581 187.945L90.1999 180.22L91.9162 178.505L87.6257 177.646L85.9094 170.78L80.7608 168.204L84.1932 165.628L86.7676 160.479H89.3418L91.9162 157.903H93.6325L95.3486 160.479L100.497 158.762V160.479H103.072L102.213 163.053L103.93 163.911L105.646 162.196L104.788 160.479L107.362 161.337L109.078 158.762H110.794L109.936 156.187L110.794 154.47H112.511L110.794 152.753L114.227 151.036V145.886L115.943 146.744L119.375 143.311L126.24 150.178L144.261 154.47L145.119 164.77H147.693L150.267 169.921H148.551L146.835 173.354L145.119 171.637V173.354L143.402 172.495L141.686 175.929L140.828 175.071L137.396 176.788L138.254 178.505L135.68 181.079V185.371L136.538 187.945H138.254L139.112 191.38L134.821 193.097L135.68 195.672L139.112 194.814L141.686 195.672L140.828 196.529L143.402 198.246L149.409 199.105V202.539L152.842 204.256L155.416 208.547H153.7L157.99 209.406L152.842 216.272L156.274 217.989L155.416 222.28H157.132Z" fill="#D147AC" fill-opacity="0.5"/>
<path id="Vector_6" d="M112.511 211.981L109.936 216.272L110.794 220.565L108.22 225.715V238.589L111.653 240.306L112.511 242.882L116.801 245.458L127.098 231.723L138.254 242.882L140.828 242.024V240.306L141.686 241.165L142.544 238.589L145.119 236.874V235.157L148.551 234.298L151.125 231.723L152.842 226.573L155.416 224.856L156.274 225.715V223.998H154.558L157.132 222.28H155.416L156.274 217.989L152.842 216.272L157.99 209.406L153.7 208.547H155.416L152.842 204.256L149.409 202.539V199.105L143.402 198.246L140.828 196.529L141.686 195.672L139.112 194.814L135.68 195.672L134.821 193.097L139.112 191.38L138.254 187.945H136.538L135.68 185.371V181.079L138.254 178.505L137.396 176.788L140.828 175.071L141.686 175.929L143.402 172.495L145.119 173.354V171.637L146.835 173.354L148.551 169.921H150.267L147.693 164.77H145.119L144.261 154.47L126.24 150.178L119.375 143.311L115.943 146.744L114.227 145.886V151.036L110.794 152.753L112.511 154.47H110.794L109.936 156.187L110.794 158.762H109.078L107.362 161.337L104.788 160.479L105.646 162.196L103.93 163.911L102.213 163.053L103.072 160.479H100.497V158.762L95.3486 160.479L93.6325 157.903H91.9162L89.3418 160.479H86.7676L84.1932 165.628L80.7608 168.204L85.9094 170.78L87.6257 177.646L91.9162 178.505L90.1999 180.22L91.0581 187.945L86.7676 188.804L93.6325 191.38L97.923 188.804V193.955L100.497 195.672L97.923 197.388L96.2067 200.822V205.972L97.923 206.83V210.264L96.2067 212.838L97.923 214.555L97.0648 215.414L103.072 217.131L106.504 214.555M112.511 211.981L109.936 213.697L109.078 219.706L107.362 218.848V217.131L109.078 216.272V211.981L106.504 214.555M112.511 211.981V210.264M106.504 214.555V217.131" stroke="#0000FF" stroke-opacity="0.4" stroke-linecap="round" stroke-linejoin="round"/>
</g>
<g id="29_BaVi">
<path id="Vector_7" fill-rule="evenodd" clip-rule="evenodd" d="M41.288 252.324L39.5717 249.749H33.5651L30.1326 254.041L25.8421 253.183L24.984 252.324L27.5584 247.173L24.984 244.599L24.126 247.173L23.2679 246.315V248.89L18.9773 251.466L12.9706 244.599L7.82195 235.157L6.10573 229.149V222.28L14.6868 203.397L20.6935 197.388L22.4097 185.371L12.9706 166.487L6.10573 160.479L1.81522 149.32L2.67332 145.028L7.82195 135.586L38.7138 108.976L41.288 102.967L44.7204 84.9418V72.9245L48.1529 68.6327L58.4501 63.4824L63.5988 57.474L68.7474 55.7572L75.6122 58.3322L91.9162 75.4997L99.6391 78.0748L104.788 99.534L110.794 109.834L114.227 136.444L119.375 143.311L115.943 146.744L115.085 145.886L113.369 150.178L114.227 151.036L110.794 152.753L112.511 153.611L110.794 154.47V158.762H109.078L107.362 161.337L104.788 160.479L105.646 162.196L103.93 163.911L102.213 163.053L103.072 160.479H100.497V158.762L95.3486 160.479L93.6323 157.903H91.9162L89.3418 160.479H86.7676L84.1932 165.628L81.6189 166.487L80.7608 168.204L84.1932 169.063L83.3352 169.921L87.6257 173.354V177.646L91.9162 178.505L90.1999 180.22L91.9162 186.23L91.0581 187.945L86.7676 188.804L93.6323 191.38L97.923 188.804V193.955L100.497 195.672L97.923 197.388L96.2067 200.822L97.923 206.83V210.264L96.2067 212.838L97.923 214.555L97.0648 215.414L103.072 217.131L106.504 214.555L109.078 211.981V216.272L107.362 217.131L108.22 219.706L109.936 213.697L111.653 211.981L112.511 213.697L109.936 216.272L110.794 220.565L108.22 225.715V237.732L111.653 240.306L112.511 242.882L116.801 245.458L114.227 253.183L109.936 250.607L107.362 251.466L102.213 248.89L99.6391 249.749L93.6323 248.032L82.4771 251.466L79.9027 249.749L79.0445 247.173L73.8959 249.749H67.8893L63.5988 242.882L57.592 247.173L56.7339 249.749L43.0043 254.041L41.288 253.183V252.324Z" fill="#D1475A" fill-opacity="0.5"/>
<path id="Vector_8" d="M112.511 210.264V211.981M106.504 214.555L103.072 217.131L97.0648 215.414L97.923 214.555L96.2067 212.838L97.923 210.264V206.83L96.2067 200.822L97.923 197.388L100.497 195.672L97.923 193.955V188.804L93.6323 191.38L86.7676 188.804L91.0581 187.945L91.9162 186.23L90.1999 180.22L91.9162 178.505L87.6257 177.646V173.354L83.3352 169.921L84.1932 169.063L80.7608 168.204L81.6189 166.487L84.1932 165.628L86.7676 160.479H89.3418L91.9162 157.903H93.6323L95.3486 160.479L100.497 158.762V160.479H103.072L102.213 163.053L103.93 163.911L105.646 162.196L104.788 160.479L107.362 161.337L109.078 158.762H110.794V154.47L112.511 153.611L110.794 152.753L114.227 151.036L113.369 150.178L115.085 145.886L115.943 146.744L119.375 143.311L114.227 136.444L110.794 109.834L104.788 99.534L99.6391 78.0748L91.9162 75.4997L75.6122 58.3322L68.7474 55.7572L63.5988 57.474L58.4501 63.4824L48.1529 68.6327L44.7204 72.9245V84.9418L41.288 102.967L38.7138 108.976L7.82195 135.586L2.67332 145.028L1.81522 149.32L6.10573 160.479L12.9706 166.487L22.4097 185.371L20.6935 197.388L14.6868 203.397L6.10573 222.28V229.149L7.82195 235.157L12.9706 244.599L18.9773 251.466L23.2679 248.89V246.315L24.126 247.173L24.984 244.599L27.5584 247.173L24.984 252.324L25.8421 253.183L30.1326 254.041L33.5651 249.749H39.5717L41.288 252.324V253.183L43.0043 254.041L56.7339 249.749L57.592 247.173L63.5988 242.882L67.8893 249.749H73.8959L79.0445 247.173L79.9027 249.749L82.4771 251.466L93.6323 248.032L99.6391 249.749L102.213 248.89L107.362 251.466L109.936 250.607L114.227 253.183L116.801 245.458L112.511 242.882L111.653 240.306L108.22 237.732V225.715L110.794 220.565L109.936 216.272L112.511 213.697L111.653 211.981L109.936 213.697L108.22 219.706L107.362 217.131L109.078 216.272V211.981L106.504 214.555ZM106.504 214.555V217.131" stroke="#0000FF" stroke-opacity="0.4" stroke-linecap="round" stroke-linejoin="round"/>
</g>
<path id="29_ChuongMy" fill-rule="evenodd" clip-rule="evenodd" d="M202.611 367.346H199.179L195.747 364.77V369.921L194.03 372.495H190.598L188.882 374.212L189.74 379.364L187.166 381.079V385.372L171.719 388.804L170.861 390.521L169.145 388.804L171.719 385.372L172.577 379.364L181.159 377.646L184.592 375.071V369.063L188.882 365.629L188.024 364.77L189.74 362.196H188.024L188.882 361.337L187.166 360.479V355.328L183.734 352.754L184.592 351.895L182.017 350.178V347.603L172.577 342.453L173.437 341.594H171.719V339.877H169.145L167.429 337.303L162.28 341.594L161.422 340.736V338.162L168.287 334.728L169.145 335.586L170.861 332.152L171.719 333.011L172.577 327.861L174.295 329.578L175.153 328.72L174.295 327.003L177.727 324.427V318.419L179.443 316.702L183.734 315.843L186.308 317.56L185.45 319.277H188.024L189.74 317.56L192.314 318.419L193.172 316.702L195.747 317.56V314.126L198.321 313.268V310.694H202.611L206.045 308.976L206.903 307.259L205.187 304.685L206.045 303.827L207.761 305.542L209.476 303.827L208.619 302.968L216.342 294.385L218.058 289.233L221.49 290.092L220.632 290.95L224.064 290.092L236.078 293.526L246.376 291.809L248.95 289.233V287.518L251.524 286.659L250.666 284.942H254.955L256.673 282.367L255.813 289.233L260.105 287.518H265.253L266.97 289.233L268.686 288.375L275.55 291.809L267.828 296.102L266.97 301.251L271.26 302.968L274.692 298.676L278.125 305.542L275.55 306.401L267.828 302.11L263.537 302.968V305.542L276.408 309.835L274.692 314.126L275.55 315.843L281.557 318.419L275.55 327.003L276.408 330.435L282.415 331.294L284.131 339.877L283.273 342.453L280.699 344.17L278.125 342.453L277.266 345.029L285.847 353.612L291.855 355.328L294.429 360.479L284.131 362.196L280.699 364.77L284.131 368.204H297.86V369.921L293.571 375.071L292.713 379.364L294.429 383.655L286.705 389.663L281.557 387.089L275.55 387.947L265.253 386.23L266.111 383.655L263.537 376.788L266.111 375.071L265.253 372.495L257.531 374.212L259.247 380.22L257.531 382.796L256.673 381.938L255.813 384.513L245.516 382.796L242.084 383.655L240.368 381.938L239.51 384.513L236.936 382.796V384.513L232.645 382.796L227.497 383.655L228.355 396.531L218.058 398.246L216.342 397.388L218.058 395.672L216.342 394.814L218.916 391.38L217.2 390.521V383.655L216.342 381.938L214.624 382.796L217.2 379.364L216.342 378.505L220.632 376.788L222.348 377.646L223.206 374.212L218.916 370.78L219.774 366.487L217.2 367.346V373.354L213.766 370.78L207.761 372.495L209.476 371.638H206.903L206.045 369.063H204.327L202.611 367.346Z" fill="#D18847" fill-opacity="0.5" stroke="#0000FF" stroke-opacity="0.4" stroke-linecap="round" stroke-linejoin="round"/>
<path id="29_DanPhuong" fill-rule="evenodd" clip-rule="evenodd" d="M270.402 211.123L265.253 209.406L264.395 211.123L260.105 210.264L258.389 208.547L260.963 205.113L257.531 203.397V200.822L256.673 201.68L251.524 199.105L245.516 202.539V204.256L247.234 205.113L243.8 207.689L244.658 208.547L242.084 211.123L242.942 211.981L238.652 210.264L236.936 211.981V213.697H238.652L236.936 215.414L234.361 211.123L229.213 213.697L226.639 212.838L224.064 203.397L226.639 197.388L218.916 192.238L219.774 187.089L220.632 187.945L222.348 185.371L216.342 183.654L212.05 179.362L216.342 175.071L212.05 169.063L214.624 161.337L212.908 141.594L224.922 154.47L235.219 159.62L250.666 161.337L266.111 168.204L268.686 172.495L272.976 169.921L278.983 175.071L284.989 187.089L275.55 193.097V206.83L274.692 209.406H271.26L270.402 211.123Z" fill="#B7E830" fill-opacity="0.5" stroke="#0000FF" stroke-opacity="0.4" stroke-linecap="round" stroke-linejoin="round"/>
<path id="29_DongAnh" fill-rule="evenodd" clip-rule="evenodd" d="M373.375 209.406L366.509 213.697L362.22 214.555L344.199 201.68L342.483 198.246L327.894 190.521L302.152 196.529H290.997L282.415 188.804L284.989 187.089L281.557 181.937L280.699 177.646H282.415L281.557 175.929L284.131 175.071L283.273 173.354L285.847 169.921L286.705 170.78L289.281 166.487L290.997 167.345V170.78H292.713V169.062L301.294 168.204L303.01 166.487V164.77L305.584 163.053L303.868 160.479V141.594L304.726 139.877H311.591L316.739 137.302V134.727L315.023 133.01L315.881 131.294L318.455 130.435L321.888 133.869L329.612 131.294L331.328 132.152L330.47 134.727L332.186 135.586L339.909 133.01L344.199 134.727L347.631 131.294L350.206 133.01L352.78 132.152L358.786 128.719L361.362 125.285L363.935 124.427L364.793 127.002L367.367 126.143L366.509 120.993L369.083 123.568L376.807 120.993L379.381 123.568L375.949 126.143L373.375 132.152H369.941V133.869L375.949 132.152L377.665 134.727L383.672 136.444L381.956 139.877H385.388L384.53 137.302L387.962 136.444L388.82 130.435H392.253L394.827 133.01L393.969 133.869L399.117 136.444L397.401 139.877L398.259 140.736L395.685 142.453L394.827 145.886L396.543 150.178H399.117L396.543 155.328L399.117 160.479H400.833V163.911L399.117 166.487L399.975 168.204H398.259L395.685 170.78L396.543 172.495L392.253 174.212L393.969 179.362L390.536 180.22L387.962 182.796L381.956 193.097L387.962 199.963L386.246 206.83L380.239 205.971L375.949 207.689L373.375 209.406Z" fill="#49E830" fill-opacity="0.5" stroke="#0000FF" stroke-opacity="0.4" stroke-linecap="round" stroke-linejoin="round"/>
<path id="29_GiaLam" fill-rule="evenodd" clip-rule="evenodd" d="M424.861 265.199L423.145 266.058L425.719 269.492L423.145 271.209V275.5L425.719 280.65L424.861 283.225L414.564 279.791L408.556 280.65L405.125 277.217L394.827 275.5L389.678 284.084L387.104 294.385L393.969 301.251L390.536 308.118L372.517 305.542L374.233 298.676L390.536 272.066L389.678 268.633L385.388 262.625L387.104 258.333L390.536 255.757L393.969 257.474L397.401 256.615V252.324L399.975 249.749L399.117 248.032L400.833 247.173V245.458L408.556 244.599L401.691 242.024L408.556 232.581L401.691 213.697L396.543 208.547L386.246 206.83L387.962 199.963L381.956 193.097L390.536 180.22L398.259 179.362V177.646L399.975 178.505L398.259 181.079L400.833 182.796L399.975 183.654H402.551L404.267 185.371L407.698 191.38L405.983 194.814L410.272 199.105L409.414 203.397L420.57 198.246L422.286 199.963L423.145 206.83L427.435 210.264L442.88 212.838L446.314 209.406L453.177 217.989L451.461 220.565L455.753 221.422V224.856L459.185 227.432L457.469 236.015L454.895 238.589L451.461 239.448L453.177 242.882L449.746 244.599V251.466L453.177 250.607V252.324L446.314 254.898L448.03 259.191L442.022 258.333L439.448 260.908H435.158L433.442 259.191L430.867 261.767L430.009 260.908V266.058L427.435 266.916L426.577 265.199H424.861Z" fill="#30E886" fill-opacity="0.5" stroke="#0000FF" stroke-opacity="0.4" stroke-linecap="round" stroke-linejoin="round"/>
<path id="29_HoaiDuc" fill-rule="evenodd" clip-rule="evenodd" d="M286.705 283.225L278.983 285.801L278.125 284.942L274.692 289.233L268.686 284.084L267.828 279.791L259.247 273.783H256.673L252.381 276.359L249.808 279.791L251.524 276.359L243.8 267.775L239.51 271.209L237.794 270.35L239.51 262.625L236.078 254.898L238.652 253.183H244.658L245.516 246.315L240.368 242.882L239.51 238.589L230.929 234.298L231.787 232.581H230.071L228.355 228.29L227.497 219.706L225.781 218.848V217.131L226.639 215.414H228.355L231.787 218.848H236.936V215.414L238.652 213.697H236.936V211.981L238.652 210.264L242.942 211.981L242.084 211.123L244.658 208.547L243.8 207.689L247.234 205.113L245.516 204.256V202.539H247.234L250.666 199.105L256.673 201.68L257.531 200.822V203.398L260.963 205.113L258.389 208.547L260.105 210.264L264.395 211.123L265.253 209.406L270.402 211.123L274.692 214.555L278.125 219.706L276.408 223.998L280.699 230.006V233.44L283.273 234.298L284.131 236.015V237.732L282.415 238.589L284.131 243.741H280.699L278.125 247.173L280.699 248.89L279.841 254.041L281.557 253.183V261.767L278.125 263.482L281.557 268.633L285.847 269.492L284.131 278.934L285.847 282.367L286.705 283.225Z" fill="#30DCE8" fill-opacity="0.5" stroke="#0000FF" stroke-opacity="0.4" stroke-linecap="round" stroke-linejoin="round"/>
<path id="29_MeLinh" fill-rule="evenodd" clip-rule="evenodd" d="M303.868 141.594V160.479L305.584 163.053L303.01 164.77L301.294 168.204L292.713 169.063V170.78H290.997L291.855 169.063L289.281 166.487L288.423 169.063L286.705 170.78L285.847 169.921L283.273 173.354L284.131 174.212L281.557 175.929L282.415 177.646H280.699L272.976 169.921L268.686 172.495L266.111 168.204L250.666 161.337L235.219 159.62L224.922 154.47L212.908 141.594L213.766 139.877L212.05 139.019L212.908 137.302L214.624 138.161L215.484 135.586L212.908 133.01V130.435L210.334 128.719L211.192 125.285L208.619 123.568L206.903 120.135L207.761 119.277L210.334 120.993L215.484 117.56L216.342 119.277L221.49 120.135L219.774 114.126L222.348 113.268L223.206 114.985H224.922L233.503 111.551L234.361 110.693L230.929 106.401L229.213 108.118L225.781 107.259L224.922 102.109L229.213 99.534L232.645 102.109L236.936 101.251L238.652 98.6756L240.368 102.968H242.084L242.942 100.392L243.8 101.251L242.084 104.684L244.658 107.259L248.092 102.109H252.381L248.95 103.826L249.808 105.543L251.524 104.684L250.666 107.259L252.381 110.693H255.813L258.389 115.843V112.41H260.963L261.821 110.693L265.253 111.551L269.544 108.976L270.402 109.835L272.118 108.118V104.684L274.692 108.118L278.983 103.826H285.847L290.997 106.401L293.571 110.693L296.144 109.835L297.002 114.985L299.578 116.701L303.01 115.843L303.868 120.993V119.277L308.158 125.285L315.023 127.86V133.01L316.739 134.727L315.881 137.302L311.591 139.877H304.726L303.868 141.594Z" fill="#306EE8" fill-opacity="0.5" stroke="#0000FF" stroke-opacity="0.4" stroke-linecap="round" stroke-linejoin="round"/>
<path id="29_MyDuc" fill-rule="evenodd" clip-rule="evenodd" d="M321.888 538.162L319.315 548.461L303.01 550.178L300.436 543.312L293.571 536.445L292.713 533.869L289.281 532.152L286.705 527.861L278.983 526.144L276.408 523.569L272.976 529.578L264.395 527.003L261.821 524.427L263.537 522.71L261.821 515.843L259.247 511.552L258.389 513.269L254.097 511.552L251.524 515.843L248.092 514.126L245.516 515.843L238.652 514.985L239.51 510.694L236.936 508.118L238.652 506.401L240.368 507.26L241.226 505.544L242.942 507.26L248.95 506.401V502.968L251.524 501.251L246.376 496.102L248.092 491.809L246.376 490.092L247.234 484.942L245.516 482.367L247.234 479.793L246.376 478.934L244.658 481.508V484.084L242.084 481.508L242.942 479.793L240.368 475.5V473.783L242.942 472.068L243.8 472.925L247.234 471.209L249.808 465.199L248.95 460.05L245.516 458.333L235.219 443.741L238.652 436.874L233.503 432.581L229.213 423.139L227.497 415.414V383.655L232.645 382.796L236.936 384.513L236.078 382.796L239.51 384.513L240.368 381.937L242.084 383.655L245.516 382.796L255.813 384.513L256.673 381.937L257.531 382.796L259.247 380.22L257.531 374.212L265.253 372.495L266.111 375.071L263.537 376.788L266.111 383.655L262.679 393.097L270.402 404.256L275.55 408.547L276.408 411.123L268.686 421.424L265.253 423.998L258.389 425.715L257.531 430.864L278.125 434.298L280.699 439.448L278.983 443.741L281.557 445.458L286.705 441.165H290.997L297.002 438.591L303.01 442.024L303.868 443.741L298.72 447.173L297.86 458.333L294.429 460.908L288.423 461.767L285.847 465.199L288.423 468.633L303.868 479.793L311.591 487.518L315.881 494.385L323.604 498.676V503.827L319.315 508.118L308.158 508.977V510.694L312.449 514.985L316.739 515.843L319.315 518.419H324.462L326.178 514.985L330.47 514.126L329.612 516.702L325.32 520.136L327.036 521.853L322.746 531.294V537.303L321.888 538.162Z" fill="#6130E8" fill-opacity="0.5" stroke="#0000FF" stroke-opacity="0.4" stroke-linecap="round" stroke-linejoin="round"/>
<path id="29_PhuXuyen" fill-rule="evenodd" clip-rule="evenodd" d="M395.685 477.217L387.962 480.65L381.097 476.359L380.239 473.783L375.949 476.359V473.783L374.233 474.642L373.375 469.492H375.091V466.058L375.949 466.916L379.381 465.199H377.665L376.807 462.625L369.941 458.333L370.799 457.474L366.509 455.757L368.225 453.183H364.793L359.644 449.749V447.173L357.07 445.458L357.928 442.882L356.212 439.448L353.638 437.733V434.299L351.064 435.157V432.581H343.341L339.05 435.157L335.618 431.723L334.76 433.44L329.612 429.149H327.036L324.462 425.715L318.455 426.573V420.565L316.739 417.99L320.173 418.848L321.888 411.981H324.462L325.32 406.83L323.604 407.689L326.178 405.972L328.752 400.822L327.036 398.246L328.752 394.814L327.894 393.955L330.47 391.38L333.902 396.531L333.044 389.663L337.334 388.804H341.625L343.341 396.531L348.489 395.672L355.354 391.38L365.651 394.814L366.509 396.531L364.793 399.964L369.941 403.398L370.799 402.539L375.091 404.256V405.972L376.807 405.115L378.523 411.123H382.814L381.097 413.697L381.956 414.555L375.949 422.281L378.523 424.856L381.097 423.139L387.962 424.856L392.253 418.848L396.543 417.131L392.253 410.264V405.115L393.111 401.681H395.685L399.117 399.105L402.551 402.539L424.861 407.689L428.293 413.697L426.577 420.565L428.293 436.874L423.145 442.024L425.719 453.183L430.867 460.05L434.3 460.908L440.306 457.474H448.888L444.598 461.767L445.456 464.341L441.164 466.916L445.456 473.783H442.022L443.74 472.068L441.164 471.209L437.732 472.925L433.442 477.217V482.367L426.577 483.225L422.286 485.801L420.57 488.377V492.668L412.848 490.092L411.988 483.225L413.706 480.65V475.5L411.988 472.068L396.543 475.5L395.685 477.217Z" fill="#D030E8" fill-opacity="0.5" stroke="#0000FF" stroke-opacity="0.4" stroke-linecap="round" stroke-linejoin="round"/>
<path id="29_PhucTho" fill-rule="evenodd" clip-rule="evenodd" d="M229.213 230.006L227.497 232.581L226.639 228.29L224.064 231.723V230.006L218.916 229.149L216.342 224.856L217.2 223.998L215.484 218.848L212.05 215.414L204.327 211.981V210.264L201.753 211.981L194.03 209.406L193.172 206.83L186.308 209.406L185.45 206.83L181.159 204.256L182.875 197.388L182.017 192.238H174.295L170.861 190.521L168.287 194.814L165.713 193.955V195.672L163.14 196.529L161.422 194.814L159.706 198.246L154.558 199.105H145.977L140.828 196.529L141.686 195.672L139.112 193.955L135.68 195.672L134.821 193.097L139.112 191.38L138.254 187.945H136.538L135.68 185.371V181.079L138.254 178.505L137.396 176.788L140.828 175.071L141.686 175.929L142.544 173.354H144.261L145.119 171.637L146.835 173.354V171.637L150.267 169.921L147.693 164.77H145.119L144.261 154.47L155.416 156.186L163.14 153.611L178.585 151.895L197.463 145.886L202.611 140.736L207.761 139.019L211.192 139.877L212.908 141.594L213.766 145.886L214.624 161.337L212.05 169.063L216.342 175.071L212.05 178.505L216.342 183.654L222.348 185.371L220.632 187.945L219.774 187.089L218.916 192.238L226.639 197.388L224.064 203.398L226.639 212.838L229.213 213.697L233.503 211.123L237.794 217.131L235.219 219.706L226.639 215.414L225.781 218.848L227.497 219.706L228.355 228.29L229.213 230.006Z" fill="#E83092" fill-opacity="0.5" stroke="#0000FF" stroke-opacity="0.4" stroke-linecap="round" stroke-linejoin="round"/>
<path id="29_QuocOai" fill-rule="evenodd" clip-rule="evenodd" d="M195.747 316.702L185.45 319.277L186.308 317.56L183.733 315.843L185.45 314.126L183.733 312.411H186.308L187.166 310.694L184.592 307.259L181.159 306.401L179.443 308.118L172.577 309.835L168.287 308.118L163.998 311.552L158.848 307.259L150.267 313.268L148.551 311.552H142.544L136.538 305.542L128.815 302.968L121.95 294.385H125.382L126.24 290.95L129.673 288.375L128.815 284.942L136.538 279.791L137.396 272.924L142.544 272.066L143.402 273.783L141.686 274.641L145.977 276.359L149.409 279.791L148.551 278.076L153.7 272.924H160.564L164.856 270.35V267.775L166.571 268.633V266.916L170.003 265.199L168.287 270.35L175.153 272.066V273.783L179.443 276.359L181.159 275.5L180.301 273.783H182.017V268.633H183.733V271.209L185.45 270.35L184.592 269.492L186.308 265.199H184.592V258.333L187.166 256.615H192.314L191.456 254.041L194.03 250.607L198.321 257.474L206.903 254.041L207.761 255.757L212.05 254.041L213.766 256.615L216.342 252.324L218.916 254.041L219.774 251.466L221.49 252.324L219.774 248.89L218.058 250.607L215.484 248.032L218.058 242.024L216.342 241.165L218.058 236.015L217.2 235.157L218.916 234.298V229.149L224.064 230.006V231.723L226.639 228.29L227.497 232.581L229.213 230.006L230.071 232.581H231.787L230.929 234.298L237.794 236.874L239.51 238.589L240.368 242.882L245.516 246.315L244.658 253.183H238.652L236.078 254.898L239.51 262.625L237.794 270.35L238.652 271.209L242.942 269.492L243.8 267.775L251.524 276.359L249.808 278.934L251.524 279.791L252.381 276.359L255.813 273.783H259.247L267.828 279.791L268.686 284.084L275.55 290.092V291.809L269.544 288.375L266.969 289.233L265.253 287.518H260.105L255.813 289.233L256.673 283.225L254.955 284.942H250.666L251.524 286.659L248.95 287.518V289.233L246.376 291.809L236.078 293.526L224.922 291.809L224.064 290.092L220.632 290.95L221.49 290.092L218.058 289.233L217.2 292.668L211.192 299.534L212.05 300.393L208.619 302.11V305.542L206.903 303.827L205.187 304.685L206.903 307.259L206.045 308.976L202.611 310.694H198.321V313.268L195.747 314.126V316.702Z" fill="#E83D30" fill-opacity="0.5" stroke="#0000FF" stroke-opacity="0.4" stroke-linecap="round" stroke-linejoin="round"/>
<path id="29_QuocSon" fill-rule="evenodd" clip-rule="evenodd" d="M388.82 130.435L387.962 136.444L384.53 137.302L385.388 139.877L381.956 140.736L383.672 137.302L382.814 135.586L377.665 134.727L375.949 132.152L369.941 133.869V132.152H373.375L375.949 126.143L379.381 123.568L376.807 120.993L369.083 123.568L367.367 120.993V126.143L364.793 127.002L363.935 124.427L361.362 125.285L358.786 128.719L352.78 132.152L350.206 133.01L347.631 131.294L344.199 134.727L339.909 133.01L333.902 135.586H330.47L331.328 132.152L329.612 131.294L321.888 133.869L318.455 130.435L315.881 131.294L314.165 127.002L308.158 125.285L303.868 119.277V120.993L303.01 116.701H299.578L297.002 114.985L296.144 110.693H294.429L290.997 106.401L281.557 102.967L278.125 99.534L281.557 101.251L283.273 100.392L282.415 97.8172L275.55 96.9589L278.125 92.667L273.834 90.9502V80.6499L278.125 78.9332L275.55 77.2164L279.841 74.6413L280.699 72.0662H282.415L281.557 68.6327L283.273 66.0575L285.847 66.9159L284.989 64.3408H286.705V62.624L287.563 63.4824L290.139 60.9073L292.713 61.7657L298.72 48.8902L302.152 45.4567L304.726 41.1648V38.5897L311.591 29.1476V22.2807L313.307 21.4224L312.449 17.9889L314.165 10.2635L315.881 8.54674L314.165 7.68838L320.172 2.53815L321.03 3.39652L322.746 0.821411L329.612 3.39652L332.186 2.53815L341.625 8.54674H344.199L346.773 5.97163H351.922L352.78 8.54674L357.07 6.83001L358.786 8.54674V13.697L357.07 12.8386L355.354 16.2721L354.496 19.7056L356.212 23.139L354.496 24.8557L358.786 27.4308H357.07L357.928 31.7227L361.362 32.5811L363.935 39.4481H374.233L377.665 41.1648L383.672 39.4481L384.53 42.0232L382.814 52.3237L385.388 55.757L390.536 56.6154L393.969 54.0404L395.685 54.8988L393.969 60.0489L394.827 61.7657L404.267 62.624L399.117 66.0575L398.259 72.9245L399.117 78.9332L408.556 93.5254V95.2421H400.833L401.691 97.8172L396.543 104.684H387.962L388.82 105.543L387.104 106.401V108.976L387.962 109.834L390.536 108.118L393.969 113.268V118.418L390.536 120.135L393.111 122.71L391.394 124.427L387.104 123.568L386.246 124.427L387.962 127.002L388.82 130.435Z" fill="#D147AC" fill-opacity="0.5" stroke="#0000FF" stroke-opacity="0.4" stroke-linecap="round" stroke-linejoin="round"/>
<path id="29_ThachThat" fill-rule="evenodd" clip-rule="evenodd" d="M181.159 275.5L179.443 276.359L178.585 274.641L177.727 275.5L175.153 273.783V272.066L168.287 270.35L170.003 265.199H168.287L166.571 268.633L165.713 267.775L164.856 270.35L161.422 272.924H153.7L148.551 278.076L149.409 279.791L146.835 276.359L141.686 274.641L143.402 273.783L142.544 272.066L137.396 272.924L136.538 279.791L128.815 284.942L129.673 288.375L126.24 290.95L125.382 294.385H115.085L114.227 296.102L99.6391 288.375L97.0648 279.791L92.7743 272.924L85.9094 270.35L83.335 260.908L73.8959 260.05L67.8893 256.615L67.0312 249.749H73.8959L79.0445 247.173L79.9027 249.749L82.4771 251.466L93.6323 248.032L98.7809 249.749L102.213 248.89L106.504 251.466L109.078 250.607L114.227 253.183L116.801 245.458L127.098 231.723L138.254 242.882L140.828 242.024V240.306L141.686 241.165L145.119 235.157L148.551 234.298L151.125 231.723V230.006L152.842 229.149L151.983 228.29L156.274 224.856L154.558 223.998L157.132 222.28H155.416L156.274 217.989L152.842 216.272L153.7 213.697L157.99 210.264L153.7 208.547H155.416L154.558 205.113L150.267 203.397L149.409 200.822L151.983 198.246H159.706L161.422 195.672H165.713V193.955L168.287 194.814L170.861 190.521L174.295 192.238H182.017L182.875 197.388L181.159 204.256L185.45 206.83L186.308 209.406L193.172 206.83L194.03 209.406L201.753 211.981L204.327 210.264V211.981L212.05 215.414L215.484 218.848L217.2 223.998L216.342 224.856L218.916 229.149V234.298H217.2L218.058 236.015L216.342 241.165L218.058 242.024L215.484 248.032L218.058 250.607L219.774 248.89L221.49 251.466H219.774L218.916 253.183L216.342 252.324L213.766 256.615L212.05 254.041L207.761 255.757L206.903 254.041L198.321 257.474L194.03 250.607L191.456 254.041L192.314 256.615H187.166L184.592 258.333L185.45 269.492L183.734 270.35V268.633H182.017V273.783H180.301L181.159 274.641V275.5Z" fill="#D1475A" fill-opacity="0.5" stroke="#0000FF" stroke-opacity="0.4" stroke-linecap="round" stroke-linejoin="round"/>
<path id="29_ThanhOai" fill-rule="evenodd" clip-rule="evenodd" d="M301.294 404.256H299.578V400.822L297.002 399.105L295.286 401.681L293.571 398.246H290.139L287.563 399.964L283.273 397.388L284.131 394.814L281.557 387.089L286.705 389.663L294.429 383.655L292.713 379.363L293.571 375.071L297.86 369.921V368.204H284.131L280.699 365.629L282.415 363.055L294.429 360.479V358.762L291.855 355.328L285.847 353.612L277.266 345.029V342.453L280.699 344.17L283.273 342.453L284.131 335.586L282.415 331.294L276.408 330.435L275.55 327.002L282.415 316.702L284.989 317.56L285.847 315.843L290.139 314.985L290.997 305.542L293.571 306.401L295.286 305.542V303.827L298.72 306.401L297.002 307.259L301.294 310.694L307.3 308.118V306.401L312.449 305.542L313.307 299.534H320.172L322.746 302.968L316.739 308.118V311.552L315.023 313.268L320.172 318.419L323.604 317.56L332.186 324.427V326.144L329.612 327.002L331.328 328.72L329.612 330.435L330.47 334.728L332.186 335.586L330.47 339.877H332.186L331.328 345.029L337.334 345.887V351.037L333.902 353.612L335.618 355.328V365.629L339.049 369.921L340.767 375.929L345.915 376.788L345.057 381.079L347.631 382.796L345.915 385.372L346.773 386.23L345.057 393.097L341.625 388.804H338.192L333.044 389.663L334.76 396.531L330.47 391.38L327.894 393.955L328.752 394.814L327.036 398.246L328.752 400.822L326.178 405.972L319.315 404.256L312.449 398.246L309.875 400.822L309.017 399.105H307.3V400.822H302.152L301.294 404.256Z" fill="#D18847" fill-opacity="0.5" stroke="#0000FF" stroke-opacity="0.4" stroke-linecap="round" stroke-linejoin="round"/>
<path id="29_ThanhTri" fill-rule="evenodd" clip-rule="evenodd" d="M372.517 303.827V305.542L374.233 306.401H383.672L390.536 308.118L394.827 311.552V313.269L384.53 322.71L380.239 320.136L377.665 321.851L376.807 320.136L370.801 318.419L369.083 321.851L364.793 320.136L362.22 322.71L358.786 320.994L355.354 324.427V327.861L346.773 324.427V319.277L342.483 320.994L343.341 322.71L341.625 325.285H339.909V327.861L338.192 323.568L332.186 324.427L323.604 317.56L320.172 318.419L315.023 313.269L316.739 311.552V308.118L322.746 302.11L320.172 299.534L317.597 300.393L315.023 298.676L316.739 297.817L318.455 289.233L321.888 286.659H324.462L316.739 282.367L317.597 280.65L315.881 279.793L318.455 278.076V276.359L321.888 275.5L318.455 272.066L321.03 269.492L322.746 270.35V267.775L328.752 269.492L327.036 276.359L329.612 278.934L334.76 277.217L337.334 278.934L332.186 285.801L341.625 290.95V289.233H343.341L344.199 286.659L348.489 287.518L349.347 291.809L358.786 287.518L359.644 290.092L365.651 292.668L368.225 289.233L375.949 296.102L374.233 298.676L372.517 303.827Z" fill="#B7E830" fill-opacity="0.5" stroke="#0000FF" stroke-opacity="0.4" stroke-linecap="round" stroke-linejoin="round"/>
<path id="29_ThuongTin" fill-rule="evenodd" clip-rule="evenodd" d="M386.246 424.856L383.672 423.139L378.523 424.856L376.807 423.998L375.949 422.281L381.956 414.555L381.097 413.697L382.814 411.123H378.523L376.807 405.115L375.091 405.972V404.256L373.375 405.115L370.799 402.539L369.941 403.398L364.793 399.964L366.509 396.531L365.651 395.672L355.354 391.38L348.489 395.672L343.341 396.531V392.238L345.057 393.097L346.773 386.23L345.915 385.372L347.631 382.796L345.057 381.079L345.915 376.788L340.767 375.929L339.05 374.212L339.909 371.638L335.618 365.629V355.328L333.902 353.612L337.334 351.895V345.887L331.328 345.029L332.186 339.877H330.47L332.186 335.586L330.47 334.728L329.612 330.435L331.328 328.72L329.612 327.861L332.186 326.144V324.427L338.192 323.568L339.909 327.861V326.144L342.483 325.285V320.994L346.773 319.277V324.427L355.354 327.861V324.427L358.786 320.994L362.22 322.71L364.793 320.136L368.225 321.851L370.799 318.419L376.807 320.136V321.851L380.239 320.136L384.53 322.71L381.956 325.285V330.435L393.969 336.445L404.267 343.311L406.841 346.744V355.328L404.267 359.62L396.543 363.911L392.253 369.921L391.394 378.505L396.543 394.814L399.117 399.105L395.685 401.681H393.111L392.253 405.115V410.264L396.543 417.131L392.253 418.848V420.565L388.82 422.281L387.962 424.856L387.104 423.998L386.246 424.856Z" fill="#49E830" fill-opacity="0.5" stroke="#0000FF" stroke-opacity="0.4" stroke-linecap="round" stroke-linejoin="round"/>
<path id="29_UngHoa" fill-rule="evenodd" clip-rule="evenodd" d="M356.212 495.243L350.205 488.377L349.347 490.092L346.773 488.377L347.631 486.66L335.618 483.225V484.942L333.902 485.801L335.618 488.377L343.341 493.526V495.243L330.47 503.827L328.752 508.118L330.47 514.126L326.178 514.985L324.462 518.419H319.315L316.739 515.843L312.449 514.985L308.158 510.694V508.977L319.315 508.118L322.746 505.544L324.462 501.251L323.604 498.676L315.881 494.385L311.591 487.518L303.868 479.793L288.423 468.633L285.847 465.199L288.423 461.767L294.429 460.908L297.86 458.333L298.72 447.173L303.868 444.599L303.01 442.024L297.86 438.591L291.855 441.165H286.705L281.557 445.458L278.983 444.599L280.699 439.448L278.125 434.299L257.531 430.864L258.389 425.715L265.253 423.998L268.686 421.424L276.408 411.123L275.55 408.547L270.402 404.256L262.679 393.955L265.253 386.23L275.55 387.947L281.557 387.089L284.131 394.814L283.273 397.388L287.563 399.964L290.139 398.246H293.571L295.287 401.681L297.002 399.105L299.578 400.822L298.72 401.681L300.436 405.115L302.152 400.822H307.3V399.105H309.017L309.875 400.822L312.449 398.246L319.315 404.256L326.178 405.972L323.604 406.83H325.32V409.406L324.462 411.981H321.888L320.172 418.848L316.739 417.99L318.455 426.573L324.462 425.715L327.036 429.149H329.612L334.76 433.44L335.618 431.723L339.049 435.157L343.341 432.581H351.064V435.157L353.638 434.299V437.733L356.212 438.591L357.928 442.882L356.212 445.458L359.644 447.173V449.749L364.793 453.183H368.225L366.509 455.757L370.799 457.474L369.941 458.333L376.807 461.767L377.665 464.341H379.381L375.949 466.916L375.091 466.058V469.492H373.375L374.233 474.642L375.949 473.783V476.359L380.239 473.783L381.097 476.359L387.962 480.65V483.225L381.956 480.65V491.809L372.517 497.817L363.935 496.102L358.786 496.96L356.212 495.243Z" fill="#30E886" fill-opacity="0.5" stroke="#0000FF" stroke-opacity="0.4" stroke-linecap="round" stroke-linejoin="round"/>
</g>
</g>
</svg>
