<svg width="417" height="511" viewBox="0 0 417 511" fill="none" xmlns="http://www.w3.org/2000/svg">
<g id="41">
<g id="Group">
<path id="41_Quan1" fill-rule="evenodd" clip-rule="evenodd" d="M208.169 255.5L204.774 258.047L201.381 250.407L211.563 239.37L203.927 233.427V230.88L209.017 231.729L209.866 233.427L210.715 232.578L216.654 234.277L218.351 236.823H220.897L221.744 238.521L219.198 240.218L218.351 247.011L214.956 248.709L209.866 254.65L208.169 255.5Z" fill="#D147AC" fill-opacity="0.5" stroke="#0000FF" stroke-opacity="0.4" stroke-linecap="round" stroke-linejoin="round"/>
<path id="41_Quan2" fill-rule="evenodd" clip-rule="evenodd" d="M254.835 265.687L248.896 263.989L242.108 265.687L240.411 263.989V259.745L245.503 252.104L244.654 248.709L239.562 243.614L237.018 242.766L234.472 244.464L233.623 252.104L231.078 253.802L226.836 254.65L219.198 250.407V240.218L226.836 236.823L229.38 232.578V229.182L226.836 224.938L228.533 218.146L233.623 216.448L236.169 222.391L238.714 223.24H242.957L244.654 220.693L251.442 219.843L253.986 223.24H259.925L263.32 235.125H266.714V238.521L265.017 240.218L268.411 242.766L272.653 241.916L276.048 244.464L277.745 243.614L281.138 245.313L277.745 247.859L276.896 252.104L274.35 254.65L259.925 261.443L254.835 265.687Z" fill="#D1475A" fill-opacity="0.5" stroke="#0000FF" stroke-opacity="0.4" stroke-linecap="round" stroke-linejoin="round"/>
<path id="41_Quan3" fill-rule="evenodd" clip-rule="evenodd" d="M201.381 242.766L191.199 236.823V235.125L194.592 236.823L203.077 233.427L211.563 239.37L201.381 250.407L197.138 249.557L202.23 244.464L201.381 242.766Z" fill="#D18847" fill-opacity="0.5" stroke="#0000FF" stroke-opacity="0.4" stroke-linecap="round" stroke-linejoin="round"/>
<path id="41_Quan4" fill-rule="evenodd" clip-rule="evenodd" d="M207.32 258.896L204.774 258.047L209.866 254.65L214.956 248.709L218.351 247.859L220.897 252.104L226.836 254.65L222.593 258.896H209.866H207.32Z" fill="#B7E830" fill-opacity="0.5" stroke="#0000FF" stroke-opacity="0.4" stroke-linecap="round" stroke-linejoin="round"/>
<path id="41_Quan5" fill-rule="evenodd" clip-rule="evenodd" d="M188.653 261.443L185.26 263.141L184.411 259.745H182.714V256.35L196.291 253.802L201.381 250.407L204.774 258.047L203.077 259.745L198.835 258.896L197.987 261.443L191.199 260.593L188.653 261.443Z" fill="#49E830" fill-opacity="0.5" stroke="#0000FF" stroke-opacity="0.4" stroke-linecap="round" stroke-linejoin="round"/>
<path id="41_Quan6" fill-rule="evenodd" clip-rule="evenodd" d="M172.532 270.782L168.29 273.328V271.63H165.745L166.593 269.084L164.047 270.782L166.593 256.35L165.745 252.953L171.685 255.5L172.532 254.65L174.229 257.198L181.866 258.047L182.714 259.745H184.411L185.26 263.141L172.532 270.782Z" fill="#D18847" fill-opacity="0.5" stroke="#0000FF" stroke-opacity="0.4" stroke-linecap="round" stroke-linejoin="round"/>
<path id="41_Quan7" fill-rule="evenodd" clip-rule="evenodd" d="M244.654 283.516V288.609L235.319 289.459L233.623 292.854H230.229L227.684 288.609L228.533 284.364L226.836 281.818L228.533 278.422L225.987 277.573L224.29 280.12L220.048 278.422L218.351 279.271L216.654 275.875H206.472L209.866 269.084L207.32 258.896L224.29 258.047L226.836 254.65L233.623 252.104L235.319 243.614H239.562L244.654 248.709L245.503 252.104L240.411 259.745V263.989L242.108 265.687L248.896 263.989L254.835 265.687L244.654 278.422V283.516Z" fill="#30DCE8" fill-opacity="0.5" stroke="#0000FF" stroke-opacity="0.4" stroke-linecap="round" stroke-linejoin="round"/>
<path id="41_Quan8" fill-rule="evenodd" clip-rule="evenodd" d="M149.624 290.307L153.865 289.459V285.214L163.2 281.818L164.047 270.782L166.593 269.084L165.745 271.63H168.29V273.328L176.775 267.386L188.653 261.443H197.987L198.835 258.896H207.32L208.169 265.687L202.23 267.386L201.381 269.932H197.987L196.291 268.234L192.048 271.63V269.932L181.866 272.479V274.177H177.624L165.745 296.25L164.047 292.005L157.26 294.552H152.169L150.472 292.854L149.624 290.307Z" fill="#6130E8" fill-opacity="0.5" stroke="#0000FF" stroke-opacity="0.4" stroke-linecap="round" stroke-linejoin="round"/>
<path id="41_Quan9" fill-rule="evenodd" clip-rule="evenodd" d="M299.805 245.313L292.169 253.802L289.623 254.65L288.774 252.953L290.471 245.313L287.926 241.068L284.531 241.916L281.138 245.313L278.592 243.614L276.048 244.464L272.653 241.916L268.411 242.766L265.017 240.218L266.714 238.521V235.125H263.32L259.925 223.24H253.986L251.442 219.843L248.047 220.693L249.744 214.75L258.229 197.771L276.896 186.734L285.381 175.698L290.471 173.152L289.623 170.604L291.32 168.907L292.169 169.756L295.562 167.209L299.805 166.359L301.502 175.698L306.593 180.793L303.198 188.432L304.895 193.527L309.987 202.016L325.258 219.843L324.411 225.786L315.077 235.975L321.017 247.859L319.319 250.407L315.077 251.255L306.593 244.464H303.198L299.805 245.313Z" fill="#6130E8" fill-opacity="0.5" stroke="#0000FF" stroke-opacity="0.4" stroke-linecap="round" stroke-linejoin="round"/>
<path id="41_Quan10" fill-rule="evenodd" clip-rule="evenodd" d="M193.745 253.802L189.502 254.65L186.109 242.766L191.199 236.823L201.381 242.766L202.23 244.464L197.138 249.557L201.381 250.407L196.291 253.802H193.745Z" fill="#D030E8" fill-opacity="0.5" stroke="#0000FF" stroke-opacity="0.4" stroke-linecap="round" stroke-linejoin="round"/>
<path id="41_Quan11" fill-rule="evenodd" clip-rule="evenodd" d="M181.866 258.047L174.229 257.198L172.532 255.5L173.381 247.859L174.229 248.709L178.471 244.464H180.17L183.563 248.709V244.464L185.26 242.766L189.502 255.5L182.714 256.35V258.047H181.866Z" fill="#E83092" fill-opacity="0.5" stroke="#0000FF" stroke-opacity="0.4" stroke-linecap="round" stroke-linejoin="round"/>
<path id="41_Quan12" fill-rule="evenodd" clip-rule="evenodd" d="M210.715 184.188L212.412 185.886L222.593 188.432L224.29 193.527L221.744 196.073H215.805L211.563 198.62V201.168L214.956 204.563L209.866 209.657H208.169L205.623 204.563V199.468H202.23L203.077 196.922L197.987 196.073L196.291 190.979L190.351 194.375L183.563 190.979L180.17 192.677V195.225L179.321 194.375L176.775 197.771L172.532 200.318L170.836 203.714L171.685 207.109L169.986 211.354L165.745 216.448L163.2 217.297L153.018 212.204L155.564 206.261L160.654 202.016L155.564 194.375L160.654 185.036L163.2 184.188L168.29 178.245L166.593 176.547L169.139 174.85L170.836 171.454L177.624 170.604L180.17 168.907H183.563L184.411 171.454H192.896L194.592 165.511L200.533 163.813L201.381 167.209L208.169 162.964L209.866 168.059L207.32 172.302L206.472 177.396L210.715 184.188Z" fill="#E83D30" fill-opacity="0.5" stroke="#0000FF" stroke-opacity="0.4" stroke-linecap="round" stroke-linejoin="round"/>
<path id="41_BinhTan" fill-rule="evenodd" clip-rule="evenodd" d="M165.745 263.141L163.2 281.818L153.865 285.214V280.968H151.321V277.573L140.29 273.328L139.442 270.782L135.199 274.177V271.63L125.866 269.084L125.018 267.386L125.866 261.443L134.351 253.802L130.957 252.104L132.654 248.709H135.199L139.442 244.464H141.987L144.533 241.916V236.823L141.987 235.125V230.88H140.29L142.836 220.693L141.139 218.995L147.078 211.354L153.018 212.204L161.503 216.448L155.564 220.693V224.938L159.805 230.88L165.745 249.557V263.141Z" fill="#D147AC" fill-opacity="0.5" stroke="#0000FF" stroke-opacity="0.4" stroke-linecap="round" stroke-linejoin="round"/>
<path id="41_BinhThanh" fill-rule="evenodd" clip-rule="evenodd" d="M220.897 236.823H218.351L216.654 234.277L211.563 232.578L209.866 233.427L209.017 231.729H207.32L208.169 227.484L203.077 224.938L203.927 219.843H206.472L209.017 217.297V215.6L213.259 212.204L212.412 210.505L209.866 209.657L210.715 207.959L213.259 207.109V205.411L214.956 204.563L218.351 207.959V213.052L223.441 216.448L231.078 213.902L237.865 206.261L242.108 207.959L244.654 211.354V220.693L242.957 223.24L236.169 222.391L233.623 216.448H231.078L228.533 218.146L226.836 222.391V224.938L229.38 228.334V232.578L226.836 236.823L221.744 238.521V236.823H220.897Z" fill="#6130E8" fill-opacity="0.5" stroke="#0000FF" stroke-opacity="0.4" stroke-linecap="round" stroke-linejoin="round"/>
<path id="41_GoVap" fill-rule="evenodd" clip-rule="evenodd" d="M179.321 205.411L177.624 211.354L171.685 208.807V200.318L177.624 196.922L179.321 194.375L180.17 195.225V192.677L182.714 190.979L190.351 194.375L196.291 190.979L197.138 194.375L199.684 196.922L203.077 196.073L202.23 198.62L206.472 201.168L205.623 204.563L208.169 209.657H212.412L213.259 211.354L209.017 214.75L206.472 219.843L205.623 218.995L203.077 222.391H201.381L196.291 219.843H197.987L196.291 214.75L199.684 213.052L198.835 212.204H194.592L186.109 206.261H181.866L179.321 205.411Z" fill="#D18847" fill-opacity="0.5" stroke="#0000FF" stroke-opacity="0.4" stroke-linecap="round" stroke-linejoin="round"/>
<path id="41_PhuNhuan" fill-rule="evenodd" clip-rule="evenodd" d="M197.138 235.125H192.048L194.592 229.182H192.896V226.636L196.291 219.843L203.077 222.391V224.938L208.169 227.484L207.32 231.729L203.927 230.88L204.774 233.427L197.987 235.125H197.138Z" fill="#B7E830" fill-opacity="0.5" stroke="#0000FF" stroke-opacity="0.4" stroke-linecap="round" stroke-linejoin="round"/>
<path id="41_TanBinh" fill-rule="evenodd" clip-rule="evenodd" d="M181.017 246.161L176.775 238.521L174.229 227.484L169.986 214.75L168.29 213.052L170.836 207.959L177.624 211.354L179.321 205.411H183.563L192.048 211.354H196.291L199.684 213.052L196.291 214.75L197.987 219.843L197.138 218.995L195.442 220.693L193.745 224.938V232.578L188.653 240.218L183.563 244.464V248.709L181.017 246.161Z" fill="#49E830" fill-opacity="0.5" stroke="#0000FF" stroke-opacity="0.4" stroke-linecap="round" stroke-linejoin="round"/>
<path id="41_TanPhu" fill-rule="evenodd" clip-rule="evenodd" d="M173.381 247.859V252.104L171.685 255.5L165.745 252.953L164.047 243.614L155.564 220.693L161.503 216.448H165.745L168.29 213.052L169.986 214.75L176.775 238.521L180.17 244.464H178.471L174.229 248.709L173.381 247.859Z" fill="#30E886" fill-opacity="0.5" stroke="#0000FF" stroke-opacity="0.4" stroke-linecap="round" stroke-linejoin="round"/>
<path id="41_ThuDuc" fill-rule="evenodd" clip-rule="evenodd" d="M248.047 220.693H244.654V211.354L242.108 207.959L237.865 206.261L231.078 213.902L223.441 216.448L218.351 213.052L217.502 206.261L211.563 201.168L212.412 197.771L215.805 196.073H221.744L224.29 193.527L222.593 188.432L220.897 187.584L222.593 185.886L221.744 183.339H227.684L225.987 180.793L220.897 179.943L224.29 178.245L223.441 174H221.744L220.897 172.302L223.441 168.059L230.229 172.302L232.775 171.454L231.926 174.85L235.319 175.698L233.623 178.245L236.169 179.095L240.411 177.396L244.654 181.641L241.26 182.491L244.654 189.282L246.35 187.584L251.442 186.734L252.29 185.036L250.593 183.339V177.396L253.139 175.698L253.986 171.454L255.684 169.756L262.471 177.396V185.886L266.714 186.734L267.563 183.339L271.805 182.491L280.289 183.339L276.896 186.734L258.229 197.771L249.744 214.75L248.047 220.693Z" fill="#30DCE8" fill-opacity="0.5" stroke="#0000FF" stroke-opacity="0.4" stroke-linecap="round" stroke-linejoin="round"/>
<path id="41_BinhChanh" fill-rule="evenodd" clip-rule="evenodd" d="M123.321 321.718L124.169 319.171L119.927 318.323L122.472 313.229L120.775 301.343L118.23 299.646H110.594L106.351 286.062L108.048 280.968L102.109 276.723L95.3209 280.968L90.23 275.025L89.3815 275.875L86.836 274.177L84.2907 276.723L66.4725 256.35L81.7451 245.313L91.9269 235.975L105.503 182.49L110.594 183.339L107.2 198.62L116.533 202.016L117.381 200.318L124.169 202.016L127.563 201.168L128.412 202.865L136.048 202.016L140.29 207.959H143.684L147.078 210.505L140.29 218.995L142.836 220.693L140.29 230.88H141.987L141.139 235.125L144.533 236.823V241.916L141.987 244.464H139.442L135.199 248.709H132.654L130.957 251.255L134.351 253.802L125.866 261.443L125.018 267.386L125.866 269.084L135.199 271.63V274.177L139.442 270.782L140.29 273.328L151.321 277.573V280.968H153.865V289.459L149.624 290.307L152.169 294.552H157.26L164.047 292.005L165.745 296.25L167.442 295.4L176.775 274.177H181.866V272.479L192.048 269.932V271.63L196.291 268.234L197.987 269.932H201.381L202.23 267.386L208.169 265.687L209.866 269.084L207.32 272.479L205.623 278.422V284.364L201.381 282.666L196.291 289.459V296.25L197.987 301.343L200.533 303.041L201.381 305.589L199.684 308.984V314.078L203.077 315.775L203.927 322.568L193.745 330.207H189.502L186.109 327.661V330.207L183.563 331.057V334.453L179.321 333.604L176.775 337.848L172.532 338.698L169.139 336.15V328.51L168.29 327.661L165.745 330.207L164.047 329.359L166.593 325.114L161.503 323.416L162.35 322.568L158.108 319.171L154.715 318.323L152.169 322.568L147.927 320.869L148.775 322.568L146.23 323.416L145.381 321.718L138.593 319.171V323.416L136.896 324.266L134.351 323.416V320.869L131.806 319.171H130.109L128.412 322.568L125.866 321.718L125.018 324.266L123.321 322.568V321.718Z" fill="#306EE8" fill-opacity="0.5" stroke="#0000FF" stroke-opacity="0.4" stroke-linecap="round" stroke-linejoin="round"/>
<path id="41_CanGio" fill-rule="evenodd" clip-rule="evenodd" d="M375.32 456.702L381.259 459.248L387.198 465.191L389.744 471.983L380.41 483.869L362.592 489.812L332.896 502.546L296.411 509.337L283.684 485.566L260.775 460.098L248.047 441.421L241.26 425.291L239.562 419.348L242.957 405.764V398.123L238.714 376.9L239.562 372.655L242.108 368.411L248.896 365.864L258.229 370.109L261.624 369.26L264.168 365.864V356.525L257.381 346.339V333.604L255.684 329.359L252.29 326.812L242.957 323.416L238.714 320.021L237.018 316.625L238.714 310.682L242.108 309.832L253.139 314.078L258.229 311.532V306.437L264.168 308.984L270.107 312.38L272.653 315.775L279.441 318.323L283.684 329.359L291.32 337L298.108 337.848L301.502 331.057L306.593 329.359L311.683 331.905L314.229 328.51L317.623 327.661L321.017 324.266L326.108 325.114L326.957 329.359L330.35 331.057L332.047 334.453L338.835 339.546L343.078 349.734L349.017 348.036L353.259 352.28L361.744 356.525L373.623 359.073L378.713 361.619L382.956 365.864L388.047 367.562L390.592 362.468L389.744 357.375L392.29 353.978V351.432H395.683L397.38 349.734L399.077 350.582L399.926 348.036L402.471 348.885L403.319 346.339L409.258 350.582L411.804 358.223L415.198 363.316L413.501 368.411L405.865 379.448L405.016 383.691L405.865 386.239L413.501 388.786L415.198 393.88L410.107 398.973L404.168 409.16L396.532 415.953V442.269L393.137 448.212L386.351 450.759L377.016 451.608L375.32 456.702Z" fill="#6130E8" fill-opacity="0.5" stroke="#0000FF" stroke-opacity="0.4" stroke-linecap="round" stroke-linejoin="round"/>
<path id="41_CuChi" fill-rule="evenodd" clip-rule="evenodd" d="M161.503 106.933V110.329L168.29 116.272L174.229 117.121L179.321 114.574L181.017 115.423V125.61L183.563 132.402L181.866 144.287L186.109 149.381L183.563 153.625L164.896 157.022L151.321 154.475L152.169 151.079L141.139 147.683H139.442L141.139 153.625H129.26L127.563 155.323L113.139 156.172L86.836 152.777L60.5331 139.193L34.2303 119.668L10.4728 122.214L1.13951 108.631L4.53344 104.386L7.07887 103.537H22.3515L30.8364 100.991L35.0788 97.5948L33.3818 93.35L34.2303 84.8605L36.7758 81.4646L40.1696 80.6157L41.8666 76.3709L41.0181 74.673L42.715 72.975L40.1696 70.4282V62.7877L41.0181 61.0897H43.5635V44.9597H46.9575V40.7149L53.7453 29.6785L57.1393 20.3401L55.4423 17.7931L58.8361 16.9442L63.9272 10.1525L63.0787 6.75674L59.6846 7.6057L60.5331 3.36092L62.2301 1.66302L64.7755 3.36092L67.321 2.51197L68.1695 4.20988L71.5634 5.05883L69.018 10.1525L72.4119 12.6994L78.3513 13.5484L84.2907 11.8505L90.23 14.3973L92.7754 13.5484L98.7148 23.7358L102.109 26.2826L106.351 27.1317L105.503 36.4701L99.5633 39.017L103.806 46.6575L106.351 44.9597L110.594 45.8086L103.806 56.845L110.594 67.0325L118.23 70.4282L119.927 73.8241L125.866 74.673H130.957L133.503 68.7302L138.593 72.975L140.29 78.9177L142.836 79.7666H145.381L148.775 73.8241L151.321 74.673L153.018 77.2198L147.927 86.5584L149.624 92.501L150.472 94.1989L160.654 95.8969L163.2 97.5948L164.047 101.839L161.503 106.933Z" fill="#D030E8" fill-opacity="0.5" stroke="#0000FF" stroke-opacity="0.4" stroke-linecap="round" stroke-linejoin="round"/>
<path id="41_HocMon" fill-rule="evenodd" clip-rule="evenodd" d="M155.564 194.375L160.654 202.016L155.564 206.261L153.018 212.204L147.078 211.354L147.927 210.505L145.381 208.807L140.29 207.959L136.048 202.016L129.26 202.865L127.563 201.168L124.169 202.016L117.381 200.318L116.533 202.016L107.2 198.62L110.594 183.339L105.503 182.49L109.745 165.511L86.836 152.777L113.139 156.172L127.563 155.323L129.26 153.625H141.139L139.442 147.683L152.169 151.079L151.321 154.475L164.896 157.022L183.563 153.625L186.109 149.381L192.896 152.777L201.381 151.079L203.927 152.777L208.169 162.964L205.623 165.511L201.381 167.209L200.533 163.813L194.592 165.511L193.745 171.454H184.411L183.563 168.907L170.836 171.454L169.139 174.85L166.593 176.547L168.29 178.245L163.2 184.188L160.654 185.036V186.734L155.564 194.375Z" fill="#E83092" fill-opacity="0.5" stroke="#0000FF" stroke-opacity="0.4" stroke-linecap="round" stroke-linejoin="round"/>
<path id="41_NhaBe" fill-rule="evenodd" clip-rule="evenodd" d="M227.684 360.771V359.073L225.138 357.375L226.836 354.828L224.29 351.432L226.836 349.734L227.684 347.187L232.775 348.884V347.187H231.078L230.229 344.641L232.775 340.396L230.229 339.546L231.078 337H232.775L231.078 331.905L228.533 331.057L226.836 325.964H224.29L213.259 320.869L210.715 323.416L207.32 324.266L203.077 315.775L199.684 314.078V308.984L201.381 305.589L200.533 303.041L197.987 301.343L196.291 296.25V289.459L201.381 282.666L205.623 284.364L206.472 275.875H216.654L217.502 279.271L220.048 278.422L224.29 280.12L225.987 277.573L228.533 278.422L226.836 281.818L228.533 284.364L227.684 288.609L230.229 292.854H232.775L235.319 289.459L244.654 288.609L248.047 295.4L258.229 306.437V311.532L255.684 313.229L253.139 314.078L242.108 309.832L238.714 310.682L237.018 316.625L238.714 320.021L242.957 323.416L252.29 326.812L255.684 329.359L257.381 333.604V346.339L264.168 356.525V365.864L261.624 369.259L258.229 370.109L248.896 365.864L244.654 366.714L241.26 370.109L238.714 367.562L235.319 369.259L234.472 368.411L237.018 366.714L236.169 363.316H234.472V365.864L232.775 367.562H230.229L227.684 362.468V360.771Z" fill="#E83D30" fill-opacity="0.5" stroke="#0000FF" stroke-opacity="0.4" stroke-linecap="round" stroke-linejoin="round"/>
</g>
</g>
</svg>
