<svg width="680" height="418" viewBox="0 0 680 418" fill="none" xmlns="http://www.w3.org/2000/svg">
<g id="43">
<g id="Group">
<path class="district" id="43_CamLe" fill-rule="evenodd" clip-rule="evenodd" d="M513.293 312.439L515.968 307.98V302.63L518.64 299.955L520.423 287.471L518.64 283.905L508.838 295.497L497.253 303.522L478.537 309.763V311.547L482.101 313.331L479.427 315.114H465.169L461.603 313.331L458.931 315.114L447.345 313.331L445.562 314.223L444.671 307.98L447.345 294.605L456.256 290.146L463.386 283.905L459.822 273.203V268.745L453.584 267.853L458.931 263.394L453.584 256.261V254.477L459.822 246.452L463.386 244.669L461.603 237.536L462.495 230.401L463.386 232.185L466.06 231.293L465.169 227.725L472.299 223.268L488.34 272.313L490.123 275.878L492.795 277.662L510.621 272.313L509.729 255.369L517.749 258.045L518.64 265.178L520.423 266.07L523.098 273.203L527.553 275.878L532.9 270.529L539.139 267.853H542.703L549.832 275.878L550.724 279.446L562.309 283.013L563.201 285.687L559.637 288.362L548.941 282.121L543.594 288.362L541.813 299.063L537.356 305.306L539.139 311.547L538.247 316.006L535.574 319.572L525.77 324.031V326.707L528.445 329.382V335.624L521.315 344.54H518.64V340.083L513.293 338.299L512.402 335.624L511.511 330.274L516.859 323.139L512.402 322.248L514.185 313.331L513.293 312.439Z" fill="#0051E6" fill-opacity="0.4" stroke="#0000FF" stroke-opacity="0.4" stroke-linecap="round" stroke-linejoin="round"/>
<path class="district" id="43_HaiChau" fill-rule="evenodd" clip-rule="evenodd" d="M527.553 275.878L523.098 273.203L520.423 266.07L518.64 265.178L517.749 258.045L509.729 256.261L510.621 272.313L492.795 277.662L490.123 275.878L488.34 272.313L485.665 262.502L494.578 258.045L483.884 232.185L487.448 229.509V226.834L490.123 223.268V219.7L502.599 218.809L507.946 230.401L506.164 231.293L510.621 230.401L513.293 235.752L515.968 231.293L518.64 217.917L515.968 203.649L512.402 206.324V204.541L506.164 200.083L508.838 193.84V186.707L515.968 184.924L518.64 176.899L522.206 179.574L524.879 176.899L533.792 195.624L534.683 232.185L543.594 247.344L546.268 258.937L544.485 266.962L532.9 270.529L527.553 275.878Z" fill="#25A8F9" fill-opacity="0.4" stroke="#0000FF" stroke-opacity="0.4" stroke-linecap="round" stroke-linejoin="round"/>
<path class="district" id="43_LienChieu" fill-rule="evenodd" clip-rule="evenodd" d="M505.272 1.23019L512.402 5.68877L514.185 10.1474L511.511 14.6059L512.402 16.3894L509.729 19.0645L510.621 21.7397L508.838 22.6314L503.491 19.9562L500.817 20.8479L497.253 17.281L499.925 12.8225V8.36392L503.491 2.12191L505.272 1.23019ZM444.671 260.72L438.433 259.828L436.65 258.045L424.173 260.72L418.826 252.694L417.043 253.586L411.696 245.561L406.349 241.101L413.479 232.185L414.37 220.592L402.785 216.133L392.981 215.241V202.759L388.525 193.84L390.308 184.924L396.547 183.14L403.676 186.707L400.111 181.356V178.682L394.764 180.464L391.2 173.331L387.634 170.656L389.417 168.873V166.198L391.2 165.306V161.739H388.525V159.956H390.308L392.981 157.281H395.655L394.764 151.038L386.742 153.714L384.07 159.956L373.374 164.414L372.483 161.739L369.81 159.956L366.244 148.363V143.013L362.68 134.988L365.355 132.312L363.572 129.637L364.463 122.504L361.789 118.045L352.878 118.937L353.767 114.478L360.897 110.019L362.68 95.7521L364.463 93.9686L360.006 62.7586L361.789 59.1917L369.81 53.8415L376.048 54.7331L384.07 60.0835H391.2L393.872 61.8669L401.894 58.3L416.153 48.4912L426.847 37.7906L435.758 34.2237L441.997 36.0071L443.779 27.9816L462.495 34.2237L470.516 28.8733L492.795 23.5231L491.014 31.5485L492.795 36.0071L491.906 37.7906L482.101 35.1154L480.319 37.7906L473.189 36.0071L468.733 38.6823L466.95 43.1408L464.278 44.9243L459.822 44.0325L456.256 45.816L453.584 44.0325L446.454 49.3829H441.997L439.324 53.8415L438.433 61.8669V69.8923L440.215 73.4592L435.758 79.7013L436.65 83.2681L439.324 84.1598V87.7267L434.868 89.5101L431.303 88.6184L430.411 84.1598L426.847 83.2681L419.717 86.8349L417.934 92.1853V100.211L418.826 106.453L421.5 109.128L420.609 110.911L417.043 115.37L413.479 117.153L410.805 115.37L409.023 116.262L405.458 113.586L401.002 118.937L400.111 126.071L401.894 138.554L409.915 146.58L414.37 147.472L409.915 150.147L419.717 166.198L440.215 185.815L461.603 199.191L458.931 202.759L466.95 208.108L467.842 211.676L466.06 213.459L470.516 222.376L471.407 221.484L472.299 223.268L465.169 227.725L466.06 231.293L463.386 232.185V230.401L461.603 233.968L463.386 244.669L459.822 246.452L451.801 255.369L450.018 259.828H447.345L446.454 261.61L444.671 260.72Z" fill="#387109" fill-opacity="0.4" stroke="#0000FF" stroke-opacity="0.4" stroke-linecap="round" stroke-linejoin="round"/>
<path class="district" id="43_NguHanhSon" fill-rule="evenodd" clip-rule="evenodd" d="M570.33 343.648L557.854 348.108L555.179 350.783V352.567L540.03 357.024L540.921 358.808L537.356 359.7L539.138 363.267L531.117 365.941L532.009 360.592L530.226 357.916L525.77 356.133L521.315 344.54L528.445 335.624V329.382L525.77 326.707V324.031L535.574 319.572L538.247 316.006L539.138 311.547L537.356 305.306L541.813 299.063L543.594 288.362L548.941 282.121L559.637 288.362L563.201 285.687L562.309 283.013L550.724 279.446L549.832 275.878L542.703 267.853L544.485 266.962L546.268 258.937L543.594 247.344L537.356 237.536H544.485L547.16 234.86L561.418 229.509L564.092 240.21L581.024 281.229L612.216 345.432L604.197 349L598.848 353.459L597.067 357.024L594.393 357.916L588.154 357.024L587.263 353.459L578.352 356.133L576.569 350.783L577.46 345.432L570.33 343.648Z" fill="#485579" fill-opacity="0.4" stroke="#0000FF" stroke-opacity="0.4" stroke-linecap="round" stroke-linejoin="round"/>
<g class="district" id="43_SonTra">
<path id="Vector" fill-rule="evenodd" clip-rule="evenodd" d="M547.16 234.86L544.485 237.536H537.356L534.683 232.185L533.792 195.624L524.879 176.899L531.117 174.223L529.336 160.847L534.683 159.064L536.464 169.764H532.9L533.792 171.548L543.594 166.198L544.485 167.981L549.832 166.198L548.051 163.522L547.16 165.306L548.051 161.739L551.615 166.198L545.377 168.873L546.268 174.223L544.485 178.682L547.16 181.356L555.179 166.198L552.507 158.172H550.724L553.398 157.281L554.29 155.497L546.268 154.605L544.485 153.714L545.377 151.93L541.813 150.147L540.921 151.038L538.247 148.363L532.9 149.255L529.336 145.688H527.553L529.336 144.796L527.553 143.013L523.987 146.58H525.77L523.987 147.472L524.879 151.038L521.315 149.255L519.532 145.688L517.749 146.58L519.532 144.796L518.64 143.905L515.968 142.121L519.532 137.663L523.987 139.446L526.662 138.554L527.553 129.637L531.117 126.962L532.009 124.287L534.683 125.179L538.247 120.72V115.37L540.921 113.586L539.139 104.669L540.921 103.778L544.485 107.344L548.941 103.778L551.615 104.669L559.637 96.6438L576.569 100.211L581.025 110.911L587.263 117.153H589.937L589.046 118.937L592.612 124.287L597.959 126.962L600.631 123.395L605.978 120.72L613.108 121.612L622.021 126.962L629.151 137.663L636.28 140.338L640.736 139.446L643.409 136.771L642.519 128.746L646.083 123.395V115.37L650.538 110.911L660.343 116.262L671.037 135.879L679.058 143.013V147.472L671.928 146.58L664.798 151.038L656.777 149.255L650.538 153.714L644.3 154.605L640.736 163.522L642.519 173.331L640.736 176.007L638.062 176.899H634.498L630.042 172.439L630.932 170.656L628.259 165.306L623.804 163.522H619.346L611.327 166.198L604.197 175.115H598.85L595.284 173.331L590.829 174.223L589.937 176.899L587.263 177.79L588.154 176.899L583.699 171.548V169.764L580.133 168.873L571.222 172.439L561.418 199.191V229.509L556.962 231.293L547.16 234.86Z" fill="#A79700" fill-opacity="0.4"/>
<path id="Vector_2" d="M518.64 143.905L519.532 144.796L517.749 146.58L519.532 145.688L521.315 149.255L524.879 151.038L523.987 147.472L525.77 146.58H523.987L527.553 143.013L529.336 144.796L527.553 145.688H529.336L532.9 149.255L538.247 148.363L540.921 151.038L541.813 150.147L545.377 151.93L544.485 153.714L546.268 154.605L554.29 155.497L553.398 157.281L550.724 158.172H552.507L555.179 166.198L547.16 181.356L544.485 178.682L546.268 174.223L545.377 168.873L551.615 166.198L548.051 161.739L547.16 165.306L548.051 163.522L549.832 166.198L544.485 167.981L543.594 166.198L533.792 171.548L532.9 169.764H536.464L534.683 159.064L529.336 160.847L531.117 174.223L524.879 176.899L533.792 195.624L534.683 232.185L537.356 237.536H544.485L547.16 234.86L556.962 231.293L561.418 229.509V199.191L571.222 172.439L580.133 168.873L583.699 169.764V171.548L588.154 176.899L587.263 177.79L589.937 176.899L590.829 174.223L595.284 173.331L598.85 175.115H604.197L611.327 166.198L619.346 163.522H623.804L628.259 165.306L630.932 170.656L630.042 172.439L634.498 176.899H638.062L640.736 176.007L642.519 173.331L640.736 163.522L644.3 154.605L650.538 153.714L656.777 149.255L664.798 151.038L671.928 146.58L679.058 147.472V143.013L671.037 135.879L660.343 116.262L650.538 110.911L646.083 115.37V123.395L642.519 128.746L643.409 136.771L640.736 139.446L636.28 140.338L629.151 137.663L622.021 126.962L613.108 121.612L605.978 120.72L600.631 123.395L597.959 126.962L592.612 124.287L589.046 118.937L589.937 117.153H587.263L581.025 110.911L576.569 100.211L559.637 96.6438L551.615 104.669L548.941 103.778L544.485 107.344L540.921 103.778L539.139 104.669L540.921 113.586L538.247 115.37V120.72L534.683 125.179L532.009 124.287L531.117 126.962L527.553 129.637L526.662 138.554L523.987 139.446L519.532 137.663L515.968 142.121L518.64 143.905ZM518.64 143.905L516.859 145.688" stroke="#0000FF" stroke-opacity="0.4" stroke-linecap="round" stroke-linejoin="round"/>
</g>
<path class="district" id="43_ThanhKhe" fill-rule="evenodd" clip-rule="evenodd" d="M490.123 275.878L480.319 250.018L472.299 223.268L471.407 221.484L470.516 222.376L466.061 213.459L467.842 211.676L466.95 208.108L458.931 202.759L461.603 199.191L481.21 206.324L495.47 208.108L500.817 207.216L506.164 200.083L512.402 204.541V206.324L515.968 203.649L518.64 217.917L515.968 231.293L513.293 235.752L510.621 230.401L506.164 231.293L507.947 230.401L502.6 218.809L490.123 219.7V223.268L487.448 226.834V229.509L483.884 232.185L494.578 258.045L485.666 262.502L488.34 272.313L490.123 275.878Z" fill="#B73A67" fill-opacity="0.4" stroke="#0000FF" stroke-opacity="0.4" stroke-linecap="round" stroke-linejoin="round"/>
<path class="district" id="43_HoaVang" fill-rule="evenodd" clip-rule="evenodd" d="M531.117 365.941L528.445 373.076L529.336 377.534L524.879 379.317L523.098 378.425V374.86H520.423V379.317L513.293 383.776L507.055 378.425V367.725L503.491 365.051L506.164 357.916L503.491 355.241L496.361 357.024V354.349L493.687 355.241V357.024L488.34 356.133V357.916H482.101L482.993 354.349L479.427 353.459L478.537 364.159L474.08 367.725L474.972 378.425L472.299 387.344H467.842L465.169 385.56L462.495 387.344L459.822 385.56L457.148 379.317H455.365L453.584 375.752V371.292L450.018 373.968L439.324 370.401L435.758 374.86L431.303 397.153L426.847 396.261L425.064 398.044L424.173 397.153L423.281 398.936L417.934 399.828L404.566 393.585L401.894 389.126L392.089 384.668L388.525 380.209L382.287 376.643L370.701 385.56L363.572 388.236L360.897 392.693L355.55 394.477L351.986 405.177L344.856 407.853L328.814 406.069L319.903 401.61L319.011 396.261H314.556V398.044H298.513L293.166 394.477L282.472 397.153L271.777 403.394L265.538 400.718L264.649 403.394L257.519 406.069L251.28 411.42H248.606L247.715 413.202H234.346L230.782 416.77L227.218 414.986L220.98 416.77L218.305 414.986L192.46 394.477L185.33 385.56L181.766 384.668L177.309 377.534L174.636 376.643L173.745 373.968L176.419 372.184L179.092 364.159L182.658 362.376L183.549 356.133L181.766 352.567L183.549 349L188.896 346.324L190.677 342.757L203.154 335.624L208.503 326.707L211.176 325.815L212.067 323.139H214.741V315.114L216.522 310.655L215.631 307.98L217.414 300.847L215.631 298.171L218.305 294.605L219.197 290.146L214.741 289.254L202.264 280.338L200.482 278.554L199.59 269.637L189.788 262.502L188.005 258.045L185.33 256.261V241.101L188.896 233.077V219.7L187.113 218.809L181.766 220.592L160.377 229.509L136.315 243.777L130.076 245.561L112.252 260.72L106.014 253.586L101.558 252.694L99.7753 241.993H94.4281L87.2985 239.318L84.6248 236.644H79.2777L73.0393 233.077L68.5832 226.834L61.4535 223.268L53.4328 225.052L48.9767 223.268L45.412 226.834L41.8471 224.16L32.935 225.052L24.9142 229.509L24.0231 232.185L22.2406 233.077L9.76377 230.401L1.74295 232.185L4.41655 228.617L7.09017 217.025L12.4374 211.676V208.108L8.87256 199.191L9.76377 193.84L13.3286 191.166L16.0022 184.032L22.2406 180.464L23.1318 175.115L27.5879 170.656L37.391 165.306L53.4328 152.822L52.5415 136.771L58.7799 123.395L55.2151 117.153L56.9975 114.478L56.1064 111.803L58.7799 110.02L56.9975 99.319L66.8009 93.077H74.8216L77.4953 91.2936L78.3864 87.7267L79.2777 81.4846L77.4953 73.4592L73.9304 65.4338L67.692 58.3L79.2777 52.0581L80.1688 46.7077L77.4953 41.3575L82.8424 37.7906L93.5369 36.8989L95.3192 35.1154L97.1016 27.9817L104.231 28.8735L114.926 22.6314L117.599 17.2812H121.164L124.729 14.606L147.9 38.6823L155.03 42.2492L166.616 44.0325L177.309 49.3829L182.658 50.2746L199.59 44.9244L204.046 38.6823L212.067 32.4402L213.85 27.09L224.544 17.2812L231.674 23.5231L237.912 25.3066L243.259 28.8735H246.823L252.172 37.7906L259.3 44.0325L264.649 43.1408L280.689 48.4912H289.602L308.317 59.1917L313.664 63.6504H318.12L324.358 57.4083L330.597 59.1917L338.618 58.3L349.312 60.9752L351.095 60.0835L360.006 62.7586L364.463 93.9686L362.68 95.7522L360.897 110.02L353.767 114.478L352.878 118.937L361.789 118.045L364.463 122.504L363.572 129.637L365.355 132.312L362.68 134.988L363.572 139.446L366.244 143.013V148.363L369.81 159.956L372.483 161.739L373.374 164.414L384.07 159.956L386.742 153.714L394.764 151.038L395.655 157.281H392.981L390.308 159.956H388.525V161.739H391.2V165.306L389.417 166.198V168.873L387.634 170.656L391.2 173.331L394.764 180.464L400.111 178.682V181.356L403.676 186.707L396.547 183.14H392.089L390.308 184.924L388.525 193.84L392.981 202.759V215.241L402.785 216.133L414.37 220.592L413.479 232.185L406.349 240.21L417.043 253.586L418.826 252.694L424.173 260.72L436.65 258.045L438.433 259.829L446.454 261.61L447.345 259.829H450.018L451.801 255.369L453.584 254.477V256.261L458.931 263.394L453.584 267.853L459.822 268.745V273.203L463.386 283.905L456.256 290.146L447.345 294.605L444.671 307.98L445.562 314.223L447.345 313.331L458.931 315.114L461.603 313.331L465.169 315.114H479.427L482.101 313.331L478.537 311.547V309.763L497.253 303.522L508.838 295.497L518.64 283.905L520.423 287.471L518.64 299.955L515.968 302.63V307.98L513.293 312.439L514.185 315.114L512.402 322.248L516.859 323.139L511.511 330.274L512.402 335.624L513.293 338.299L518.64 340.083V344.54H521.315L525.77 356.133L530.226 357.916L532.009 360.592L531.117 365.941Z" fill="#B0279C" fill-opacity="0.4" stroke="#0000FF" stroke-opacity="0.4" stroke-linecap="round" stroke-linejoin="round"/>
</g>
</g>
</svg>
