<svg width="683" height="455" viewBox="0 0 683 455" fill="none" xmlns="http://www.w3.org/2000/svg">
<g id="65">
<g id="Group">
<path id="65_BinhThuy" fill-rule="evenodd" clip-rule="evenodd" d="M569.942 327.336L566.938 337.837L563.184 344.585L559.428 343.837V345.335H557.926L559.428 346.086L553.421 352.085H551.92V350.585L549.667 352.836L548.166 351.335L547.415 352.836L544.412 351.335L540.657 354.336L542.91 359.586L537.654 358.085L536.153 353.586H532.399L531.648 351.335L525.641 349.087L524.89 345.335L527.894 338.585L526.392 335.587L529.395 334.086V331.838L532.399 330.337L534.651 331.088V328.837H536.153L535.402 325.088L533.149 323.587L537.654 321.336L536.153 320.589L534.651 316.837L532.399 318.338L528.644 314.589L527.894 307.839L529.395 305.588H532.399L530.897 303.34L502.366 299.588V302.59L500.864 304.088L493.356 304.838L491.854 300.339H490.353L489.602 292.838L491.854 292.088V288.339L484.344 280.839L485.848 270.34L491.854 274.092L497.11 274.839L514.379 266.591L516.631 262.092L527.143 254.592L523.389 252.341L524.89 246.341V244.093L523.389 243.343L531.648 232.843L557.175 253.091L578.201 263.59L593.217 276.34L607.483 283.84L605.981 288.339L598.473 295.089L602.978 301.089L599.974 303.34L598.473 307.089L587.961 310.087L586.46 312.338L581.955 310.838L580.453 312.338L578.951 311.588L572.194 323.587L569.942 327.336Z" fill="#D147AC" fill-opacity="0.5" stroke="#0000FF" stroke-opacity="0.4" stroke-linecap="round" stroke-linejoin="round"/>
<path id="65_CaiRang" fill-rule="evenodd" clip-rule="evenodd" d="M601.476 412.833L592.466 411.332L590.214 409.081L586.46 409.832L574.447 404.582L561.683 396.334L559.43 397.832L557.175 396.334H554.172L547.415 390.334L548.916 385.833L553.421 387.333V385.833L556.425 385.085L558.679 377.585L561.683 375.334V373.833L569.191 364.835L571.443 358.835L573.696 356.584L582.706 353.586L590.965 356.584L593.968 355.837L599.974 349.837L604.479 337.837L617.243 334.836L619.496 326.588L634.514 315.337L645.777 328.837L654.786 349.837L659.291 357.335L679.563 382.084L673.557 387.333H669.803L664.547 390.334L651.783 402.334L607.482 409.832L605.23 413.583L602.227 412.833H601.476Z" fill="#D1475A" fill-opacity="0.5" stroke="#0000FF" stroke-opacity="0.4" stroke-linecap="round" stroke-linejoin="round"/>
<path id="65_NinhKieu" fill-rule="evenodd" clip-rule="evenodd" d="M564.686 370.084H556.425L557.175 367.834L555.674 366.336L554.923 361.086H553.421L550.418 358.085L542.91 359.586L540.658 354.336L543.661 351.335L547.415 352.836L548.166 351.335L549.667 352.836L551.92 350.585V352.085H553.421L559.428 346.836L557.926 345.335H559.428V343.837L563.184 344.585L566.938 337.838L569.942 327.336L578.952 311.588L580.453 312.338L581.955 310.838L586.46 312.338L587.961 310.087L598.473 307.089L602.978 301.089L598.473 295.089L605.981 288.339L607.483 283.84L610.486 285.341L618.745 293.589L634.512 315.337L619.496 326.588L617.243 334.836L604.479 337.838L599.974 349.837L593.968 355.837L590.965 356.585L582.706 353.586L573.696 356.585L566.188 368.584L564.686 370.084Z" fill="#D18847" fill-opacity="0.5" stroke="#0000FF" stroke-opacity="0.4" stroke-linecap="round" stroke-linejoin="round"/>
<path id="65_OMon" fill-rule="evenodd" clip-rule="evenodd" d="M493.356 304.838L492.605 309.337L488.851 308.589L488.1 310.087L483.593 308.589L481.341 310.087L476.836 309.337L473.082 306.338H469.328L463.321 303.34L461.069 305.588L459.567 310.087L457.315 310.838L454.311 307.089L451.308 308.589L449.806 311.588L443.8 314.589L445.301 312.338L444.551 310.838L446.803 308.589L442.298 300.339L440.797 289.09L439.295 288.339L446.052 282.34L444.551 281.589L446.052 272.591L442.298 262.84H440.046V256.092L438.544 251.591H435.541L429.534 244.093L425.78 243.343L429.534 241.092L408.509 220.843L398.748 227.593L397.998 225.343L364.962 194.595L369.467 184.096L368.716 183.346L370.968 180.346L373.221 179.596L372.47 178.846L376.975 170.596L378.476 165.347L383.732 154.097L384.483 154.847L383.732 152.598L398.748 151.848L400.25 153.347H402.503L405.506 151.848L407.007 156.347L413.016 150.348H411.515L410.011 145.848H407.758L406.257 142.848L408.509 140.598L414.518 138.348L432.538 154.847L439.295 156.347L463.321 178.096L474.583 195.345L482.091 201.345L531.648 232.843L523.389 243.343L524.89 244.093L523.389 252.341L527.143 254.592L516.631 262.092L514.379 266.591L504.618 271.841L497.861 273.341L497.11 274.839L491.854 274.092L485.848 270.34L484.344 280.839L491.854 288.339V292.088L489.602 292.838L490.353 300.339H491.854V302.59L493.356 304.838Z" fill="#B7E830" fill-opacity="0.5" stroke="#0000FF" stroke-opacity="0.4" stroke-linecap="round" stroke-linejoin="round"/>
<path id="65_ThotNot" fill-rule="evenodd" clip-rule="evenodd" d="M414.518 138.348L408.509 140.598L406.257 142.848L407.758 145.848H410.013L411.515 150.348H413.016L407.007 156.347L405.506 151.848L402.503 153.347H400.25L398.748 151.848L383.732 152.598L384.483 154.847L383.732 154.097L378.476 165.347L376.975 170.596L372.47 178.846L373.221 179.596L370.968 180.346L368.716 183.346L369.467 184.096L364.962 194.595L343.188 172.846L346.191 170.596L345.441 166.847L348.444 162.347L350.696 149.598L352.198 146.598L353.7 134.599L349.945 124.099L352.198 116.6L349.195 113.6H345.441L341.686 116.6L331.923 115.85L328.169 120.349L325.166 116.6L322.914 115.85V114.35L313.153 107.6L301.14 102.351L300.389 100.851L301.891 73.1023L296.635 73.8521L298.888 68.6024L293.632 56.6032L289.878 55.1032L287.625 51.3535V43.854L286.124 41.6042L289.878 40.1041L288.376 34.8545L289.878 34.1044L283.871 26.6049H282.37V25.1051L285.373 24.3551L283.871 22.8552V18.3555L280.868 16.8555L286.124 12.3558L289.127 4.10629L298.137 2.60638L316.907 21.3553L349.195 38.6043L373.221 59.6031L411.515 97.8507L417.521 104.6L430.285 126.349L439.295 156.347L432.538 154.847L428.784 151.848L414.518 138.348Z" fill="#49E830" fill-opacity="0.5" stroke="#0000FF" stroke-opacity="0.4" stroke-linecap="round" stroke-linejoin="round"/>
<path id="65_CoDo" fill-rule="evenodd" clip-rule="evenodd" d="M229.81 322.087L226.056 328.086L213.292 335.587L154.726 281.589L146.467 271.841L134.454 211.844L162.986 184.096L182.508 182.596L184.009 180.346L209.538 178.846L210.288 182.596L238.82 157.847L254.587 160.097L256.839 155.597H260.596L270.357 148.098L274.111 136.849L277.114 135.348L277.865 137.598L282.37 138.348L283.871 135.348L279.366 132.349L280.868 129.349H279.366V127.099L277.865 125.599L280.868 124.849L279.366 124.099V121.849H283.871L289.127 110.6L287.625 107.6L290.629 108.35L291.379 103.85H301.14V102.351L313.153 107.6L322.914 114.35V115.85L325.166 116.6L328.169 120.349L331.923 115.85L341.686 116.6L345.441 113.6H349.195L352.198 116.6L349.945 124.099L353.7 134.599L352.198 146.598L350.696 149.598L348.444 162.347L345.441 166.847L346.191 170.596L343.188 172.846L392.742 220.843L330.422 265.841L322.914 264.34L325.166 268.092L328.169 268.84L329.671 291.34H322.914L327.419 300.339L296.635 297.34L286.875 304.088L293.632 292.088L250.833 295.84L247.83 290.59L229.81 322.087Z" fill="#30E886" fill-opacity="0.5" stroke="#0000FF" stroke-opacity="0.4" stroke-linecap="round" stroke-linejoin="round"/>
<path id="65_PhongDien" fill-rule="evenodd" clip-rule="evenodd" d="M547.415 390.334L546.664 394.834L542.159 398.582L536.903 408.333H535.402L533.149 410.582L526.392 409.081L525.641 414.333L515.13 413.583V415.831L498.612 421.081L500.113 424.832H497.861V426.33L495.608 424.832L489.602 430.081L476.836 418.832L493.356 403.082L486.599 400.833H476.085L476.836 396.334L469.328 392.583L470.078 391.832L464.072 390.334L462.57 392.583L464.072 394.834L461.819 402.334L458.065 406.833L452.059 409.832L450.557 408.333H448.305L444.551 412.082L443.8 418.832L433.288 423.332L394.244 381.334L400.25 367.834L404.755 368.584L405.506 358.085L416.77 359.586L417.521 357.335L425.029 358.085V356.584L431.036 358.835L434.79 356.584H441.547L443.049 347.586L439.295 339.336L440.046 327.336L443.049 325.838L441.547 318.338L442.298 314.589L449.806 311.588V310.087H451.308V308.589L454.311 307.089L457.314 310.838L459.567 310.087L461.069 305.588L463.321 303.34L469.328 306.338H473.082L476.836 309.337H492.605L493.356 304.838L500.864 304.088L502.366 302.59V299.588L530.897 303.34L532.398 305.588H529.395L527.894 307.839L528.644 314.589L532.398 318.338L534.651 316.837L536.153 320.589L537.654 321.337L533.149 323.587L535.402 325.088L536.153 328.837H534.651V331.088L532.398 330.337L529.395 331.838V334.086L526.392 335.587L527.894 338.585L526.392 344.585L524.89 345.335L525.641 349.087L531.648 351.335L532.398 353.586H536.153L537.654 358.085L542.91 359.586L550.418 358.085L551.169 359.586L554.923 361.086L555.674 366.336L557.175 367.834L556.425 370.084H564.686L561.683 375.334L558.677 377.585L556.425 385.085L553.421 385.833V387.333L548.916 385.833L547.415 390.334Z" fill="#30DCE8" fill-opacity="0.5" stroke="#0000FF" stroke-opacity="0.4" stroke-linecap="round" stroke-linejoin="round"/>
<path id="65_ThotLai" fill-rule="evenodd" clip-rule="evenodd" d="M354.45 426.33L352.949 429.331L349.195 428.581L338.683 452.58L213.292 335.587L226.056 328.086L247.83 290.59L250.833 295.84L293.632 292.088L286.875 304.088L296.635 297.34L327.419 300.339L322.914 291.34H329.671L328.169 268.84L325.166 268.092L322.914 264.34L330.422 265.841L392.742 220.843L397.998 225.343L398.748 227.593L408.509 220.843L429.534 241.092L425.78 243.343L429.534 244.093L435.541 251.591H438.544L440.046 256.092V262.84H442.298L446.052 272.591L444.551 280.089V281.589L446.052 282.34L439.295 288.339L440.797 289.09L442.298 300.339L446.803 308.589L444.551 310.838L445.301 312.338L443.8 314.589H442.298L441.547 318.338L443.049 325.838L440.046 327.336L439.295 339.336L443.049 347.586L441.547 356.584H434.79L431.036 358.835L425.029 356.584V358.085L417.521 357.335L416.77 359.586L405.506 358.085L404.755 368.584L400.25 367.834L397.247 375.334L384.483 370.084L379.227 381.334L371.719 378.335L358.955 406.833L364.211 409.081L358.204 416.582L358.955 417.332L354.45 426.33Z" fill="#306EE8" fill-opacity="0.5" stroke="#0000FF" stroke-opacity="0.4" stroke-linecap="round" stroke-linejoin="round"/>
<path id="65_VinhThanh" fill-rule="evenodd" clip-rule="evenodd" d="M254.587 160.097L238.82 157.847L210.288 182.596L209.538 178.846L184.009 180.346L182.508 182.596L162.986 184.096L134.454 211.844L142.713 251.591L102.918 206.594L96.1608 214.094L87.9016 203.595L82.6457 209.594L57.868 184.846L3.0567 140.598L33.0904 98.6007L41.3496 90.3512L48.1072 98.6007L72.134 74.6021L70.6324 72.3523L75.8881 67.8526L75.1373 66.3526L85.6492 55.8532L91.6559 64.8528L97.6624 59.6031L123.942 103.1L190.767 82.8516L238.82 64.1027L223.053 27.355L241.073 23.6051L245.577 25.1051L250.082 21.3553L250.833 22.1052L269.606 18.3555H277.865L280.868 16.8556L283.871 18.3555V22.8552L285.373 24.3551L282.37 25.1051V26.6049H283.871L289.878 34.1044L288.376 34.8545L289.878 40.1041L286.124 41.6042L289.127 53.6034L289.878 55.1032L293.632 56.6032L298.137 68.6024L296.635 73.8521L301.891 73.1023L300.389 100.851L301.14 103.85H291.379L290.629 108.35L287.625 107.6L289.127 110.6L283.871 121.849H279.366V124.099H280.868L277.865 125.599L279.366 127.099V129.349H280.868L279.366 132.349L283.871 135.348L282.37 138.348L277.865 137.598L277.114 135.348L274.111 136.849L270.357 148.098L260.596 155.597L256.839 154.847L255.338 157.097L254.587 160.097Z" fill="#6130E8" fill-opacity="0.5" stroke="#0000FF" stroke-opacity="0.4" stroke-linecap="round" stroke-linejoin="round"/>
</g>
</g>
</svg>
