<svg width="578" height="578" viewBox="0 0 578 578" fill="none" xmlns="http://www.w3.org/2000/svg">
<g id="67">
<g id="Group">
<path id="67_ChauDoc" fill-rule="evenodd" clip-rule="evenodd" d="M262.234 216.767L220.6 258.426L208.704 260.412L178.965 222.718V212.799L230.513 181.058L228.53 155.268L224.565 151.301L232.496 147.333L234.478 163.203L244.391 181.058L256.288 190.977L274.13 194.945L272.148 204.864L262.234 216.767Z" fill="#D147AC" fill-opacity="0.5" stroke="#0000FF" stroke-opacity="0.4" stroke-linecap="round" stroke-linejoin="round"/>
<path id="67_LongXuyen" fill-rule="evenodd" clip-rule="evenodd" d="M504.114 452.843L519.974 470.698L514.025 472.681L506.097 482.6L470.409 486.568L450.584 452.843L442.653 442.924L434.721 444.907L430.756 440.941L432.739 436.973L422.827 427.054L428.773 425.069L438.687 407.214L446.618 399.28H450.584V395.312L458.512 393.329L456.53 387.376H484.286L492.217 391.344L486.269 421.101L490.234 434.988L500.148 448.875L504.114 452.843Z" fill="#D1475A" fill-opacity="0.5" stroke="#0000FF" stroke-opacity="0.4" stroke-linecap="round" stroke-linejoin="round"/>
<path id="67_TanChau" fill-rule="evenodd" clip-rule="evenodd" d="M339.557 119.559L349.469 121.543L351.452 125.511L347.486 137.414L349.469 143.365L355.417 147.333L339.557 165.187L331.626 155.268H327.661L321.712 163.203L319.729 161.22L268.182 188.993L266.199 192.961L252.322 188.993L260.253 147.333L262.234 143.365L278.096 135.43L270.165 50.1249L254.305 44.1735L258.271 36.2381L256.288 32.2705H276.113L297.921 40.2059L295.939 67.9796L301.887 87.8178L303.87 89.8016L313.784 85.834L319.729 101.705L335.592 119.559H339.557Z" fill="#D18847" fill-opacity="0.5" stroke="#0000FF" stroke-opacity="0.4" stroke-linecap="round" stroke-linejoin="round"/>
<path id="67_AnPhu" fill-rule="evenodd" clip-rule="evenodd" d="M250.339 187.009L234.478 163.203L232.496 147.333L224.565 151.301L216.635 139.398L208.704 137.414L206.722 123.527L202.757 121.543L204.739 107.656L186.896 71.9472L182.93 54.0927L196.809 48.1411L192.843 40.2059L202.757 36.2381L200.774 30.2867L210.687 20.3675H218.617V10.4484L222.583 6.4807L232.496 8.46452L242.409 2.51303H246.374V16.3999L234.478 32.2705L240.426 36.2381L256.288 32.2705L258.271 34.2543L254.305 44.1735L270.165 50.1249L278.096 135.43L262.234 143.365L260.253 147.333L252.322 188.993L250.339 187.009Z" fill="#B7E830" fill-opacity="0.5" stroke="#0000FF" stroke-opacity="0.4" stroke-linecap="round" stroke-linejoin="round"/>
<path id="67_ChauPhu" fill-rule="evenodd" clip-rule="evenodd" d="M397.053 311.992L410.93 349.682L406.965 357.619L404.982 351.668L391.105 337.781V341.749L383.174 339.763L367.314 347.7L293.956 373.489L291.973 371.506L246.374 389.361L232.496 351.668L208.704 260.412L220.6 258.426L274.13 202.88V194.945H288.01L307.835 204.864L317.747 228.67L313.784 246.524L317.747 258.426L335.592 284.218L357.4 300.088L387.139 304.056L397.053 311.992Z" fill="#49E830" fill-opacity="0.5" stroke="#0000FF" stroke-opacity="0.4" stroke-linecap="round" stroke-linejoin="round"/>
<path id="67_ChauThanh" fill-rule="evenodd" clip-rule="evenodd" d="M385.157 450.86L373.26 448.875L367.314 442.924L353.434 438.956L252.322 434.988L248.357 433.005L242.409 391.344L291.973 371.506L293.956 373.489L367.314 347.7L377.225 341.749H391.105V337.781L404.982 349.682L406.965 357.619L410.93 349.682L444.635 381.425L456.53 387.376L458.512 393.329L450.584 395.312V399.28H446.618L438.687 407.214L428.773 425.069L422.827 427.054L432.739 436.973L428.773 448.875L418.862 454.826L416.879 452.843L404.982 456.811L393.088 452.843L391.105 448.875L387.139 450.86H385.157Z" fill="#30E886" fill-opacity="0.5" stroke="#0000FF" stroke-opacity="0.4" stroke-linecap="round" stroke-linejoin="round"/>
<path id="67_ChoMoi" fill-rule="evenodd" clip-rule="evenodd" d="M504.114 452.843L494.2 442.924L486.269 421.101L492.217 391.344L484.286 387.376H456.53L444.635 381.425L410.93 349.682L397.053 311.992L416.879 300.088L426.79 286.2L432.739 290.169L446.618 292.151L460.495 306.038L484.286 304.056L508.077 315.957L531.871 308.024L545.748 313.975L561.61 329.845L575.487 365.555V395.312L561.61 391.344L555.662 401.263L559.627 403.248L555.662 407.214L545.748 409.199V413.167L539.799 415.15L543.765 434.988L537.816 438.956V442.924L523.939 448.875L516.008 456.811L514.025 464.745L508.077 458.794L504.114 452.843Z" fill="#30DCE8" fill-opacity="0.5" stroke="#0000FF" stroke-opacity="0.4" stroke-linecap="round" stroke-linejoin="round"/>
<path id="67_PhuTan" fill-rule="evenodd" clip-rule="evenodd" d="M397.053 311.992L387.139 304.056L357.4 300.088L341.54 290.169L325.678 272.313L317.747 258.426L313.784 246.524L317.747 230.654L307.835 204.864L288.01 194.945L266.199 192.961L268.182 188.993L319.729 161.22L321.712 163.203L327.661 155.268H331.626L339.557 165.187L355.417 147.333L377.225 149.316L381.191 153.284L379.208 161.22L363.348 171.139V179.074L375.243 183.042L399.034 179.074L412.913 181.058L414.896 185.026L410.93 204.864L404.982 214.783L406.965 232.637L414.896 260.412L426.79 286.2L416.879 300.088L399.034 310.007L397.053 311.992Z" fill="#306EE8" fill-opacity="0.5" stroke="#0000FF" stroke-opacity="0.4" stroke-linecap="round" stroke-linejoin="round"/>
<path id="67_ThoaiSon" fill-rule="evenodd" clip-rule="evenodd" d="M345.503 534.18L329.643 556.003L325.678 554.018L309.818 575.841L260.253 530.212L230.513 510.374L252.322 478.632L248.357 433.005L353.434 438.956L367.314 442.924L379.208 450.86L391.105 448.875V452.843L404.982 456.811L414.896 452.843L418.862 454.826L426.79 448.875L428.773 442.924H442.652L462.478 470.698L480.321 512.357L404.982 538.148L387.139 508.391L383.174 512.357L379.208 506.406L355.417 534.18L349.469 530.212L345.503 534.18Z" fill="#6130E8" fill-opacity="0.5" stroke="#0000FF" stroke-opacity="0.4" stroke-linecap="round" stroke-linejoin="round"/>
<path id="67_TinhBien" fill-rule="evenodd" clip-rule="evenodd" d="M244.391 389.361H200.774L169.052 369.523H165.087L157.156 377.457L141.296 373.488L131.383 333.813L87.7653 306.038L127.417 242.557L176.983 212.799L180.948 218.751L178.965 222.718L208.704 260.412L244.391 389.361Z" fill="#D030E8" fill-opacity="0.5" stroke="#0000FF" stroke-opacity="0.4" stroke-linecap="round" stroke-linejoin="round"/>
<path id="67_TriTon" fill-rule="evenodd" clip-rule="evenodd" d="M226.548 508.391L175 478.632L159.139 472.681L65.9566 450.86L38.2 413.167L16.3913 367.538L2.51305 351.668V329.844L54.0608 325.876L61.9913 327.862L87.7653 308.024L129.4 333.813L139.313 373.488L151.209 377.457L169.052 369.523L200.774 389.361H244.391L242.409 391.344L252.322 478.632L230.513 510.374L226.548 508.391Z" fill="#E83092" fill-opacity="0.5" stroke="#0000FF" stroke-opacity="0.4" stroke-linecap="round" stroke-linejoin="round"/>
</g>
</g>
</svg>
