<svg width="585" height="500" viewBox="0 0 585 500" fill="none" xmlns="http://www.w3.org/2000/svg">
<g id="72">
<g id="Group">
<path id="72_BaRia" fill-rule="evenodd" clip-rule="evenodd" d="M148.567 350.065L149.959 361.191L147.175 362.581L144.391 361.191L141.607 354.237L136.038 358.409L124.901 357.018L126.293 354.237L119.332 338.939H129.077L127.685 334.767L130.469 331.986L127.685 329.205L133.254 322.251L130.469 319.47V304.172H140.214L155.528 277.749L165.273 281.921L179.195 279.139L176.41 254.107L181.979 256.888L190.332 272.186L197.292 273.577L201.469 269.405H204.253V259.67H207.037V262.451L211.214 258.279L213.998 261.06L218.175 259.67L219.567 263.842L223.743 258.279L226.527 259.67L227.92 249.935L237.665 252.716L234.88 261.06L237.665 263.842H241.841L251.586 276.358L254.37 273.577L255.762 276.358V286.093L251.586 290.265L252.978 291.656L248.802 300V305.563L233.488 311.125L230.704 318.079L227.92 315.298L222.351 320.86L212.606 318.079V320.86L204.253 329.205L208.43 330.595L198.685 337.549V345.893L195.9 347.284L191.724 343.111L184.763 344.502V351.456L181.979 352.846L175.018 351.456L173.626 344.502L170.842 341.721L166.665 343.111L163.881 350.065L159.705 351.456L151.352 347.284L148.567 350.065Z" fill="#D147AC" fill-opacity="0.5" stroke="#0000FF" stroke-opacity="0.4" stroke-linecap="round" stroke-linejoin="round"/>
<g id="72_VungTau">
<path fill-rule="evenodd" clip-rule="evenodd" d="M105.411 416.818L102.627 425.163L97.058 423.772L105.411 407.084L110.979 404.302L106.803 414.037L105.411 416.818ZM98.4502 486.353L94.2737 496.088L90.0973 498.87L87.313 493.307L77.568 487.744V480.79L80.3523 475.228L76.1758 469.665H71.9994L66.4308 464.102L67.823 452.977L60.8622 446.023V437.679L65.0387 430.725L71.9994 434.897H77.568L83.1366 429.335L78.9601 427.944L80.3523 426.553L98.4502 430.725L99.8423 427.944L106.803 425.163L113.764 409.865L120.724 407.084L124.901 401.521L120.724 380.66H109.587L106.803 383.442L99.8423 382.051L83.1366 386.223L62.2544 370.925L56.6858 365.363L51.1172 354.237L48.3329 351.456L46.9408 352.846V350.065L38.5879 351.456L56.6858 337.549L65.0387 338.939L74.7837 331.986L83.1366 337.549L95.6659 333.377L108.195 341.721L119.332 338.939L126.293 354.237L124.901 357.018L134.646 358.409L141.607 354.237L145.783 362.581L149.96 361.191L148.567 350.065L151.352 347.284L159.705 351.456L163.881 350.065L166.665 343.111H173.626L175.018 351.456L187.547 355.628L188.94 359.8H193.116L194.508 365.363L204.253 369.535L207.037 375.098L218.175 379.27L219.567 383.442L215.39 387.614L219.567 395.958L218.175 398.739H211.214L207.037 395.958L202.861 397.349L198.685 389.004H195.9L179.195 418.209H173.626L162.489 432.116L148.567 437.679L122.117 455.758L98.4502 483.572V486.353Z" fill="#D1475A" fill-opacity="0.5"/>
<path d="M95.6659 497.479L97.058 496.088M105.411 416.818L102.627 425.163L97.058 423.772L105.411 407.084L110.979 404.302L106.803 414.037L105.411 416.818ZM98.4502 486.353L94.2737 496.088L90.0973 498.87L87.313 493.307L77.568 487.744V480.79L80.3523 475.228L76.1758 469.665H71.9994L66.4308 464.102L67.823 452.977L60.8622 446.023V437.679L65.0387 430.725L71.9994 434.897H77.568L83.1366 429.335L78.9601 427.944L80.3523 426.553L98.4502 430.725L99.8423 427.944L106.803 425.163L113.764 409.865L120.724 407.084L124.901 401.521L120.724 380.66H109.587L106.803 383.442L99.8423 382.051L83.1366 386.223L62.2544 370.925L56.6858 365.363L51.1172 354.237L48.3329 351.456L46.9408 352.846V350.065L38.5879 351.456L56.6858 337.549L65.0387 338.939L74.7837 331.986L83.1366 337.549L95.6659 333.377L108.195 341.721L119.332 338.939L126.293 354.237L124.901 357.018L134.646 358.409L141.607 354.237L145.783 362.581L149.96 361.191L148.567 350.065L151.352 347.284L159.705 351.456L163.881 350.065L166.665 343.111H173.626L175.018 351.456L187.547 355.628L188.94 359.8H193.116L194.508 365.363L204.253 369.535L207.037 375.098L218.175 379.27L219.567 383.442L215.39 387.614L219.567 395.958L218.175 398.739H211.214L207.037 395.958L202.861 397.349L198.685 389.004H195.9L179.195 418.209H173.626L162.489 432.116L148.567 437.679L122.117 455.758L98.4502 483.572V486.353Z" stroke="#0000FF" stroke-opacity="0.4" stroke-linecap="round" stroke-linejoin="round"/>
</g>
<g id="72_PhuMy">
<path fill-rule="evenodd" clip-rule="evenodd" d="M119.332 338.939L108.195 341.721L95.6659 333.377L83.1366 337.549L76.1758 331.986L65.0387 338.939L56.6858 337.549L38.5879 351.456L31.6272 350.065L2.39214 355.628V312.516L14.9214 301.391L24.6665 284.702L33.0193 276.358L30.235 268.014L17.7057 263.842L16.3136 259.67V255.498L30.235 234.637L33.0193 226.293L27.4508 217.949L23.2743 205.432L6.56858 194.307L1 181.791L3.78429 176.228L7.96072 173.446H13.5293L17.7057 179.009L23.2743 177.619L19.0979 167.884L51.1172 152.586L70.6072 153.977L73.3915 156.758L102.627 158.149L108.195 147.023L113.764 145.632L117.94 140.07H123.509L127.685 135.898L129.077 130.335L140.214 126.163L144.391 102.521L147.175 99.7395L166.665 98.3488L173.626 92.786L170.842 99.7395L173.626 101.13V121.991L166.665 128.944V131.726L173.626 142.851L172.234 153.977L175.018 156.758V163.712L169.45 173.446L175.018 184.572V192.916H172.234L168.057 201.26L175.018 213.777L173.626 229.074H176.41L175.018 233.246L179.195 237.418L177.802 238.809L180.587 241.591L177.802 242.981L180.587 244.372L181.979 248.544L179.195 254.107H176.41L179.195 279.139L165.273 281.921L155.528 277.749L140.214 304.172H130.469V319.47L133.254 325.032L127.685 329.205L130.469 331.986L127.685 334.767L129.077 337.549L126.293 340.33L122.117 338.939H119.332Z" fill="#D18847" fill-opacity="0.5"/>
<path d="M180.587 244.372L177.802 242.981L180.587 241.591L177.802 238.809L179.195 237.418L175.018 233.246L176.41 229.074H173.626L175.018 213.777L168.057 201.26L172.234 192.916H175.018V184.572L169.45 173.446L175.018 163.712V156.758L172.234 153.977L173.626 142.851L166.665 131.726V128.944L173.626 121.991V101.13L170.842 99.7395L173.626 92.786L166.665 98.3488L147.175 99.7395L144.391 102.521L140.214 126.163L129.077 130.335L127.685 135.898L123.509 140.07H117.94L113.764 145.632L108.195 147.023L102.627 158.149L73.3915 156.758L70.6072 153.977L51.1172 152.586L19.0979 167.884L23.2743 177.619L17.7057 179.009L13.5293 173.446H7.96072L3.78429 176.228L1 181.791L6.56858 194.307L23.2743 205.432L27.4508 217.949L33.0193 226.293L30.235 234.637L16.3136 255.498V259.67L17.7057 263.842L30.235 268.014L33.0193 276.358L24.6665 284.702L14.9214 301.391L2.39214 312.516V355.628L31.6272 350.065L38.5879 351.456L56.6858 337.549L65.0387 338.939L76.1758 331.986L83.1366 337.549L95.6659 333.377L108.195 341.721L119.332 338.939H122.117L126.293 340.33L129.077 337.549L127.685 334.767L130.469 331.986L127.685 329.205L133.254 325.032L130.469 319.47V304.172H140.214L155.528 277.749L165.273 281.921L179.195 279.139L176.41 254.107H179.195L181.979 248.544L180.587 244.372ZM180.587 244.372L179.195 245.763" stroke="#0000FF" stroke-opacity="0.4" stroke-linecap="round" stroke-linejoin="round"/>
</g>
<g id="72_ChauDuc">
<path fill-rule="evenodd" clip-rule="evenodd" d="M226.527 259.67L223.743 258.279L219.567 263.842L218.175 259.67L213.998 261.06L211.214 258.279L207.037 262.451V259.67H204.253V269.404L194.508 273.577L188.94 269.404L179.195 255.498L180.587 244.372L177.802 242.981L180.587 241.591L176.41 238.809V229.074H173.626L175.018 213.777L168.057 201.26L169.45 195.698L173.626 191.525L175.018 192.916V184.572L169.45 173.446L175.018 162.321V156.758L172.234 153.977L173.626 142.851L166.665 131.726V128.944L170.842 127.553L173.626 121.991V101.13L170.842 99.7395L173.626 92.786L166.665 98.3488L147.175 99.7395L145.783 80.2697L149.959 84.4418L152.744 83.0511L149.959 80.2697L152.744 77.4883L154.136 78.879L151.352 76.0976H145.783L144.391 63.5814L145.783 64.9721L149.959 62.1907H163.881L173.626 53.8465L176.41 55.2372L180.587 48.2837L187.547 45.5023L188.94 39.9395L197.292 34.3767L205.645 35.7674L215.39 32.986L213.998 49.6744L219.567 48.2837V55.2372H222.351L225.135 49.6744L229.312 51.0651L236.272 48.2837L234.88 44.1116L237.665 42.7209L244.625 46.893H252.978V51.0651L310.056 52.4558L308.664 56.6279L314.233 58.0186L311.448 62.1907L314.233 80.2697L311.448 78.879L312.84 81.6604L310.056 90.0046L314.233 94.1767L308.664 105.302L310.056 108.084L315.625 109.474L317.017 113.646L312.84 117.819L314.233 120.6L308.664 123.381V126.163L319.801 134.507V137.288L328.154 141.46L332.33 140.07V137.288L336.507 135.898L337.899 133.116L347.644 131.726L351.82 133.116V135.898H354.605L362.958 131.726L367.134 134.507L364.35 140.07L374.095 145.632L372.703 147.023L379.663 156.758L376.879 163.712L374.095 165.102L376.879 169.274L365.742 180.4L367.134 185.963L362.958 188.744L368.526 197.088L367.134 199.87L362.958 198.479L361.565 205.432L369.918 210.995L368.526 213.777H372.703L378.271 219.339L372.703 223.511V230.465L367.134 231.856V234.637L365.742 231.856V238.809H362.958L360.173 244.372H353.213L346.252 248.544L343.468 247.153L339.291 249.935V252.716L336.507 249.935L335.115 254.107H332.33V256.888H325.37L317.017 251.325L314.233 254.107H310.056L304.488 247.153H297.527L296.135 240.2L293.35 242.981L284.998 236.028L279.429 245.763L278.037 242.981L266.9 248.544L268.292 249.935L269.684 247.153L266.9 249.935L268.292 251.325H265.507L262.723 255.498L259.939 262.451L261.331 263.842L255.762 265.232L257.155 269.404L251.586 276.358L241.841 263.842L234.88 262.451L237.665 252.716L227.92 249.935L226.527 259.67Z" fill="#B7E830" fill-opacity="0.5"/>
<path d="M180.587 244.372L179.195 255.498L188.94 269.404L194.508 273.577L204.253 269.404V259.67H207.037V262.451L211.214 258.279L213.998 261.06L218.175 259.67L219.567 263.842L223.743 258.279L226.527 259.67L227.92 249.935L237.665 252.716L234.88 262.451L241.841 263.842L251.586 276.358L257.155 269.404L255.762 265.232L261.331 263.842L259.939 262.451L262.723 255.498L265.507 251.325H268.292L266.9 249.935L269.684 247.153L268.292 249.935L266.9 248.544L278.037 242.981L279.429 245.763L284.998 236.028L293.35 242.981L296.135 240.2L297.527 247.153H304.488L310.056 254.107H314.233L317.017 251.325L325.37 256.888H332.33V254.107H335.115L336.507 249.935L339.291 252.716V249.935L343.468 247.153L346.252 248.544L353.213 244.372H360.173L362.958 238.809H365.742V231.856L367.134 234.637V231.856L372.703 230.465V223.511L378.271 219.339L372.703 213.777H368.526L369.918 210.995L361.565 205.432L362.958 198.479L367.134 199.87L368.526 197.088L362.958 188.744L367.134 185.963L365.742 180.4L376.879 169.274L374.095 165.102L376.879 163.712L379.663 156.758L372.703 147.023L374.095 145.632L364.35 140.07L367.134 134.507L362.958 131.726L354.605 135.898H351.82V133.116L347.644 131.726L337.899 133.116L336.507 135.898L332.33 137.288V140.07L328.154 141.46L319.801 137.288V134.507L308.664 126.163V123.381L314.233 120.6L312.84 117.819L317.017 113.646L315.625 109.474L310.056 108.084L308.664 105.302L314.233 94.1767L310.056 90.0046L312.84 81.6604L311.448 78.879L314.233 80.2697L311.448 62.1907L314.233 58.0186L308.664 56.6279L310.056 52.4558L252.978 51.0651V46.893H244.625L237.665 42.7209L234.88 44.1116L236.272 48.2837L229.312 51.0651L225.135 49.6744L222.351 55.2372H219.567V48.2837L213.998 49.6744L215.39 32.986L205.645 35.7674L197.292 34.3767L188.94 39.9395L187.547 45.5023L180.587 48.2837L176.41 55.2372L173.626 53.8465L163.881 62.1907H149.959L145.783 64.9721L144.391 63.5814L145.783 76.0976H151.352L154.136 78.879L152.744 77.4883L149.959 80.2697L152.744 83.0511L149.959 84.4418L145.783 80.2697L147.175 99.7395L166.665 98.3488L173.626 92.786L170.842 99.7395L173.626 101.13V121.991L170.842 127.553L166.665 128.944V131.726L173.626 142.851L172.234 153.977L175.018 156.758V162.321L169.45 173.446L175.018 184.572V192.916L173.626 191.525L169.45 195.698L168.057 201.26L175.018 213.777L173.626 229.074H176.41V238.809L180.587 241.591L177.802 242.981L180.587 244.372ZM180.587 244.372L179.195 245.763" stroke="#0000FF" stroke-opacity="0.4" stroke-linecap="round" stroke-linejoin="round"/>
</g>
<path id="72_DatDo" fill-rule="evenodd" clip-rule="evenodd" d="M318.409 380.66L296.135 401.521L264.115 439.07L259.939 423.772L268.292 407.084L262.723 405.693L255.762 395.958H252.978V391.786L265.507 387.614L262.723 383.442L264.115 382.051L261.331 383.442L259.939 379.27L262.723 373.707L258.547 370.925L264.115 363.972L266.9 351.456L258.547 347.284L262.723 329.204L259.939 319.47V302.781L257.155 300L248.802 305.563V300L251.586 297.218V288.874L255.762 286.093V265.232L261.331 263.842L259.939 262.451L262.723 255.498L269.684 248.544H266.9L278.037 242.981L279.429 245.763L284.998 236.028L293.35 242.981L294.743 240.2L297.527 247.153H304.488L310.056 254.107H314.233L315.625 251.325L325.37 256.888H332.33L333.723 252.716L335.115 254.107L343.468 247.153L346.252 248.544L353.213 244.372L357.389 245.763V249.935L351.82 248.544V254.107L355.997 255.498L357.389 261.06H360.173L358.781 262.451L362.958 265.232L367.134 263.842L368.526 259.67L371.311 269.405L376.879 270.795V274.967L379.663 276.358V279.139L381.056 277.749L383.84 286.093L379.663 291.656L386.624 306.953L383.84 309.735V313.907H386.624L382.448 316.688L386.624 318.079V322.251L381.056 325.032V329.204L383.84 331.986L378.271 333.377V337.549H372.703L374.095 341.721H379.663L376.879 345.893L361.565 352.846V357.018L355.997 361.191H346.252L343.468 365.363L335.115 368.144L319.801 380.66H318.409Z" fill="#49E830" fill-opacity="0.5" stroke="#0000FF" stroke-opacity="0.4" stroke-linecap="round" stroke-linejoin="round"/>
<path id="72_LongDien" fill-rule="evenodd" clip-rule="evenodd" d="M264.115 439.07L255.762 437.679L251.586 441.851L247.41 440.46L246.017 436.288L230.704 419.6L218.175 412.646L179.195 418.209L195.9 389.004H198.685L200.077 395.958L202.861 397.349L207.037 395.958L211.214 398.739H218.175L219.567 395.958L215.39 389.004L219.567 383.442L218.175 380.66L207.037 375.097L204.253 369.535L194.508 365.363L193.116 359.8H188.94L187.547 355.628L181.979 352.846L184.763 351.456V345.893L191.724 343.111L195.9 347.284H198.685V337.549L208.43 330.595L204.253 329.204L207.037 325.032H209.822L212.606 318.079L222.351 320.86L227.92 315.298L230.704 318.079V313.907L233.488 311.125L244.625 308.344L246.017 305.563L257.155 300L259.939 301.391L261.331 306.953L259.939 319.47L262.723 326.423V334.767L258.547 347.284L266.9 351.456L264.115 362.581L258.547 370.925L262.723 373.707L259.939 379.27L261.331 383.442L264.115 382.051L262.723 383.442L265.508 387.614L252.978 391.786V395.958H255.762L262.723 405.693L268.292 407.084L259.939 423.772L264.115 439.07Z" fill="#30E886" fill-opacity="0.5" stroke="#0000FF" stroke-opacity="0.4" stroke-linecap="round" stroke-linejoin="round"/>
<g id="72_XuyenMoc">
<path fill-rule="evenodd" clip-rule="evenodd" d="M468.761 330.595L453.447 348.674L446.486 345.893L426.996 350.065L383.84 347.284L361.566 357.018V352.846L376.879 345.893L379.663 341.721L372.703 340.33V337.549H378.271V333.377L383.84 331.986L381.056 329.205V325.032L386.624 323.642V318.079L382.448 316.688L386.624 313.907H383.84V309.735L386.624 306.953L381.056 291.656V277.749L379.663 279.139L375.487 269.405H371.311L369.918 259.67L367.134 263.842H358.781L360.173 261.06H357.389V258.279L350.428 251.325L351.821 248.544H358.781L357.389 242.981L360.173 244.372V241.591L365.742 238.809V231.856L367.134 234.637V231.856L372.703 230.465V226.293L378.271 219.339L372.703 213.777H368.526L369.918 210.995H367.134L361.566 205.432L362.958 199.87H367.134L368.526 197.088L362.958 190.135L367.134 185.963L365.742 181.791L368.526 176.228L376.879 169.274L374.095 165.102L376.879 163.712L379.663 156.758L375.487 153.977L376.879 151.195L372.703 148.414L374.095 145.633L364.35 140.07L367.134 134.507L362.958 133.116L360.173 124.772H364.35L360.173 120.6V116.428L364.35 112.256L362.958 108.084L357.389 103.912L364.35 95.5674L368.526 94.1767L371.311 80.2697L378.271 74.7069L381.056 77.4883L382.448 76.0976L381.056 74.7069L390.801 64.9721L389.408 63.5814L393.585 56.6279L400.546 51.0651L401.938 52.4558L403.33 46.893L413.075 37.1581H415.859L420.036 32.986H424.212L425.604 35.7674L429.781 34.3767L436.741 20.4698L456.231 1L463.192 2.3907L467.369 6.56279L470.153 10.7349L468.761 14.907H477.114L482.682 12.1256L485.466 14.907L488.251 26.0325L496.604 37.1581L509.133 39.9395L517.486 35.7674L514.701 44.1116L518.878 51.0651L517.486 60.8L523.054 63.5814L528.623 73.3163L538.368 76.0976L541.152 84.4418L548.113 87.2232L552.289 98.3488L556.466 102.521V109.474L559.25 115.037L555.074 119.209L556.466 120.6L550.897 131.726L552.289 135.898L553.682 134.507V137.288L555.074 135.898L557.858 138.679V147.023L560.642 148.414L563.427 159.539L568.995 165.102L567.603 166.493L570.387 173.446H573.172L575.956 181.791L574.564 183.181L577.348 184.572L575.956 185.963L581.524 192.916L580.132 195.698L575.956 192.916V195.698L582.917 204.042L584.309 210.995L581.524 227.684L582.917 231.856L578.74 236.028L584.309 244.372L571.779 255.498L541.152 291.656L528.623 312.516L500.78 318.079L486.859 315.298L481.29 316.688L475.721 322.251L468.761 330.595Z" fill="#30DCE8" fill-opacity="0.5"/>
<path d="M415.859 37.1581H413.075L403.33 46.893L401.938 52.4558L400.546 51.0651L393.585 56.6279L389.408 63.5814L390.801 64.9721L381.056 74.7069L382.448 76.0976L381.056 77.4883L378.271 74.7069L371.311 80.2697L368.526 94.1767L364.35 95.5674L357.389 103.912L362.958 108.084L364.35 112.256L360.173 116.428V120.6L364.35 124.772H360.173L362.958 133.116L367.134 134.507L364.35 140.07L374.095 145.633L372.703 148.414L376.879 151.195L375.487 153.977L379.663 156.758L376.879 163.712L374.095 165.102L376.879 169.274L368.526 176.228L365.742 181.791L367.134 185.963L362.958 190.135L368.526 197.088L367.134 199.87H362.958L361.566 205.432L367.134 210.995H369.918L368.526 213.777H372.703L378.271 219.339L372.703 226.293V230.465L367.134 231.856V234.637L365.742 231.856V238.809L360.173 241.591V244.372L357.389 242.981L358.781 248.544H351.821L350.428 251.325L357.389 258.279V261.06H360.173L358.781 263.842H367.134L369.918 259.67L371.311 269.405H375.487L379.663 279.139L381.056 277.749V291.656L386.624 306.953L383.84 309.735V313.907H386.624L382.448 316.688L386.624 318.079V323.642L381.056 325.032V329.205L383.84 331.986L378.271 333.377V337.549H372.703V340.33L379.663 341.721L376.879 345.893L361.566 352.846V357.018L383.84 347.284L426.996 350.065L446.486 345.893L453.447 348.674L468.761 330.595L475.721 322.251L481.29 316.688L486.859 315.298L500.78 318.079L528.623 312.516L541.152 291.656L571.779 255.498L584.309 244.372L578.74 236.028L582.917 231.856L581.524 227.684L584.309 210.995L582.917 204.042L575.956 195.698V192.916L580.132 195.698L581.524 192.916L575.956 185.963L577.348 184.572L574.564 183.181L575.956 181.791L573.172 173.446H570.387L567.603 166.493L568.995 165.102L563.427 159.539L560.642 148.414L557.858 147.023V138.679L555.074 135.898L553.682 137.288V134.507L552.289 135.898L550.897 131.726L556.466 120.6L555.074 119.209L559.25 115.037L556.466 109.474V102.521L552.289 98.3488L548.113 87.2232L541.152 84.4418L538.368 76.0976L528.623 73.3163L523.054 63.5814L517.486 60.8L518.878 51.0651L514.701 44.1116L517.486 35.7674L509.133 39.9395L496.604 37.1581L488.251 26.0325L485.466 14.907L482.682 12.1256L477.114 14.907H468.761L470.153 10.7349L467.369 6.56279L463.192 2.3907L456.231 1L436.741 20.4698L429.781 34.3767L425.604 35.7674L424.212 32.986H420.036L415.859 37.1581ZM415.859 37.1581L414.467 35.7674" stroke="#0000FF" stroke-opacity="0.4" stroke-linecap="round" stroke-linejoin="round"/>
</g>
</g>
</g>

</svg>
