<svg width="643" height="426" viewBox="0 0 643 426" fill="none" xmlns="http://www.w3.org/2000/svg">
<g id="75">

<path class="district" id="75_Hue" name="Huế" fill-rule="evenodd" clip-rule="evenodd" d="M324.488 169.058L323.741 169.805L325.235 175.78L322.994 178.768V181.756L324.488 183.249V189.225L327.477 192.213L324.488 195.947L322.994 192.213H317.017L313.282 190.719L311.788 189.225L311.041 185.49H309.547L307.305 181.756L302.823 183.996V181.756L296.846 178.768L282.652 175.033L278.916 169.805L279.663 168.311L287.881 166.07V164.576L282.652 166.07L281.904 165.323L284.146 164.576L283.399 161.589L278.916 160.842L277.422 156.36L278.169 154.866H280.41L281.157 153.373L285.64 151.132V149.638L287.881 148.144L286.387 145.156L281.904 144.409L283.399 139.928L285.64 136.94L288.628 142.169H290.122V136.193L291.617 134.699L292.364 136.193L293.111 134.699H299.087L298.34 136.193L301.329 136.94L302.823 139.181H301.329L302.076 141.422H300.582V142.916L303.57 142.169L298.34 148.144L306.558 141.422H309.547L311.788 139.181L313.282 139.928L314.776 145.156L320.753 148.144V151.879L322.247 153.373L332.706 155.613L334.948 160.095L332.706 160.842L333.453 161.589L328.971 160.842L329.718 165.323L327.477 168.311L325.983 166.817L325.235 167.564L324.488 169.058Z" fill="#D147AC" fill-opacity="0.5" stroke="#0000FF" stroke-opacity="0.4" stroke-linecap="round" stroke-linejoin="round"/>
<path class="district" id="75_HuongThuy" name="Hương Thủy" fill-rule="evenodd" clip-rule="evenodd" d="M358.107 284.084L356.613 286.325L352.878 285.578L352.131 288.566V290.06L357.36 292.3L354.372 296.782V301.264L352.878 302.757L347.648 304.251V305.745L346.154 304.998L345.407 308.733H335.695L334.948 311.72L332.706 313.214L331.959 315.455L327.477 316.202L325.235 318.443H319.259L314.776 321.43H309.547L308.052 324.418L305.064 323.671V327.406L296.099 331.14L293.858 329.647L285.64 331.887L279.663 331.14L275.928 333.381L273.687 331.14L274.434 327.406L272.939 325.912L275.181 324.418L275.928 321.43L274.434 318.443H276.675L278.169 314.708L276.675 313.961V312.467L274.434 311.72L279.663 310.227L280.41 302.757L278.169 299.023L278.916 297.529L275.928 294.541L275.181 290.807L272.939 287.819V284.084L269.951 281.097L268.457 283.337L266.216 282.59L268.457 280.35V277.362L265.469 276.615V271.387L261.733 272.133V270.64L263.974 269.146H267.71L268.457 267.652L278.916 261.677L283.399 257.195V248.979L280.41 240.763H281.904L283.399 238.522L285.64 240.016H288.628L290.869 238.522L291.617 239.269L294.605 235.534H296.099V231.053L299.835 230.306L302.823 226.571L308.8 227.318L314.776 225.824L315.523 228.812L320.006 225.077H322.994V223.583H321.5L322.247 212.38L317.018 207.898L313.282 208.645L307.305 204.163L305.064 195.947L301.329 191.466L298.34 184.743L299.087 181.009L302.823 181.756V183.996L307.305 181.756L309.547 185.49H311.041L311.788 189.225L313.282 190.719L317.018 192.213H322.994L323.741 195.947L326.73 192.213L324.488 189.225V183.996L322.994 181.756V178.768L325.235 175.78L323.741 170.552L325.983 166.817L327.477 168.311L329.718 165.323L328.971 160.842L333.453 161.589L332.706 160.842L334.948 160.095L332.706 155.613L322.247 153.373L320.753 151.879L320.006 149.638L322.994 147.397L323.741 145.156H328.224L331.212 143.663L336.442 145.156L340.924 148.144L345.407 148.891L346.901 152.626L341.671 154.119V155.613L342.418 157.854L346.901 160.095L347.648 165.323L351.383 166.07L354.372 171.299H359.601L367.072 178.021L372.302 175.78L378.279 177.274L380.52 183.996L382.761 186.237L389.485 189.225L393.22 198.188L397.703 199.682L401.438 204.163L403.68 210.139L404.427 213.873H402.932L396.956 208.645L395.462 209.392L394.714 206.404L393.22 205.657V209.392L391.726 211.633L390.979 210.886L387.991 212.38L384.255 217.608L376.037 224.33L373.796 233.293L370.061 237.775L370.808 238.522L369.314 243.75L367.819 245.244L368.566 246.738L367.072 247.485L366.325 250.473L363.337 254.207L364.084 254.954L361.843 258.689L362.59 260.93L353.625 263.917L347.648 262.423L346.154 263.17L345.407 268.399L347.648 271.387L349.142 275.121L348.395 275.868L350.636 278.109L355.119 278.856V281.097L356.613 282.59L358.107 284.084Z" fill="#D1475A" fill-opacity="0.5" stroke="#0000FF" stroke-opacity="0.4" stroke-linecap="round" stroke-linejoin="round"/>
<path class="district" id="75_HuongTra" name="Hương Trà" fill-rule="evenodd" clip-rule="evenodd" d="M299.087 182.503L298.34 184.743L301.329 191.466L305.064 195.947L307.305 204.163L313.282 208.645L317.017 207.898L321.5 212.38L322.994 225.077L322.247 225.824V224.33H320.006V225.824L319.259 225.077L316.27 228.812L314.776 225.824L308.8 227.318L302.823 226.571L299.835 230.306L296.099 231.053V235.534H294.605L291.617 239.269L290.869 238.522L289.375 240.016H285.64L283.399 238.522L281.904 240.763H280.41L283.399 248.979V257.195L267.71 269.146H260.239L258.745 270.64L257.998 269.893L254.262 271.387L253.515 270.64L252.021 273.627L250.527 271.387L249.78 273.627L248.286 272.133L242.309 278.109H240.815L239.321 275.121L236.332 278.109H234.838L234.091 276.615L231.85 277.362L228.861 275.868L228.114 272.133L225.873 271.387L226.62 269.893H225.126L223.632 266.158L219.896 263.917H217.655L215.414 257.942L216.908 248.979L213.92 247.485L209.437 240.763V236.281L213.92 228.065L210.931 226.571H202.713L200.472 227.318L199.725 229.559L197.484 231.053H195.242L191.507 228.812L180.301 231.053L178.807 230.306L179.554 228.065L172.83 225.824L171.336 223.583H173.577L175.818 221.343V219.102H174.324V216.861L171.336 214.62L174.324 213.126V210.139L172.83 209.392L175.071 208.645L175.818 207.151L177.312 208.645L178.059 207.151L182.542 206.404L189.266 202.67L188.519 201.176L187.024 201.923L185.53 195.2L184.036 194.453L184.783 192.213L187.024 194.453H190.76L192.254 193.706L193.001 190.719L197.484 189.972L198.978 186.237L201.966 183.249L203.46 184.743L205.702 183.249L204.955 181.756L207.943 178.768L207.196 174.286L209.437 173.539L211.678 175.033L212.425 178.768L213.92 172.793L216.161 173.539L216.908 176.527L218.402 177.274L219.896 175.78L217.655 172.046L218.402 166.817L222.885 165.323V160.842L226.62 158.601L227.367 156.36L231.85 154.866L231.103 150.385L228.114 149.638L229.608 143.663L228.861 134.699L234.091 127.23L232.597 122.002L233.344 119.761L237.079 116.026L242.309 112.292L247.538 116.773L251.274 123.496L258.745 124.989L262.48 124.242L266.216 119.014L269.951 118.267L272.192 121.255L270.698 122.002L269.204 127.23L272.939 130.218L275.181 128.724L273.686 127.977L275.181 122.749L279.663 124.242L280.41 127.977L284.146 125.736H281.157V123.496L285.64 120.508H291.617L293.858 124.242H295.352L296.846 121.255L299.835 122.749L302.823 122.002L301.329 119.761L307.305 107.81L306.558 104.076L308.8 103.329V100.341L302.823 90.6309L299.087 88.3901L302.823 79.427L329.718 95.8594L334.948 108.557L333.453 111.545L328.971 113.039H325.983L320.006 110.051H317.017L314.776 111.545L311.788 116.773L307.305 119.761L304.317 123.496V126.483L307.305 130.965L305.811 135.446L306.558 141.422L298.34 148.144L303.57 142.916H300.582V141.422H302.076L301.329 139.181H302.823L301.329 136.94L299.087 136.193V134.699H293.111L292.364 136.193L291.617 134.699L290.122 136.193V142.169H288.628L285.64 136.94L284.893 139.181H283.399L281.904 144.409L287.881 145.903V148.144L285.64 149.638V151.132L277.422 156.36L278.916 160.842L283.399 161.589L284.146 164.576H282.652V166.07L287.134 164.576L287.881 166.07L279.663 168.311V172.046L282.652 175.033L296.846 178.768L299.087 181.009V182.503Z" fill="#D18847" fill-opacity="0.5" stroke="#0000FF" stroke-opacity="0.4" stroke-linecap="round" stroke-linejoin="round"/>
<path class="district" id="75_ALuoi" name="A Lưới" fill-rule="evenodd" clip-rule="evenodd" d="M197.484 379.691L194.495 381.931L193.748 384.919L190.013 387.16L186.277 385.666L183.289 387.16L180.301 386.413L176.565 390.148H174.324L171.336 387.907L170.589 383.425L168.347 381.931L166.106 382.678L162.371 377.45L159.382 375.956L156.394 369.234L152.659 366.246L146.682 355.042L140.705 356.536L138.464 354.295L134.728 344.585L131.74 345.332L125.016 338.61H121.281L116.051 340.851L113.81 344.585L112.316 342.344L105.592 339.357L98.8683 340.104L87.662 332.634L84.6737 328.153L77.9499 325.165L76.4557 318.443L73.4674 315.455V308.733L71.9732 307.239L72.7203 303.504L70.479 300.517L71.9732 296.782L76.4557 291.554V290.06L73.4674 288.566V287.072L75.7086 285.578V278.856L77.2028 276.615L71.2261 268.399L41.3427 247.485L39.8485 245.244L36.1131 244.497L30.1364 249.726L19.6772 248.232L18.183 251.967H15.9417L6.2296 244.497L3.98835 240.016L5.48252 233.293L3.98835 222.09L5.48252 220.596H3.24126V219.102L1 217.608L8.47086 212.38L12.2063 211.633L13.7005 213.126L16.6888 206.404L21.1713 203.416L24.1597 197.441V194.453L26.4009 192.213L25.6538 191.466L27.148 189.225L24.1597 187.731L19.6772 181.009L18.9301 176.527L23.4126 172.046L24.1597 168.311L40.5956 167.564L48.8135 172.793L60.0198 171.299L71.9732 174.286L72.7203 175.033L70.479 179.515L71.2261 182.503L68.2378 185.49L69.7319 188.478L68.9849 192.213L74.9615 201.176L71.9732 203.416L74.9615 207.151L83.1795 207.898L83.9266 210.139H86.1678L92.1445 213.126L90.6504 214.62L92.8916 219.102L94.3858 220.596H96.627L98.8683 225.077L104.845 226.571L112.316 224.33L113.063 216.114L121.281 208.645L125.763 207.151L128.752 210.139L130.246 207.898H133.234L136.97 205.657L138.464 206.404L141.452 204.91L147.429 209.392L149.67 208.645L157.888 210.886L161.624 213.873L163.865 217.608L170.589 221.343L172.083 225.824L179.554 228.065L178.807 230.306L180.301 231.053L187.024 230.306L188.519 228.812L197.484 231.053L199.725 229.559L200.472 227.318L202.713 226.571H210.931L213.92 228.065L209.437 236.281V242.257L213.92 247.485L216.908 248.979L215.414 257.942L216.908 263.917H219.896L223.632 266.158L225.126 269.893H226.62L225.873 271.387L228.114 272.133L228.861 275.868L231.85 277.362L234.091 276.615L234.838 278.109H236.332L239.321 275.121L240.815 278.109H242.309L248.286 272.133L249.78 273.627L250.527 271.387L251.274 273.627L253.515 270.64H258.745L260.239 269.146L262.48 269.893L261.733 272.133L264.721 271.387L265.469 276.615L268.457 277.362V280.35L266.216 281.843L266.963 283.337H268.457L269.951 281.097L271.445 281.843V283.337L272.939 284.084V287.819L275.181 290.807L275.928 294.541L278.916 297.529L278.169 299.023L280.41 302.757L279.663 310.227L274.434 310.974L276.675 312.467L277.422 314.708L276.675 318.443H275.181L275.928 322.924L272.939 325.912L274.434 327.406L273.686 328.9L275.928 334.875L272.939 337.116L274.434 337.863L271.445 339.357V342.344H269.951V346.826H272.192V350.561L270.698 351.307V355.789H269.204L271.445 363.258L272.939 364.005L270.698 372.221L272.192 375.209L271.445 377.45L273.686 378.944V393.135H275.181L276.675 399.111L273.686 406.58L275.181 412.555L274.434 414.049L269.951 412.555L266.963 409.568L265.469 403.592L263.227 402.845L262.48 400.604L258.745 399.111H257.251L254.262 402.098H251.274L246.044 408.074L243.803 405.833H241.562L237.826 400.604L234.838 399.858L234.091 391.641L235.585 387.16L240.815 381.931H242.309L243.803 378.944L240.815 378.197L239.321 372.968L235.585 370.727H234.091V373.715L232.597 375.209L228.114 374.462L225.873 377.45H220.643L216.161 374.462L213.173 375.956L210.931 378.197L209.437 386.413H203.46L201.219 383.425L197.484 379.691Z" fill="#B7E830" fill-opacity="0.5" stroke="#0000FF" stroke-opacity="0.4" stroke-linecap="round" stroke-linejoin="round"/>
<path class="district" id="75_NamDong" name="Nam Đông" fill-rule="evenodd" clip-rule="evenodd" d="M458.964 342.344L459.711 345.332L457.47 351.307L458.217 355.789L447.01 365.499L444.769 369.234L441.781 370.727L438.793 376.703L441.034 381.184L438.793 384.172L436.551 390.894L435.057 392.388L431.322 391.641L428.333 387.907L420.115 383.425L417.127 386.413L413.392 384.172L414.139 387.907L411.15 390.147L410.403 393.135L406.668 393.882L403.679 397.617L402.185 396.87L396.956 398.364L391.726 401.351L389.485 404.339H387.244L387.991 411.808L386.497 417.784L376.784 424.506L370.061 425.253L361.843 423.012L360.348 422.265V419.278L358.107 418.531V415.543L352.878 411.808L346.154 411.061L344.66 408.821L340.177 406.58L330.465 404.339L328.971 402.845L331.959 393.882L328.971 386.413L317.765 390.147L302.823 390.894L293.111 396.87V399.111L296.846 405.086V409.567L293.111 414.049L291.617 413.302L290.869 415.543L289.375 416.29L275.928 412.555L275.181 413.302L273.686 406.58L275.928 402.845L275.181 401.351L276.675 399.857L275.928 394.629L272.939 388.654L274.434 384.919L272.939 382.678L273.686 378.944L271.445 375.956L272.192 375.209L270.698 372.221L272.939 364.005L271.445 363.258L269.204 356.536H270.698V351.307L272.192 350.56V346.826H269.951L270.698 343.838L269.204 342.344H271.445L269.951 340.85L274.434 337.863L272.939 337.116L275.928 334.875V333.381L279.663 331.14L285.64 331.887L293.858 329.647L296.099 331.14L298.34 330.394L305.064 327.406V323.671L308.052 324.418L308.8 321.43H314.776L319.259 318.443H325.235L327.477 316.202L331.959 315.455L332.706 313.214L334.948 311.72L335.695 308.733H345.407L346.154 304.998L347.648 305.745V304.251L352.878 302.757L354.372 301.263V296.782L357.36 292.3L352.131 290.06L352.878 285.578L356.613 286.325L358.107 284.084L358.854 286.325L361.096 284.831L365.578 286.325L368.566 284.831L379.026 290.807L385.002 287.819L386.497 288.566L393.22 287.072L396.209 288.566L398.45 287.072L405.174 290.807L407.415 295.288L412.645 299.023L414.139 303.504H423.104L427.586 302.01L433.563 308.733L434.31 313.214L438.045 314.708L439.54 317.696L441.781 318.443L443.275 320.684L454.481 321.43L458.217 328.9L467.929 324.418V331.887L458.964 334.875V341.597V342.344Z" fill="#49E830" fill-opacity="0.5" stroke="#0000FF" stroke-opacity="0.4" stroke-linecap="round" stroke-linejoin="round"/>
<path class="district" id="75_PhongDien" name="Phong Điền" fill-rule="evenodd" clip-rule="evenodd" d="M171.336 223.583L170.589 221.343L163.865 217.608L161.624 213.873L157.888 210.886L149.67 208.645L147.429 209.392L141.452 204.91L138.464 206.404L136.97 205.657L133.234 207.898H130.246L128.752 210.139L125.763 207.151L121.281 208.645L113.063 216.114L112.316 224.33L105.592 226.571L98.8683 225.077L96.627 220.596H94.3858L92.8916 219.102L90.6503 214.62L92.1445 213.126L86.1678 210.139H83.9266L83.1795 207.898L74.9615 207.151L71.9732 203.416L74.9615 201.176L68.9848 192.213L69.7319 188.478L68.2377 186.237L71.2261 183.25L70.479 179.515L72.7203 175.78L71.9732 174.286H69.7319L65.9965 172.046L60.0198 171.299L65.9965 165.323L62.2611 154.866V151.879L60.7669 151.132L60.0198 148.891L49.5606 141.422H48.0664L46.5722 143.663L43.5839 138.434V136.193L38.3543 137.687L36.8601 136.94L36.113 134.699L33.8718 135.446L32.3776 132.459L30.8834 133.953L24.1597 127.977L22.6655 124.989L25.6538 117.52V112.292L32.3776 114.532L33.8718 112.292L39.8485 113.039L42.0897 110.051L58.5256 109.304L60.0198 105.569L59.2727 104.076L61.514 101.835L66.7436 100.341L68.2377 98.1001L75.7086 96.6063L77.2028 97.3532L84.6736 94.3655L89.1562 95.8594L92.1445 92.8717L95.1329 93.6186L98.1212 92.1248H102.604L104.098 93.6186H107.833L110.075 95.1125L122.028 92.1248L125.016 89.1371L127.258 90.6309L128.752 95.1125L131.74 97.3532L136.97 98.8471L139.211 101.088L142.946 98.1001H145.188V96.6063L148.923 95.1125L153.406 90.6309L161.624 87.6432L169.094 80.174L168.347 79.427L170.589 77.1863L166.853 70.464L160.876 67.4763L163.865 59.2601L163.118 58.5132V60.7539L161.624 62.2478L159.382 60.007L165.359 52.5378L167.6 51.7908L169.094 57.7662L170.589 59.2601L171.336 58.5132V54.0316L165.359 46.5624H166.853L167.6 45.0685H171.336L172.083 44.3216L168.347 42.0808L173.577 39.0931L175.071 34.6116L181.795 29.3831L182.542 27.1423L187.024 25.6485V23.4077L183.289 20.42L184.783 18.9262L185.53 19.6731L193.748 6.22847L203.46 1L213.172 7.72232L266.963 52.5378L262.48 60.7539L263.227 61.5009L256.504 68.2232L240.815 55.5255H233.344L234.091 49.5501L231.85 48.0562H229.608L228.114 50.297L225.126 45.0685L223.632 45.8155L224.379 47.3093L219.896 46.5624L218.402 52.5378L219.896 53.2847L216.161 58.5132L213.172 60.007L214.667 64.4886L213.92 73.4516L217.655 74.9455L216.908 76.4393L222.885 79.427L243.803 84.6555L241.562 89.1371L244.55 92.8717V95.8594L243.056 96.6063L243.803 98.1001H245.297L249.033 102.582L247.538 107.063L248.286 108.557L247.538 110.798L244.55 110.051L243.056 107.81L241.562 108.557L240.815 110.798L242.309 112.292L233.344 119.761L232.597 122.002L234.091 127.23L228.861 134.699L229.608 143.663L228.114 149.638L231.103 150.385L231.85 154.866L227.367 156.36L226.62 158.601L222.885 160.842V164.576L218.402 166.817L217.655 172.046L219.896 175.78L218.402 177.274L216.908 176.527L216.161 173.539L213.92 172.793L213.172 178.768L211.678 178.021V175.033L209.437 173.539L207.196 174.286L207.943 178.768L204.955 181.009L205.702 182.503L203.46 184.743L202.713 183.25L197.484 189.972L193.001 190.719L192.254 193.706L190.76 194.453H187.772L184.783 192.213L184.036 192.96V194.453H185.53L186.277 201.923L188.519 201.176L189.266 202.67L182.542 206.404L178.059 207.151V208.645L175.818 207.151L173.577 209.392L174.324 213.126L171.336 214.62L174.324 216.861V219.102H175.818L173.577 223.583H171.336Z" fill="#30E886" fill-opacity="0.5" stroke="#0000FF" stroke-opacity="0.4" stroke-linecap="round" stroke-linejoin="round"/>
<path class="district" id="75_PhuLoc" name="Phú Lộc" fill-rule="evenodd" clip-rule="evenodd" d="M585.969 319.937L582.98 318.443L582.233 319.19L571.027 317.696L567.291 320.684L556.832 313.961L544.132 311.72L541.143 309.48L538.902 305.745L532.925 303.504L529.937 300.517L524.707 304.998L523.96 307.239L518.731 312.467L512.007 314.708L505.283 311.72H500.054L491.089 304.251L488.1 299.77L485.859 301.263L484.365 300.517L483.618 302.757L479.135 305.745L476.147 304.998L475.4 308.733H472.411L467.929 310.974L468.676 315.455L464.194 317.696L467.929 324.418L458.217 329.647V327.406L455.976 326.659L456.723 324.418L454.481 322.924V321.43L443.275 320.684L441.781 318.443L439.54 317.696L438.045 314.708L435.057 313.961L433.563 308.733L427.586 302.01L423.104 303.504H414.139L412.645 299.023L407.415 295.288L405.174 290.807L398.45 287.072L396.209 288.566L393.22 287.072L386.497 288.566L385.002 287.819L381.267 290.807H379.026L368.566 284.831L365.578 286.325L361.096 284.831L359.601 286.325L355.119 281.843V279.603L349.889 277.362L345.407 268.399V265.411L347.648 262.423L349.889 263.917H353.625L362.59 260.93L361.843 259.436L364.084 255.701L363.337 254.207L366.325 250.473L367.072 247.485L368.566 246.738L367.819 245.244L369.314 243.75L370.808 238.522L370.061 237.775L373.796 233.293L376.037 224.33L379.773 222.09L387.991 212.38L390.979 210.886L391.726 211.633L393.22 209.392V205.657L394.714 206.404L395.462 209.392L396.956 208.645L399.197 211.633L402.932 213.873L408.909 214.62L414.139 217.608L415.633 220.596L424.598 217.608L439.54 233.293L444.769 236.281L451.493 229.559V221.343L447.011 219.102L441.781 206.404L438.793 203.416L435.057 202.67L432.816 198.188H431.322L433.563 195.947L432.816 193.706H435.057L435.804 192.213L441.034 190.719L446.263 192.959L448.505 195.947L452.987 188.478L482.871 214.62L483.618 213.873L491.836 220.596H494.077L503.042 227.318H506.03L506.777 225.077L511.26 227.318L512.007 231.053L516.49 236.281L519.478 239.269L525.455 242.256L541.143 244.497L547.12 240.763L550.108 237.028L547.12 234.04H545.626L544.879 230.306L546.373 228.065L547.867 227.318L551.603 231.8H554.591L558.326 243.003V244.497L556.085 245.244L585.221 293.794L586.716 292.3L588.21 294.541L594.187 298.276L595.681 297.529L596.428 299.023H597.922V300.517L600.91 302.01L603.899 299.77L604.646 300.517L607.634 299.023L613.611 301.263L615.852 296.782L627.805 303.504L634.529 302.01L635.276 299.77L642 303.504L632.288 305.745L629.3 307.986L621.829 304.998L621.082 308.733L618.093 307.986L614.358 309.48L609.875 313.961L600.91 319.19L596.428 318.443L593.439 316.202H590.451L586.716 318.443L585.969 319.937Z" fill="#30DCE8" fill-opacity="0.5" stroke="#0000FF" stroke-opacity="0.4" stroke-linecap="round" stroke-linejoin="round"/>
<path class="district" id="75_PhuVang" name="Phú Vang" fill-rule="evenodd" clip-rule="evenodd" d="M444.769 236.281L439.54 233.293L424.598 217.608L415.633 220.596L414.139 217.608L408.909 214.62H405.174L401.438 204.163L397.703 199.682L393.22 198.188L389.485 189.225L382.761 186.237L380.52 183.996L378.279 177.274L372.302 175.78L367.072 178.021L359.601 171.299H354.372L351.383 166.07H348.395L346.901 160.095L342.418 157.854L341.671 155.613V154.119L346.154 152.626L346.901 151.132L345.407 148.891L340.924 148.144L336.442 145.156L331.212 143.663L328.224 145.156H323.741L321.5 148.144L314.776 145.156L314.029 141.422L311.788 139.181L309.547 141.422H306.558L305.811 135.446L307.305 130.965L304.317 126.483V123.496L305.811 121.255L311.788 116.773L314.776 111.545L317.017 110.051L322.994 110.798L325.983 113.039L333.453 111.545L334.948 108.557L329.718 95.8594L332.706 98.1002L347.648 104.076L378.279 124.989L408.162 148.144L452.987 188.478L448.505 195.947L446.263 192.96L441.034 190.719L432.816 193.706L433.563 195.947L431.322 198.188H432.816L435.057 202.67L438.793 203.416L441.781 206.404L447.011 219.102L451.493 221.343V229.559L444.769 236.281Z" fill="#306EE8" fill-opacity="0.5" stroke="#0000FF" stroke-opacity="0.4" stroke-linecap="round" stroke-linejoin="round"/>
<path class="district" id="75_QuangDien" name="Quang Điền" fill-rule="evenodd" clip-rule="evenodd" d="M288.628 119.761L281.157 123.496V125.736H284.146L281.157 127.977L279.663 124.242L275.181 122.749L273.686 125.736V127.977H275.181L272.939 130.218L269.204 127.23L270.698 122.002L272.192 121.255L270.698 118.267L266.216 119.014L262.48 124.242L258.745 124.989L251.274 123.496L247.538 116.773L240.815 110.798V109.304L243.056 107.81L244.55 110.051L247.538 110.798L249.033 102.582L247.538 101.835L246.791 98.8471L243.056 97.3532L244.55 95.8594V92.8717L241.562 89.137L243.803 84.6555L222.885 79.427L216.908 76.4393L217.655 74.9455L213.92 73.4516L214.667 64.4885L213.173 60.007L216.161 58.5131L219.896 53.2847L218.402 52.5378L219.896 46.5624L224.379 47.3093L223.632 45.8154L225.126 45.0685L228.114 50.297L229.608 48.0562H231.85L234.091 49.5501L233.344 55.5255H240.815L256.504 68.2232L263.227 61.5008L262.48 60.7539L266.963 52.5378L302.823 79.427L299.087 88.3901L302.823 90.6309L308.8 100.341V102.582L306.558 104.076L307.305 107.81L301.329 119.761L302.823 121.255L299.835 122.749L296.846 121.255L296.099 123.496L293.858 124.242L291.617 120.508L288.628 119.761Z" fill="#6130E8" fill-opacity="0.5" stroke="#0000FF" stroke-opacity="0.4" stroke-linecap="round" stroke-linejoin="round"/>

</g>
</svg>
