<svg width="586" height="445" viewBox="0 0 586 445" fill="none" xmlns="http://www.w3.org/2000/svg">
<g id="92">
<g class="district" id="92_HoiAn">
<path fill-rule="evenodd" clip-rule="evenodd" d="M567.176 99.5754L569.273 102.721L566.128 101.673L567.176 99.5754ZM487.492 48.1903L485.395 52.385L484.347 50.2877L486.444 48.1903H487.492ZM494.831 35.6062L497.977 37.7036L496.928 39.8009L500.074 42.947L508.461 45.0443V57.6284L506.365 58.6771L501.122 51.3363L499.025 52.385L495.88 46.093L496.928 45.0443L493.783 42.947L491.686 45.0443L489.589 41.8983H487.492L490.637 37.7036L494.831 35.6062ZM474.91 35.6062L473.862 40.8496L471.765 38.7523L473.862 35.6062H474.91ZM434.02 82.7966H427.729L424.584 83.8452L425.632 84.8939H422.487L420.39 82.7966L419.341 83.8452V79.6505L420.39 80.6992L422.487 76.5045L417.244 78.6019L416.196 74.4072L413.05 72.3098L414.099 68.1151L422.487 61.8231L424.584 64.9691L426.68 63.9204L428.777 58.6771L449.747 72.3098L453.941 77.5532L443.456 83.8452L436.117 81.7479L434.02 82.7966ZM452.892 72.3098L457.086 75.4559L451.844 72.3098H452.892ZM509.51 61.8231V66.0178H507.413L506.365 64.9691L509.51 61.8231Z" fill="#D147AC" fill-opacity="0.5"/>
<path d="M483.298 54.4824H482.25M462.329 37.7036L461.28 38.7523M463.377 37.7036L464.426 38.7523M567.176 99.5754L569.273 102.721L566.128 101.673L567.176 99.5754ZM487.492 48.1903L485.395 52.385L484.347 50.2877L486.444 48.1903H487.492ZM494.831 35.6062L497.977 37.7036L496.928 39.8009L500.074 42.947L508.461 45.0443V57.6284L506.365 58.6771L501.122 51.3363L499.025 52.385L495.88 46.093L496.928 45.0443L493.783 42.947L491.686 45.0443L489.589 41.8983H487.492L490.637 37.7036L494.831 35.6062ZM474.91 35.6062L473.862 40.8496L471.765 38.7523L473.862 35.6062H474.91ZM434.02 82.7966H427.729L424.584 83.8452L425.632 84.8939H422.487L420.39 82.7966L419.341 83.8452V79.6505L420.39 80.6992L422.487 76.5045L417.244 78.6019L416.196 74.4072L413.05 72.3098L414.099 68.1151L422.487 61.8231L424.584 64.9691L426.68 63.9204L428.777 58.6771L449.747 72.3098L453.941 77.5532L443.456 83.8452L436.117 81.7479L434.02 82.7966ZM452.892 72.3098L457.086 75.4559L451.844 72.3098H452.892ZM509.51 61.8231V66.0178H507.413L506.365 64.9691L509.51 61.8231Z" stroke="#0000FF" stroke-opacity="0.4" stroke-linecap="round" stroke-linejoin="round"/>
</g>
<path class="district" id="92_TamKy" fill-rule="evenodd" clip-rule="evenodd" d="M486.443 223.319L483.298 220.173L484.347 215.978L482.25 213.881V207.589L472.813 204.443L473.862 198.151L480.153 185.567L475.959 183.469L471.765 174.031L487.492 171.934L489.589 174.031L494.831 169.837L499.025 168.788L515.801 191.859L509.51 192.907L511.607 196.053L507.413 199.199L502.171 198.151L503.219 201.297L501.122 204.443L493.783 205.491L491.686 210.735L492.734 212.832L490.637 215.978L487.492 217.027L486.443 223.319Z" fill="#D1475A" fill-opacity="0.5" stroke="#0000FF" stroke-opacity="0.4" stroke-linecap="round" stroke-linejoin="round"/>
<path class="district" id="92_DienBan" fill-rule="evenodd" clip-rule="evenodd" d="M380.548 93.2833L366.917 94.332L360.627 85.9426L358.53 86.9913V80.6992L354.336 79.6506L355.384 75.4559L353.287 74.4072L354.336 73.3585L352.239 69.1638L354.336 70.2125L355.384 64.9691L353.287 60.7744L360.627 57.6284V54.4824H358.53L359.578 47.1417H364.821L367.966 51.3364H370.063L372.16 49.239L371.111 46.093L373.208 43.9956V40.8496L375.305 42.947L379.499 41.8983L380.548 47.1417L383.693 50.2877L385.79 47.1417V49.239L387.887 48.1903L386.839 47.1417L387.887 45.0443H389.984V42.947L397.323 38.7523H401.517L402.566 41.8983L404.663 40.8496L406.76 42.947L412.002 38.7523L420.39 51.3364L428.777 58.6771L425.632 64.9691L422.487 61.8231L414.099 68.1151L413.05 72.3098L416.196 74.4072V76.5045H422.487L420.39 80.6992L409.905 79.6506L403.614 82.7966L400.469 84.8939V90.1373L397.323 93.2833V95.3807H395.226L394.178 93.2833L396.275 91.186L393.129 88.04L391.032 91.186L388.935 90.1373L382.645 93.2833H380.548Z" fill="#D18847" fill-opacity="0.5" stroke="#0000FF" stroke-opacity="0.4" stroke-linecap="round" stroke-linejoin="round"/>
<path class="district" id="92_BacTraMy" fill-rule="evenodd" clip-rule="evenodd" d="M419.341 355.452L414.099 358.598L407.808 368.036L408.856 370.133L401.517 377.474L391.032 372.231L384.742 363.841L385.79 356.501L387.887 354.403L386.838 352.306H384.742L382.645 346.014V348.111L374.257 355.452L372.16 351.257L369.014 349.16L367.966 350.209L366.917 347.063L359.578 340.77L348.045 336.576L349.093 335.527L346.996 333.43V328.186L344.9 326.089L345.948 323.992L340.706 319.797L332.318 301.97L323.93 299.872L320.785 300.921L317.639 305.116H315.542L312.397 300.921L310.3 301.97L306.106 299.872L305.057 303.018L304.009 300.921L298.767 304.067L285.136 307.213L283.04 306.164L281.991 301.97L289.33 295.677L284.088 284.142L286.185 277.85L297.718 278.899L300.864 276.801L302.961 277.85L308.203 275.753L310.3 273.655L307.154 271.558V268.412H309.251L310.3 266.315L309.251 257.925L314.494 258.974V261.071L319.736 264.217L323.93 263.169L335.463 268.412L340.706 264.217L338.609 261.071L345.948 251.633L349.093 254.779L354.336 251.633L358.53 253.731L356.433 257.925L360.627 267.363L369.014 273.655H374.257L377.402 269.461L387.887 270.509L392.081 269.461L394.178 266.315L402.566 267.363L415.147 264.217L422.487 265.266L426.68 268.412L427.729 266.315L431.923 265.266L439.262 272.607L446.601 270.509L447.65 267.363L471.765 268.412L479.104 266.315L481.201 271.558V283.093L475.959 288.337V290.434L466.522 294.629L465.474 298.824H459.183L456.038 301.97V305.116L452.892 306.164L450.795 304.067H446.601L441.359 307.213H437.165L425.632 304.067L419.341 309.31L417.244 313.505L419.341 317.7L418.293 321.894L414.099 323.992V326.089L409.905 327.138L413.05 331.332L412.002 333.43L420.39 335.527L418.293 340.77L414.099 343.916L415.147 347.063H418.293L417.244 352.306L419.341 355.452Z" fill="#B7E830" fill-opacity="0.5" stroke="#0000FF" stroke-opacity="0.4" stroke-linecap="round" stroke-linejoin="round"/>
<path class="district" id="92_DaiLoc" fill-rule="evenodd" clip-rule="evenodd" d="M352.239 89.0886L345.948 90.1373L338.609 97.478H333.366L329.172 101.673L328.124 106.916L317.639 115.305L319.736 122.646L313.445 128.938L311.348 127.89L305.058 134.182L304.009 133.133L288.282 138.376L284.088 135.23L279.894 136.279L271.506 129.987H256.828L255.779 123.695L254.731 121.598H252.634L251.585 118.452L252.634 116.354L247.391 109.013L244.246 106.916L241.101 109.013L237.955 104.819L236.907 105.867L239.004 102.721V98.5267L235.858 99.5754L233.761 97.478H230.616L229.567 95.3807L227.47 96.4294L228.519 92.2347L231.664 90.1373L230.616 85.9426L237.955 82.7966V79.6506L240.052 78.6019V64.9691L244.246 60.7744V54.4824L249.488 52.385L254.731 55.5311H258.925L265.215 61.8231L273.603 62.8718L276.749 60.7744V57.6284L278.846 59.7258L290.379 56.5797L293.524 59.7258H298.767L318.688 53.4337H326.027V55.5311L333.366 57.6284L343.851 48.1903L355.384 55.5311L360.627 54.4824V56.5797L353.287 61.8231L355.384 64.9691V70.2125L353.287 69.1638V74.4072L355.384 77.5532L354.336 78.6019L358.53 81.7479L357.481 89.0886L353.287 90.1373L352.239 89.0886Z" fill="#49E830" fill-opacity="0.5" stroke="#0000FF" stroke-opacity="0.4" stroke-linecap="round" stroke-linejoin="round"/>
<path class="district" id="92_DongGiang" fill-rule="evenodd" clip-rule="evenodd" d="M145.689 119.5L151.98 113.208L147.786 109.013L154.077 106.916L151.98 99.5754L153.029 94.332L155.126 92.2347L147.786 80.6993V74.4072L144.641 73.3585L146.738 70.2125L154.077 66.0178L155.126 59.7258H153.029V57.6284L156.174 54.4824L154.077 53.4337L155.126 41.8983L162.465 30.3629L167.707 27.2169L168.756 24.0708H170.853L171.901 19.8761H173.998L180.289 28.2655L190.774 29.3142L198.113 23.0222V15.6814L211.743 7.29205H214.889L216.986 3.09735L215.937 1L219.083 3.09735L220.131 1L228.519 6.24337H239.004L242.149 3.09735H249.488L254.731 7.29205L261.022 8.34072L265.215 13.5841L270.458 9.3894L287.233 2.04867L286.185 12.5354L291.427 19.8761L296.67 23.0222L295.621 32.4602L285.136 40.8496L286.185 43.9957H284.088L283.04 48.1904L296.67 59.7258L290.379 56.5797L287.233 58.6771L279.894 59.7258L276.749 57.6284L275.7 61.8231L270.458 62.8718L265.215 61.8231L256.828 54.4824L254.731 55.5311L249.488 52.385L246.343 53.4337L244.246 54.4824V60.7744L240.052 64.9691V78.6019L236.907 83.8453L229.567 85.9426L231.664 89.0887L226.422 96.4294H222.228L216.986 100.624H210.695L208.598 103.77H202.307L201.259 109.013L192.871 116.354L185.531 115.306L181.338 117.403L175.047 115.306L172.95 120.549L169.804 122.646L161.417 123.695L148.835 119.5H145.689Z" fill="#30E886" fill-opacity="0.5" stroke="#0000FF" stroke-opacity="0.4" stroke-linecap="round" stroke-linejoin="round"/>
<path class="district" id="92_DuyXuyen" fill-rule="evenodd" clip-rule="evenodd" d="M406.759 99.5754V105.867L402.566 110.062L404.663 119.5H402.566L398.372 124.744H395.226L393.129 127.89L385.79 132.084L382.645 131.036L381.596 127.89L376.354 128.938L374.257 133.133L369.014 134.182L366.917 141.522L356.433 135.23L354.336 132.084L346.996 131.036L339.657 134.182L331.269 132.084L332.318 129.987L330.221 123.695L327.075 121.598L322.882 122.646L317.639 117.403V115.305L328.124 106.916L330.221 100.624L333.366 97.478H337.56L348.045 89.0886L353.287 90.1373L357.481 89.0886L360.627 85.9426L366.917 94.332H379.499L387.887 90.1373L391.032 91.186L393.129 88.04L396.275 91.186L394.178 93.2833L396.275 95.3807L400.469 90.1373V84.8939L409.905 79.6506H419.341L418.293 82.7966L424.584 84.8939L427.729 82.7966L436.117 81.7479L443.456 83.8453L450.795 78.6019H457.086V89.0886L460.232 99.5754L457.086 100.624L454.989 103.77L451.844 97.478L452.892 96.4294L449.747 94.332L446.602 98.5267L444.505 95.3807L440.311 97.478L432.971 95.3807L428.777 97.478L429.826 98.5267L427.729 102.721L424.584 99.5754L419.341 97.478L417.244 98.5267V96.4294L414.099 95.3807L413.05 97.478L410.953 95.3807L407.808 98.5267L406.759 99.5754Z" fill="#30DCE8" fill-opacity="0.5" stroke="#0000FF" stroke-opacity="0.4" stroke-linecap="round" stroke-linejoin="round"/>
<path class="district" id="92_HiepDuc" fill-rule="evenodd" clip-rule="evenodd" d="M340.706 264.217L335.463 268.412L329.172 267.363L324.978 263.169H317.639L308.203 254.779L306.106 246.39L298.767 238L299.815 235.903L297.718 231.708L304.009 227.514L300.864 220.173L298.767 219.124L299.815 214.93L298.767 212.832L292.476 210.735L289.33 204.443L284.088 203.394L283.04 201.297L291.427 198.151L294.573 192.907L305.057 183.469L317.639 178.226H321.833L340.706 168.788L344.899 170.885L348.045 168.788L351.19 169.837L361.675 178.226L385.79 177.177L386.838 179.275L387.887 177.177H391.032V180.323L395.226 183.469H399.42L400.469 185.567L399.42 189.761L393.129 192.907V195.005L385.79 198.151L386.838 201.297L380.548 204.443L381.596 205.491L379.499 211.784L381.596 214.93L382.645 213.881V215.978L383.693 214.93L385.79 222.27L384.742 223.319L385.79 225.416H387.887L386.838 227.514L383.693 229.611L381.596 227.514L367.966 223.319V226.465L364.82 227.514L358.53 223.319H354.336L351.19 229.611L352.239 231.708L360.627 235.903L359.578 245.341L353.287 250.584L354.336 251.633L349.093 254.779L345.948 251.633L343.851 252.682L338.609 261.071L339.657 264.217H340.706Z" fill="#306EE8" fill-opacity="0.5" stroke="#0000FF" stroke-opacity="0.4" stroke-linecap="round" stroke-linejoin="round"/>
<path class="district" id="92_NamGiang" fill-rule="evenodd" clip-rule="evenodd" d="M237.955 198.151L234.81 197.102V193.956H219.083L218.034 196.053L211.743 198.151L208.598 196.053L196.016 202.345L193.919 201.297L192.871 203.394L186.58 201.297V206.54L189.725 214.93L188.677 213.881L187.628 215.978L190.774 220.173L188.677 223.319L189.725 227.514L186.58 230.66L190.774 232.757L185.531 239.049L186.58 240.098L182.386 242.195L179.241 252.682L180.289 258.974L176.095 263.169L172.95 271.558L170.853 266.315L165.61 263.169L164.562 258.974L159.32 260.023L150.932 256.876L149.883 260.023H145.689L138.35 267.363H136.253L128.914 263.169H122.623V261.071L118.429 258.974L121.575 248.487L117.381 235.903H111.09L108.993 233.806L102.702 234.854L104.799 230.66L100.605 226.465H96.4112L94.3142 224.368H86.9749L84.8779 226.465L85.9264 229.611H80.684L78.5871 227.514L77.5386 229.611L71.2478 227.514L66.0054 228.562V221.222L62.86 210.735L59.7146 207.589V198.151L51.3268 196.053L53.4237 193.956L52.3752 192.907L55.5207 190.81L54.4722 185.567L51.3268 184.518L52.3752 181.372L48.1813 177.177H32.4542L26.1634 172.983L25.1149 168.788L27.2119 166.691L21.9695 164.593L26.1634 154.106V144.668H24.0664V142.571L21.9695 141.522L23.018 140.474L18.8241 137.328L17.7756 138.376L15.6786 134.182L19.8725 135.23L23.018 131.036L26.1634 133.133H36.6481L37.6966 129.987L39.7936 128.938L38.7451 127.89L43.9874 125.792L53.4237 129.987V135.23L56.5691 132.084L60.763 136.279H64.9569L69.1508 132.084L74.3932 129.987L81.7325 132.084L92.2173 127.89L97.4596 119.5L113.187 121.598L115.284 119.5L117.381 120.549L120.526 117.403L127.865 115.305L129.962 119.5H136.253L137.302 117.403L142.544 116.354L145.689 119.5L159.32 123.695L169.804 122.646L172.95 120.549L175.047 115.305L181.338 117.403L185.531 115.305L192.871 116.354L198.113 112.159L203.356 103.77H208.598L210.695 100.624H216.986L222.228 96.4293L229.567 95.3807L235.858 99.5754L237.955 98.5267L239.004 101.673L236.907 105.867L237.955 104.819L241.101 109.013L244.246 106.916L252.634 116.354V121.598H254.731L255.779 128.938L258.925 131.036L259.973 134.182L257.876 141.522L255.779 142.571V145.717H253.682L251.585 148.863L249.488 147.814L246.343 150.96H242.149L240.052 153.058L246.343 158.301V160.398L251.585 166.691H254.731L257.876 172.983V178.226L255.779 182.421H253.682L250.537 189.761L252.634 192.907L246.343 196.053V200.248L248.44 203.394L244.246 202.345L240.052 198.151H237.955Z" fill="#6130E8" fill-opacity="0.5" stroke="#0000FF" stroke-opacity="0.4" stroke-linecap="round" stroke-linejoin="round"/>
<path class="district" id="92_NamTraMy" fill-rule="evenodd" clip-rule="evenodd" d="M401.517 383.766L399.42 389.009L392.081 393.204L395.226 398.448L393.129 403.691V405.788L395.226 406.837L393.129 411.032H382.645L379.499 406.837L376.354 407.886L373.208 402.642L367.966 399.496H364.821L360.627 403.691L358.53 406.837L360.627 408.934L359.578 423.616L361.675 424.664L364.821 434.102L359.578 438.297L353.287 440.395L349.093 439.346L343.851 442.492L336.512 443.541L335.463 438.297L327.075 436.2L320.785 426.762L309.251 422.567L306.106 424.664L304.009 422.567L299.815 424.664L295.621 420.47L291.427 419.421L292.476 418.372L287.233 411.032L285.136 400.545L293.524 396.35V391.107L296.67 389.009L302.961 376.425L301.912 373.279L304.009 366.987L302.961 361.744L284.088 354.403L283.04 350.209L276.749 347.063L277.797 344.965L274.652 340.77V336.576L278.846 332.381L277.797 329.235L279.894 322.943L281.991 321.894L280.943 312.456L278.846 310.359L279.894 308.262L283.04 306.164L284.088 307.213L296.67 305.116L302.961 300.921L305.057 303.018V299.872L310.3 301.97L311.348 300.921L314.494 305.116H317.639L320.785 300.921L323.93 299.872L328.124 301.97L332.318 300.921V304.067L338.609 313.505L337.56 314.554L340.706 317.7V319.797L345.948 323.992L344.9 325.04L346.996 327.138V332.381L349.093 335.527L348.045 336.576L350.142 335.527L352.239 338.673H356.433L375.305 355.452L379.499 350.209L382.645 349.16V346.014L384.742 352.306H386.838L387.887 354.403L385.79 356.501L384.742 363.841L391.032 372.231L401.517 376.425V382.717V383.766Z" fill="#D030E8" fill-opacity="0.5" stroke="#0000FF" stroke-opacity="0.4" stroke-linecap="round" stroke-linejoin="round"/>
<path class="district" id="92_NongSon" fill-rule="evenodd" clip-rule="evenodd" d="M363.772 150.96L344.9 170.885L340.706 168.788L321.833 178.226H317.639L304.009 184.518L294.573 192.907L291.427 198.151L283.04 201.297H276.749L270.458 205.491L271.506 207.589L266.264 211.784V209.686L262.07 206.54L250.537 210.735L248.44 206.54H246.343L248.44 203.394L246.343 200.248V196.053L252.634 192.907L251.585 186.615L253.682 182.421H255.779L257.876 179.275V172.983L254.731 166.691L247.391 162.496L246.343 158.301L240.052 153.058L256.828 144.668L255.779 143.62L257.876 141.522L259.973 134.182L258.925 132.084L263.119 128.938L270.458 131.036L271.506 129.987L279.894 136.279L284.088 135.23L290.379 138.376L291.427 136.279H297.718L304.009 133.133L305.057 134.182L311.348 127.89L313.445 128.938L319.736 122.646V120.549L322.882 122.646L327.075 121.598L330.221 123.695L329.172 126.841L332.318 129.987L331.269 132.084L337.56 134.182L346.996 131.036L354.336 132.084L356.433 135.23L366.917 141.522V144.668L363.772 148.863V150.96Z" fill="#E83092" fill-opacity="0.5" stroke="#0000FF" stroke-opacity="0.4" stroke-linecap="round" stroke-linejoin="round"/>
<g class="district" id="92_NuiThanh">
<path fill-rule="evenodd" clip-rule="evenodd" d="M521.043 288.337L516.849 291.483L510.558 290.434L503.219 296.726H499.025L495.88 294.629L489.589 300.921L486.443 301.97L485.395 299.872H470.716L468.619 298.824V294.629H466.522L477.007 289.385L475.959 288.337L481.201 280.996V271.558L475.959 261.071L473.862 258.974H469.668L466.522 254.779L463.377 248.487L464.426 244.292L468.619 242.195H479.104L481.201 243.244V245.341L482.25 244.292L484.347 246.39L485.395 243.244L482.25 240.098L483.298 239.049H481.201L483.298 236.952L482.25 233.806L487.492 235.903L489.589 232.757L493.783 230.66L494.831 231.708L496.928 229.611L493.783 227.514L495.88 225.416L494.831 224.368L491.686 225.416L486.443 223.319L487.492 217.027L492.734 213.881L491.686 211.784L493.783 205.491L501.122 204.443L503.219 201.297L502.171 199.199L504.268 198.151L507.413 200.248L511.607 196.053L509.51 192.907L511.607 191.859H515.801L538.867 220.173L547.255 225.416L557.74 226.465L560.885 222.27L559.837 220.173L561.934 221.222L562.982 223.319L560.885 224.368L559.837 231.708L562.982 234.854L564.031 231.708L567.176 232.757V236.952L570.321 242.195L568.224 245.341V249.536L585 266.315L574.515 276.801L570.321 275.753L569.273 277.85H560.885L558.788 279.947L555.643 277.85H548.303L544.11 282.045L533.625 284.142L532.576 287.288L528.382 286.239L526.285 288.337H522.092H521.043Z" fill="#E83D30" fill-opacity="0.5"/>
<path d="M566.128 225.416H565.079M565.079 224.368V223.319M521.043 288.337L516.849 291.483L510.558 290.434L503.219 296.726H499.025L495.88 294.629L489.589 300.921L486.443 301.97L485.395 299.872H470.716L468.619 298.824V294.629H466.522L477.007 289.385L475.959 288.337L481.201 280.996V271.558L475.959 261.071L473.862 258.974H469.668L466.522 254.779L463.377 248.487L464.426 244.292L468.619 242.195H479.104L481.201 243.244V245.341L482.25 244.292L484.347 246.39L485.395 243.244L482.25 240.098L483.298 239.049H481.201L483.298 236.952L482.25 233.806L487.492 235.903L489.589 232.757L493.783 230.66L494.831 231.708L496.928 229.611L493.783 227.514L495.88 225.416L494.831 224.368L491.686 225.416L486.443 223.319L487.492 217.027L492.734 213.881L491.686 211.784L493.783 205.491L501.122 204.443L503.219 201.297L502.171 199.199L504.268 198.151L507.413 200.248L511.607 196.053L509.51 192.907L511.607 191.859H515.801L538.867 220.173L547.255 225.416L557.74 226.465L560.885 222.27L559.837 220.173L561.934 221.222L562.982 223.319L560.885 224.368L559.837 231.708L562.982 234.854L564.031 231.708L567.176 232.757V236.952L570.321 242.195L568.224 245.341V249.536L585 266.315L574.515 276.801L570.321 275.753L569.273 277.85H560.885L558.788 279.947L555.643 277.85H548.303L544.11 282.045L533.625 284.142L532.576 287.288L528.382 286.239L526.285 288.337H522.092H521.043Z" stroke="#0000FF" stroke-opacity="0.4" stroke-linecap="round" stroke-linejoin="round"/>
</g>
<path class="district" id="92_PhuNinh" fill-rule="evenodd" clip-rule="evenodd" d="M480.153 266.315L471.765 268.412L447.65 267.363L444.504 260.023L445.553 256.877H447.65L445.553 255.828L447.65 252.682L445.553 251.633L452.892 238L446.601 222.27L447.65 219.124L443.456 215.978L444.504 208.638L443.456 206.54L437.165 207.589L434.02 205.491L431.923 206.54L425.632 204.443V201.297L423.535 199.199H425.632L428.777 195.005L425.632 190.81L429.826 185.567L437.165 183.469L439.262 184.518L445.553 181.372L446.601 183.469H448.698L450.795 181.372L451.844 176.129L456.038 174.031L457.086 175.08L461.28 172.983V177.177L465.474 178.226L471.765 175.08L475.959 183.469L480.153 185.567L472.813 203.394L474.91 205.491L475.959 204.443L477.007 206.54L482.25 207.589V213.881L484.346 217.027L483.298 219.124L485.395 222.27L495.88 226.465L493.783 227.514L496.928 230.66L495.88 231.708L493.783 230.66L489.589 232.757L487.492 235.903L485.395 233.806H482.25L483.298 236.952L481.201 239.049H483.298L482.25 240.098L485.395 243.244L484.346 246.39L482.25 244.292L481.201 245.341V243.244L479.104 242.195H468.619L464.425 244.292V252.682L468.619 258.974L475.959 260.023L479.104 265.266L480.153 266.315Z" fill="#D147AC" fill-opacity="0.5" stroke="#0000FF" stroke-opacity="0.4" stroke-linecap="round" stroke-linejoin="round"/>
<path class="district" id="92_PhuocSon" fill-rule="evenodd" clip-rule="evenodd" d="M274.652 340.77L269.409 339.722L268.361 341.819H265.215L261.022 347.063L253.682 340.77L240.052 341.819L234.81 338.673L227.47 339.722L225.373 337.624H218.034L214.889 335.527V333.43L209.646 330.284L207.549 332.381H201.259V330.284H203.355L200.21 323.992L198.113 309.31V304.067L200.21 303.018L193.919 301.97L190.774 304.067L182.386 294.629L180.289 289.385L176.095 287.288L173.998 284.142L172.95 276.801V271.558L180.289 256.877L179.241 255.828L181.338 244.292L190.774 232.757L186.58 230.66L189.725 227.514L188.677 223.319L190.774 220.173L187.628 215.978L188.677 213.881L189.725 214.93L186.58 202.345L192.871 203.394L193.919 201.297H198.113L207.549 196.053L211.743 198.151L218.034 196.053V193.956H234.81V197.102L240.052 198.151L244.246 202.345L248.44 203.394L246.343 206.54H248.44L250.537 210.735H253.682L256.828 207.589L262.07 206.54L266.264 209.686V211.784L269.409 208.638L270.458 209.686V205.491L280.943 200.248L284.088 203.394L289.33 204.443L292.476 210.735L298.767 212.832V219.124L304.009 225.416V227.514L297.718 231.708L299.815 235.903L298.767 238L304.009 243.244L308.203 250.584V253.731L311.348 256.877L309.251 257.925L310.3 266.315L309.251 268.412H307.154V271.558L310.3 273.655L309.251 275.753L302.961 277.85L300.864 276.801L297.718 278.899H285.136V288.337L289.33 295.677L281.991 301.97L283.039 305.116L278.846 310.359L280.943 312.456L279.894 314.554L283.039 321.894L279.894 322.943L277.797 328.186L278.846 332.381L274.652 336.576L275.7 339.722L274.652 340.77Z" fill="#D1475A" fill-opacity="0.5" stroke="#0000FF" stroke-opacity="0.4" stroke-linecap="round" stroke-linejoin="round"/>
<path class="district" id="92_QueSon" fill-rule="evenodd" clip-rule="evenodd" d="M385.79 177.177L361.675 178.226L357.481 176.129L352.239 169.837L348.045 168.788L363.772 150.96L366.917 144.668L369.014 134.182L374.257 133.133L377.402 127.89H381.596L382.645 131.036L385.79 132.084L404.663 119.5L402.566 110.062L406.759 105.867V100.624L410.953 95.3807L413.05 97.478L414.099 95.3807H417.244V97.478L424.584 99.5754L427.729 102.721L428.777 100.624L434.02 107.965L437.165 116.354L435.068 120.549V118.451L430.874 120.549V124.744L426.68 132.084V138.376L423.535 145.717L420.39 148.863L416.196 144.668V146.766L412.002 145.717L407.808 147.814L409.905 153.058L412.002 152.009L413.05 154.106L404.663 159.35L401.517 162.496V164.593H398.372V167.739H395.226V170.885L389.984 172.983L388.935 176.129L385.79 177.177Z" fill="#D18847" fill-opacity="0.5" stroke="#0000FF" stroke-opacity="0.4" stroke-linecap="round" stroke-linejoin="round"/>
<path class="district" id="92_TayGiang" fill-rule="evenodd" clip-rule="evenodd" d="M2.04847 131.036L4.14542 116.354L7.29084 113.208L8.33932 114.257V105.867L1 96.4293L5.1939 95.3807V93.2833L9.38779 90.1373L14.6302 92.2346L18.8241 88.0399L24.0664 86.9913V83.8452L26.1634 82.7966L29.3088 83.8452L34.5512 79.6505L36.6481 81.7479L40.842 79.6505L41.8905 74.4072L49.2298 71.2611L61.8115 70.2125L66.0054 73.3585L73.3447 70.2125V68.1151H75.4417V66.0178L80.684 59.7257V56.5797L83.8295 55.531L85.9264 45.0443L91.1688 35.6062L90.1203 32.4602L93.2657 31.4115L98.5081 18.8274L102.702 13.5841L106.896 11.4867L113.187 15.6814L115.284 20.9248L131.011 23.0221L135.205 18.8274V15.6814L132.059 11.4867L136.253 7.29202L149.883 5.19467L157.223 2.04865L159.32 5.19467L157.223 14.6327L165.61 16.7301L168.756 19.8761H171.901L170.853 24.0708H168.756L167.707 27.2168L162.465 30.3628L155.126 41.8983L154.077 52.385L156.174 53.4337L153.029 57.6284V59.7257H155.126L154.077 66.0178L146.738 70.2125L144.641 73.3585L147.786 74.4072L148.835 82.7966L155.126 92.2346L153.029 94.332L151.98 99.5753L154.077 106.916L147.786 109.013L151.98 113.208L145.689 119.5L142.544 116.354L132.059 119.5H129.962L127.865 116.354H124.72L119.478 118.451L118.429 120.549L115.284 119.5L113.187 121.598L98.5081 119.5L94.3142 123.695L93.2657 127.89L81.7325 132.084H77.5386L74.3932 129.987L68.1023 133.133L66.0054 136.279H60.763L57.6176 132.084L54.4722 135.23L53.4237 129.987H51.3268L49.2298 126.841L47.1329 127.89L43.9874 125.792L38.7451 126.841L36.6481 133.133H27.2119L23.018 131.036L19.8725 135.23H16.7271L17.7756 132.084L15.6786 128.938L2.04847 131.036Z" fill="#B7E830" fill-opacity="0.5" stroke="#0000FF" stroke-opacity="0.4" stroke-linecap="round" stroke-linejoin="round"/>
<path class="district" id="92_ThangBinh" fill-rule="evenodd" clip-rule="evenodd" d="M403.614 188.713L399.42 189.761V183.469L393.129 182.421L391.032 178.226L385.79 177.177L388.935 176.129L389.984 172.983L395.226 170.885L394.178 168.788L397.323 167.739V164.593H401.517V162.496L404.663 159.35L413.05 154.106L412.002 152.009H408.856L407.808 147.814L412.002 145.717L416.196 146.766V144.668L419.341 148.863L423.535 146.766L426.681 139.425L425.632 134.182L430.874 124.744V120.549L435.068 118.452V120.549L437.165 117.403L434.02 107.965L428.777 100.624V97.478L432.971 95.3807L440.311 97.478L444.505 95.3807L446.602 98.5267L449.747 94.332L454.989 102.721L460.232 99.5754L467.571 117.403L499.025 168.788L489.589 174.031L487.492 171.934L479.104 174.031L471.765 172.983V175.08L468.619 176.129L469.668 177.177L467.571 178.226L462.329 177.177L461.28 172.983L457.086 175.08L456.038 174.031L452.892 176.129L448.698 183.469H446.602L445.553 181.372L440.311 184.518L438.214 183.469L430.874 185.567L425.632 190.81H421.438L418.293 192.907L415.147 191.859L414.099 184.518L408.856 185.567L406.759 187.664L403.614 188.713Z" fill="#49E830" fill-opacity="0.5" stroke="#0000FF" stroke-opacity="0.4" stroke-linecap="round" stroke-linejoin="round"/>
<path class="district" id="92_TienPhuoc" fill-rule="evenodd" clip-rule="evenodd" d="M447.65 267.363L446.601 270.509L439.262 272.607L431.923 265.266L424.583 267.363L423.535 265.266L415.147 264.217L402.566 267.363L394.178 266.315L392.081 269.461L387.887 270.509L377.402 269.461L374.257 273.655H369.014L360.627 267.363L356.433 258.974L358.53 253.73L354.336 252.682L353.287 250.584L359.578 245.341L360.627 236.952L355.384 231.708L351.19 230.66L353.287 225.416L358.53 223.319L364.82 227.514L367.966 226.465V223.319L381.596 227.514L383.693 229.611L386.838 227.514L387.887 225.416H385.79L384.741 223.319L385.79 222.27L383.693 214.93L382.645 215.978V213.881L381.596 214.93L379.499 212.832L381.596 206.54L380.548 204.443L386.838 200.248L385.79 198.151L393.129 195.005V192.907L396.275 190.81L402.566 189.761L408.856 185.567L414.099 184.518L415.147 190.81L417.244 192.907L421.438 190.81L425.632 191.859L428.777 195.005L425.632 199.199H423.535L425.632 201.297V204.443L431.923 206.54L434.02 205.491L437.165 207.589L442.408 206.54L444.505 208.637L443.456 217.027L447.65 219.124L446.601 222.27L452.892 238L449.747 246.39L445.553 250.584L447.65 252.682L444.505 260.023L447.65 266.315V267.363Z" fill="#30E886" fill-opacity="0.5" stroke="#0000FF" stroke-opacity="0.4" stroke-linecap="round" stroke-linejoin="round"/>
</g>
</svg>
