<svg width="678" height="380" viewBox="0 0 678 380" fill="none" xmlns="http://www.w3.org/2000/svg">
<g id="15">
<g id="Group">
<path id="15_DoSon" fill-rule="evenodd" clip-rule="evenodd" d="M345.423 314.063H347.697V316.339L344.286 315.201L345.423 314.063ZM326.107 284.475L328.378 286.751L327.241 287.891L331.788 290.166L329.515 296.993L330.652 300.408H335.196L340.878 308.372L335.196 309.51L334.06 307.235L336.333 306.097L332.923 302.684H329.515L327.241 298.13L328.378 293.579L326.107 291.304L320.425 290.166L322.696 286.751L321.56 285.613L312.47 283.338L311.333 278.787L307.925 277.649L306.788 273.096L286.335 282.2L278.38 287.891L274.972 286.751V279.924L280.654 276.511L279.517 274.233L284.062 268.545L278.38 259.44V254.89L274.972 253.752L276.109 250.336L273.835 248.061L264.745 252.614L263.609 244.648L256.793 242.372L261.337 240.094H270.427L288.609 235.543L298.835 250.336L317.015 245.785L324.97 263.994L330.652 267.407L334.06 266.269L335.196 268.545L328.378 281.062L326.107 284.475Z" fill="#D147AC" fill-opacity="0.5" stroke="#0000FF" stroke-opacity="0.4" stroke-linecap="round" stroke-linejoin="round"/>
<path id="15_DuongKinh" fill-rule="evenodd" clip-rule="evenodd" d="M301.107 218.474V220.75L310.199 225.302L317.015 245.785L298.835 250.336L288.609 235.543L270.427 240.094H253.382L254.519 235.543L253.382 236.681L249.974 234.406L248.837 228.717H252.245L256.793 213.922L255.656 207.095L253.382 205.957L242.019 208.233H227.248V210.508L222.702 213.922H215.885L213.612 212.784L215.885 209.37L207.93 201.405V199.129L210.203 194.577L215.885 195.715L217.021 185.473L219.293 186.611L221.566 184.336L228.384 186.611L231.792 185.473V183.198L243.156 184.336L246.564 180.922L247.701 172.956H249.974L253.382 175.232V187.749L255.656 191.163L263.609 196.853L276.109 201.405L278.38 204.819V213.922L280.654 218.474L286.335 220.75H293.154L301.107 218.474Z" fill="#D1475A" fill-opacity="0.5" stroke="#0000FF" stroke-opacity="0.4" stroke-linecap="round" stroke-linejoin="round"/>
<path id="15_HaiAn" fill-rule="evenodd" clip-rule="evenodd" d="M314.743 202.543L309.062 201.405L303.38 207.095V216.198L293.154 220.75H286.335L279.517 217.336L278.38 204.819L276.109 201.405L272.701 199.129H268.154L255.656 191.163L253.382 187.749V175.232L249.974 172.956V170.68L256.793 159.3L255.656 158.162L260.201 155.886L257.927 150.197L263.609 147.921L261.337 141.093L267.019 142.231L269.29 138.817L272.701 141.093L276.109 138.817L278.38 139.955L281.79 133.127L289.743 127.438H294.29L297.699 141.093L307.925 157.024L317.015 166.128L323.833 169.542L347.697 171.818L361.331 186.611L353.378 187.749L352.241 190.025V205.957L314.743 202.543Z" fill="#D18847" fill-opacity="0.5" stroke="#0000FF" stroke-opacity="0.4" stroke-linecap="round" stroke-linejoin="round"/>
<path id="15_HongBang" fill-rule="evenodd" clip-rule="evenodd" d="M222.702 150.197H218.157L217.021 142.231L207.93 144.507L203.385 139.955H193.159L192.022 136.541L187.477 134.265L186.341 127.438L176.114 124.024L173.841 122.886V120.61L171.569 121.748L170.432 119.472L167.024 118.334L168.16 113.782L171.569 109.23L173.841 110.368V113.782H176.114L179.523 117.196L180.659 114.92L184.068 117.196L185.205 122.886L187.477 125.162L218.157 127.438L230.656 136.541H240.882V143.369L237.474 147.921L222.702 150.197Z" fill="#B7E830" fill-opacity="0.5" stroke="#0000FF" stroke-opacity="0.4" stroke-linecap="round" stroke-linejoin="round"/>
<path id="15_KienAn" fill-rule="evenodd" clip-rule="evenodd" d="M212.476 220.75L209.067 225.302H205.658L203.385 224.164V219.612L198.84 218.474L197.704 212.784L194.295 213.922L192.022 219.612V213.922L187.477 212.784V218.474L182.932 221.888L179.523 219.612L181.796 210.508L173.841 204.819L176.114 203.681L174.978 201.405L170.432 197.991L164.751 202.543L163.615 201.405L181.796 183.198H186.341L203.385 171.818H206.794L211.339 175.232L213.612 174.094L214.748 170.68L209.067 164.99L211.339 159.3H215.885L221.566 163.852L226.111 172.956V179.784L231.792 183.198V185.473L229.521 186.611L221.566 184.336L219.293 186.611L217.021 185.473L215.885 195.715L210.203 194.577L207.93 199.129V201.405L215.885 209.37L213.612 212.784L215.885 213.922L214.748 215.06L218.157 220.75L217.021 221.888L213.612 219.612L212.476 220.75Z" fill="#49E830" fill-opacity="0.5" stroke="#0000FF" stroke-opacity="0.4" stroke-linecap="round" stroke-linejoin="round"/>
<path id="15_LeChan" fill-rule="evenodd" clip-rule="evenodd" d="M223.839 167.266L215.885 159.3L220.43 151.335L234.066 147.921L240.882 153.61L244.292 159.3L243.156 161.576L247.701 164.99L245.429 170.68L247.701 172.956L246.564 180.922L243.156 184.336L231.792 183.198L227.248 180.922L226.111 172.956L223.839 167.266Z" fill="#30E886" fill-opacity="0.5" stroke="#0000FF" stroke-opacity="0.4" stroke-linecap="round" stroke-linejoin="round"/>
<path id="15_NgoQuyen" fill-rule="evenodd" clip-rule="evenodd" d="M247.701 164.99L244.292 163.852L245.429 162.714L243.156 155.886L240.882 154.748L242.019 153.61H239.748L235.203 149.059L240.882 143.369V136.541L255.656 128.576L269.29 138.817L267.019 142.231L261.337 139.955L263.609 147.921L257.927 150.197V154.748L260.201 155.886L255.656 158.162L256.793 159.3L249.974 172.956L245.429 170.68L247.701 166.128V164.99Z" fill="#30DCE8" fill-opacity="0.5" stroke="#0000FF" stroke-opacity="0.4" stroke-linecap="round" stroke-linejoin="round"/>
<path id="15_AnDuong" fill-rule="evenodd" clip-rule="evenodd" d="M181.796 183.198L157.933 176.37L153.388 153.61L149.979 152.473L138.616 155.886L136.344 149.059L132.935 146.783L127.253 150.197L123.844 149.059L126.117 143.369L123.844 136.541L126.117 135.403L128.389 129.713L124.981 127.438L121.572 128.575L124.981 122.886H119.299L118.163 120.61V117.196H120.435L121.572 114.92H118.163V109.23L114.754 108.092L113.617 104.678L107.936 102.402V95.5745H110.209V97.8505L112.481 98.9884L114.754 94.4366L120.435 89.8849L123.844 92.1606L124.981 91.0227L123.844 88.747H121.572L119.299 81.9192L121.572 78.5053L120.435 70.5395L123.844 67.1256H130.662V79.6432L136.344 80.7812L142.025 72.8155L140.889 63.7117L147.707 64.8497L149.979 71.6775L143.161 77.3673L144.298 80.7812L147.707 81.9192L152.252 80.7812L161.342 67.1256L168.16 73.9534L169.296 87.609L180.659 89.8849L186.341 93.2986L187.477 98.9884L186.341 111.506L184.068 117.196L180.659 114.92L179.523 117.196L176.114 113.782H173.841V110.368L171.569 109.23L167.024 117.196L171.569 121.748L173.841 120.61V122.886L186.341 127.438L187.477 134.265L190.886 135.403L193.159 139.955H203.385L207.93 144.507L217.021 142.231V147.921L220.43 151.335L215.885 159.3H211.339L209.067 162.714V164.99L214.748 170.68L213.612 174.094L212.476 175.232L204.522 171.818L186.341 183.198H181.796Z" fill="#306EE8" fill-opacity="0.5" stroke="#0000FF" stroke-opacity="0.4" stroke-linecap="round" stroke-linejoin="round"/>
<path id="15_AnLao" fill-rule="evenodd" clip-rule="evenodd" d="M180.659 246.923L182.932 249.199H180.659L178.387 251.474L179.523 253.752L173.841 258.303H170.432L172.705 260.578L169.296 263.994L142.025 243.51L128.389 237.819L124.98 234.406L123.844 230.992L128.389 225.302L127.253 221.888L119.299 213.922L114.754 200.267L110.209 199.129L102.255 208.233L98.8456 209.37L95.4366 207.095L92.0279 196.853L98.8456 185.473V180.922L96.573 178.646H76.1195L74.9832 176.37L81.8012 168.404L82.9375 161.576L76.1195 157.024L65.8928 145.645L70.4381 143.369L69.3018 137.679H79.5285L84.0736 144.507L85.2099 151.335L87.4826 150.197L90.8916 141.093L98.8456 143.369L105.663 142.231L104.527 151.335L107.936 152.472L113.617 145.645V139.955L119.299 136.541H123.844L126.117 143.369L123.844 149.059L124.98 150.197L132.935 146.783L136.344 149.059L138.616 155.886L149.979 152.472L152.252 153.61L157.933 176.37L181.796 183.198V185.473L163.615 201.405L164.751 202.543L170.432 197.991L174.978 201.405L176.114 202.543L173.841 204.819L181.796 210.508L179.523 219.612L182.932 221.888L185.205 220.75V224.164L187.477 225.302L188.613 228.715L196.568 232.13V235.543L194.295 236.681L195.431 238.957L198.84 240.094L196.568 243.51L195.431 241.234L185.205 244.648L184.068 242.372L181.796 243.51L182.932 246.923H180.659Z" fill="#6130E8" fill-opacity="0.5" stroke="#0000FF" stroke-opacity="0.4" stroke-linecap="round" stroke-linejoin="round"/>
<g id="15_CatHai">
<path fill-rule="evenodd" clip-rule="evenodd" d="M620.408 362.995L622.68 360.72L624.953 364.133L620.408 362.995ZM665.859 360.72L671.541 362.995L665.859 361.857V360.72ZM610.182 353.891L611.316 352.753L612.453 355.029H610.182V353.891ZM536.321 286.751L537.457 285.613V287.891L536.321 286.751ZM609.045 351.615L610.182 350.478V352.753L609.045 351.615ZM612.453 357.306L616.998 358.444L615.864 361.857L614.727 357.306L613.59 359.582L612.453 357.306ZM626.09 352.753L628.361 349.34V353.891L630.635 351.615L632.906 352.753L629.498 353.891H632.906L631.772 357.306L627.225 355.029L626.09 352.753ZM518.141 279.924H515.868L518.141 278.787V279.924ZM531.776 278.787L534.049 283.337L528.368 277.649L531.776 278.787ZM521.549 277.649L522.686 276.511V279.924L521.549 277.649ZM560.184 284.475L561.321 282.2L562.455 283.337L560.184 286.751V284.475ZM548.821 253.752L549.957 252.614L551.094 256.027L548.821 253.752ZM514.731 271.958H512.46L513.596 270.82L514.731 271.958ZM521.549 268.545L523.823 267.407L524.957 269.682H522.686L521.549 268.545ZM554.502 260.578L555.639 258.303V260.578H554.502ZM507.915 266.269L512.46 269.682H507.915V266.269ZM563.592 265.131L564.729 263.994L567.002 269.682L564.729 267.407L563.592 265.131ZM551.094 267.407V265.131L552.229 267.407H554.502L552.229 270.82L551.094 267.407ZM562.455 260.578L565.866 258.303L564.729 259.44L567.002 265.131L563.592 262.854V260.578H562.455ZM555.639 262.854L557.91 265.131L555.639 263.994V262.854ZM540.868 275.373L542.002 274.233L543.139 277.649L542.002 276.511L540.868 275.373ZM517.004 271.958L518.141 276.511H520.412L519.278 278.787L517.004 276.511L514.731 277.649V271.958H517.004ZM552.229 274.233L553.366 271.958L555.639 276.511L552.229 275.373V274.233ZM564.729 254.89L565.866 253.752L569.274 256.027V258.303H567.002V256.027L564.729 254.89ZM553.366 257.165L554.502 254.89H556.776L553.366 260.578L555.639 261.716L549.957 262.854V260.578H552.229L549.957 259.44H552.229L548.821 256.027L552.229 257.165H553.366ZM367.013 226.439L363.605 225.302L364.739 219.612L367.013 221.888V225.302V226.439ZM581.774 211.646L582.91 213.922L581.774 212.784V211.646ZM585.182 207.095L587.455 209.37L585.182 208.233V207.095ZM582.91 204.819L585.182 205.957H581.774L582.91 204.819ZM397.692 202.543L382.921 205.957H352.241L351.105 193.439L353.378 187.749L361.331 186.611L394.284 167.266L395.421 175.232V172.956L401.103 176.37L403.374 180.922L409.055 184.336L417.011 193.439H419.282V195.715L415.874 199.129L404.511 203.681H401.103L398.829 201.405L397.692 202.543ZM584.045 191.163L585.182 192.301L581.774 194.577L584.045 191.163ZM581.774 187.749H584.045L585.182 190.025L581.774 187.749ZM557.91 176.37V178.646L556.776 176.37H557.91ZM482.915 137.679L480.643 136.541L481.78 135.403L482.915 137.679ZM487.459 138.817L488.596 141.093H484.051V138.817H487.459ZM464.735 137.679H467.006L464.735 139.955V135.403V137.679ZM449.961 135.403L451.098 133.127L453.372 138.817L449.961 135.403ZM455.643 135.403H452.235H454.509V133.127L455.643 134.265V135.403ZM456.78 129.713L455.643 127.438L457.917 129.713H456.78ZM549.957 171.818L551.094 174.094L548.821 172.956L549.957 171.818ZM553.366 170.68L554.502 171.818L552.229 172.956V170.68H553.366ZM442.009 174.094L445.417 177.508L446.553 182.06L440.872 191.163L442.009 195.715L436.327 197.991L434.053 196.853L432.919 191.163L427.237 183.198L430.645 177.508L431.782 178.646V176.37L442.009 172.956V174.094ZM549.957 186.611V188.887L548.821 186.611H549.957ZM447.69 177.508L449.961 176.37V182.06H447.69L445.417 177.508H447.69ZM445.417 170.68L451.098 171.818L447.69 174.094L446.553 172.956V175.232L448.827 176.37L447.69 177.508H443.145L442.009 172.956L445.417 170.68ZM559.047 172.956L561.321 175.232L560.184 174.094L553.366 177.508V175.232L555.639 176.37L556.776 174.094L559.047 172.956ZM539.731 159.3L542.002 162.714L540.868 163.852V160.438L539.731 159.3ZM485.188 155.886L484.051 154.748H486.325L485.188 155.886ZM439.735 153.61L444.282 159.3V157.024H447.69L453.372 158.162L455.643 162.714L454.509 167.266L449.961 170.68L445.417 169.542L442.009 171.818L432.919 174.094L426.1 179.784L421.556 174.094L436.327 153.61H439.735ZM451.098 151.335L454.509 155.886L452.235 157.024V152.473L451.098 151.335ZM502.233 145.645L498.823 143.369L502.233 144.507V145.645ZM464.735 142.231L467.006 144.507H464.735V146.783L462.462 145.645L463.598 139.955L464.735 142.231ZM465.872 129.713L471.551 131.989L469.28 133.127L472.688 135.403L473.825 133.127L476.098 137.679L478.37 134.265L479.506 135.403L477.233 139.955H479.506V142.231H477.233L476.098 144.507L473.825 143.369L474.962 142.231H471.551V145.645H468.143L469.28 143.369L465.872 141.093L469.28 139.955L468.143 135.403L470.417 136.541L467.006 129.713V133.127L464.735 130.851V128.575L465.872 129.713ZM565.866 233.268L567.002 234.406L564.729 233.268H565.866ZM560.184 248.061L564.729 250.336L563.592 251.474L560.184 249.199V248.061ZM512.46 250.336L510.186 252.614L509.049 251.474L511.323 248.061L513.596 249.199L512.46 250.336ZM547.684 249.199V246.923H552.229L551.094 249.199H548.821H547.684ZM564.729 242.372L570.41 244.648L567.002 245.785L563.592 243.51L564.729 242.372ZM502.233 242.372L495.415 243.51L498.823 250.336H496.551L499.959 257.165L498.823 261.716L494.278 250.336V245.785L490.87 248.061L493.141 249.199V251.474L489.733 250.336V253.752L487.459 245.785L485.188 248.061L482.915 242.372L472.688 236.681V233.268L474.962 235.543H479.506L478.37 227.577L473.825 225.302L474.962 221.888L471.551 219.612L472.688 217.336L470.417 216.198L468.143 218.474L467.006 212.784L459.053 204.819L460.19 203.681L431.782 200.267V194.577L435.19 197.991L444.282 200.267L448.827 199.129L439.735 197.991L442.009 195.715V191.163L445.417 187.749L444.282 183.198L452.235 182.06V185.473L456.78 191.163L454.509 187.749V185.473H456.78L454.509 183.198L456.78 182.06L453.372 180.922L456.78 179.784L454.509 174.094L456.78 171.818L454.509 169.542L451.098 176.37L447.69 175.232L452.235 172.956L451.098 170.68L455.643 168.404L459.053 159.3L457.917 154.748L456.78 158.162L454.509 157.024L457.917 153.61L459.053 145.645L456.78 143.369H452.235V138.817L454.509 139.955L455.643 137.679H459.053V128.575L462.462 133.127L459.053 143.369L462.462 144.507L461.325 149.059H465.872L464.735 155.886L467.006 154.748L465.872 153.61H468.143L465.872 150.197H469.28V147.921H474.962L479.506 153.61V149.059H481.78V146.783L482.915 149.059L484.051 146.783L481.78 154.748V157.024H484.051L487.459 154.748L486.325 152.473L488.596 151.335L486.325 150.197V146.783L489.733 145.645L492.006 147.921H496.551L490.87 144.507L494.278 143.369L502.233 149.059L498.823 158.162L502.233 155.886L503.37 151.335L507.915 162.714H512.46L509.049 161.576L507.915 158.162L510.186 155.886H507.915L505.641 150.197L507.915 147.921L509.049 150.197L510.186 149.059L505.641 144.507L512.46 143.369V145.645L515.868 146.783L513.596 143.369L515.868 144.507L518.141 142.231L517.004 145.645L519.278 147.921V142.231L521.549 144.507V142.231L524.957 144.507L527.231 142.231V144.507L529.504 145.645V143.369V151.335L531.776 149.059L532.913 153.61L535.186 152.473V155.886L537.457 154.748V161.576L535.186 163.852L534.049 171.818L535.186 174.094L532.913 172.956V175.232H535.186L537.457 178.646V184.336L542.002 186.611L537.457 180.922L544.276 177.508V175.232L542.002 178.646L537.457 172.956L539.731 166.128V175.232L544.276 171.818V169.542H549.957L545.413 171.818L548.821 174.094L546.547 175.232V178.646L551.094 177.508L548.821 179.784V183.198L553.366 182.06L551.094 180.922V178.646L554.502 179.784L555.639 183.198L552.229 186.611H555.639L557.91 188.887L556.776 186.611L560.184 180.922L559.047 178.646H562.455H567.002L564.729 182.06L565.866 179.784L567.002 182.06L569.274 180.922L570.41 183.198H573.818L572.684 184.336L574.955 191.163H577.229L576.092 190.025L578.366 188.887L582.91 192.301L580.637 191.163L581.774 194.577L579.5 197.991L582.91 195.715L584.045 196.853L585.182 192.301L587.455 195.715L586.319 197.991L588.592 199.129L589.727 203.681L587.455 204.819H589.727L587.455 209.37L588.592 207.095H586.319V201.405V203.681H582.91L581.774 201.405L579.5 204.819V201.405L571.547 197.991H573.818L571.547 195.715H574.955L572.684 192.301L570.41 195.715L568.137 194.577V196.853L564.729 192.301L563.592 193.439L569.274 197.991L567.002 200.267L570.41 199.129L569.274 200.267L573.818 201.405L574.955 203.681L577.229 201.405L576.092 203.681L578.366 204.819L577.229 207.095L576.092 205.957L577.229 208.233H579.5L577.229 209.37L582.91 216.198L581.774 217.336L579.5 213.922L577.229 215.06L574.955 216.198L576.092 219.612L573.818 216.198H571.547V218.474L569.274 217.336V215.06H567.002L569.274 213.922L567.002 211.646H569.274L570.41 208.233L569.274 207.095L568.137 209.37H565.866L562.455 207.095L563.592 209.37H565.866V211.646L564.729 210.508L567.002 212.784H563.592L565.866 215.06L562.455 212.784L563.592 210.508L560.184 208.233L561.321 205.957L560.184 204.819V208.233L552.229 195.715L554.502 194.577L551.094 191.163V184.336L547.684 183.198V185.473H545.413V180.922L543.139 179.784V182.06H540.868L544.276 185.473L543.139 187.749L548.821 191.163L551.094 195.715L549.957 197.991L553.366 199.129L551.094 200.267L553.366 203.681H549.957H555.639L557.91 210.508L560.184 209.37V212.784H546.547L545.413 210.508V216.198H547.684L548.821 212.784H552.229V215.06L559.047 213.922L561.321 216.198L556.776 215.06L557.91 217.336H560.184L551.094 219.612L555.639 216.198L554.502 215.06L552.229 217.336L549.957 213.922L548.821 218.474L547.684 217.336L546.547 219.612L542.002 220.75H537.457L536.321 223.026L534.049 221.888L536.321 224.164L535.186 225.302L538.594 221.888L544.276 226.439L545.413 225.302L543.139 224.164H545.413L546.547 227.577L539.731 228.715V230.993L537.457 227.577V230.993L535.186 228.715L532.913 226.439L534.049 223.026L529.504 221.888L528.368 218.474L532.913 220.75L534.049 219.612L532.913 217.336L528.368 216.198L529.504 211.646L526.094 209.37V220.75L527.231 223.026L528.368 221.888L530.639 228.715H532.913L535.186 234.406L539.731 236.681V238.957L540.868 237.819L547.684 241.234L548.821 240.094L553.366 242.372V244.648H557.91L556.776 248.061L559.047 249.199V252.614L554.502 254.89L552.229 253.752L553.366 252.614H551.094L555.639 251.474L552.229 248.061V245.785L551.094 246.923L544.276 243.51V248.061L547.684 250.336L548.821 253.752L545.413 261.716L548.821 262.854L547.684 269.682L544.276 268.545L545.413 271.958L543.139 270.82V274.233H540.868L539.731 271.958V275.373H537.457L535.186 273.096H537.457V270.82L540.868 269.682V267.407L537.457 262.854L538.594 261.716L535.186 260.578L534.049 261.716L536.321 263.994H534.049L535.186 266.269H532.913L531.776 258.303H524.957L526.094 261.716L527.231 259.44L528.368 268.545L524.957 267.407L520.412 260.578L519.278 266.269L513.596 262.854L510.186 258.303L514.731 256.027L519.278 261.716V256.027L521.549 254.89L526.094 257.165L528.368 254.89L530.639 257.165L534.049 253.752L531.776 251.474L529.504 253.752L524.957 251.474L522.686 252.614V250.336H517.004V252.614H514.731L512.46 251.474V249.199H515.868L512.46 244.648L514.731 242.372H507.915L509.049 246.923L504.504 245.785V242.372H502.233ZM557.91 234.406H560.184L559.047 236.681L561.321 238.957L562.455 236.681L567.002 240.094L564.729 242.372L563.592 237.819L562.455 241.234L560.184 238.957L559.047 240.094L556.776 236.681L557.91 234.406ZM544.276 232.13L546.547 233.268L545.413 234.406H548.821V236.681H551.094L545.413 237.819L544.276 234.406V232.13ZM552.229 230.993L557.91 232.13L556.776 234.406L553.366 233.268L556.776 235.543H553.366L549.957 232.13L552.229 230.993ZM542.002 230.993L544.276 232.13H542.002V230.993ZM586.319 221.888V225.302L585.182 224.164L586.319 221.888ZM546.547 229.855H548.821L546.547 233.268L545.413 229.855H546.547ZM542.002 228.715L544.276 229.855L542.002 230.993V228.715ZM565.866 227.577L571.547 232.13V235.543L564.729 227.577H565.866ZM563.592 229.855L564.729 230.993L561.321 229.855H563.592ZM561.321 225.302L565.866 226.439L562.455 228.715L561.321 227.577V229.855L560.184 226.439L561.321 225.302ZM564.729 218.474L567.002 220.75H570.41L571.547 225.302V221.888L573.818 223.026L572.684 220.75L577.229 221.888L574.955 226.439L573.818 224.164L574.955 227.577L578.366 225.302L577.229 227.577L571.547 230.993L564.729 219.612V218.474ZM581.774 220.75L582.91 223.026L579.5 226.439V221.888L581.774 220.75ZM555.639 219.612L557.91 223.026H555.639V219.612ZM549.957 218.474L554.502 224.164L553.366 225.302L548.821 218.474H549.957ZM560.184 218.474V224.164L557.91 220.75L559.047 219.612L560.184 218.474Z" fill="#D030E8" fill-opacity="0.5"/>
<path d="M548.821 253.752L549.957 252.614L551.094 256.027L548.821 253.752ZM548.821 253.752L547.684 250.336L544.276 248.061V243.51L551.094 246.923L552.229 245.785V248.061L555.639 251.474L551.094 252.614H553.366L552.229 253.752L554.502 254.89M548.821 253.752L545.413 261.716L548.821 262.854L547.684 269.682L544.276 268.545L545.413 271.958L543.139 270.82V274.233H540.868L539.731 271.958V275.373H537.457L535.186 273.096H537.457V270.82L540.868 269.682V267.407L537.457 262.854L538.594 261.716L535.186 260.578L534.049 261.716L536.321 263.994H534.049L535.186 266.269H532.913L531.776 258.303H524.957L526.094 261.716L527.231 259.44L528.368 268.545L524.957 267.407L520.412 260.578L519.278 266.269L513.596 262.854L510.186 258.303L514.731 256.027L519.278 261.716V256.027L521.549 254.89L526.094 257.165L528.368 254.89L530.639 257.165L534.049 253.752L531.776 251.474L529.504 253.752L524.957 251.474L522.686 252.614V250.336H517.004V252.614H514.731L512.46 251.474V249.199H515.868L512.46 244.648L514.731 242.372H507.915L509.049 246.923L504.504 245.785V242.372H502.233L495.415 243.51L498.823 250.336H496.551L499.959 257.165L498.823 261.716L494.278 250.336V245.785L490.87 248.061L493.141 249.199V251.474L489.733 250.336V253.752L487.459 245.785L485.188 248.061L482.915 242.372L472.688 236.681V233.268L474.962 235.543H479.506L478.37 227.577L473.825 225.302L474.962 221.888L471.551 219.612L472.688 217.336L470.417 216.198L468.143 218.474L467.006 212.784L459.053 204.819L460.19 203.681L431.782 200.267V194.577L435.19 197.991L444.282 200.267L448.827 199.129L439.735 197.991L442.009 195.715M514.731 271.958H512.46L513.596 270.82L514.731 271.958ZM514.731 271.958V277.649L517.004 276.511L519.278 278.787L520.412 276.511H518.141L517.004 271.958H514.731ZM554.502 254.89L553.366 257.165H552.229L548.821 256.027L552.229 259.44H549.957L552.229 260.578H549.957V262.854L555.639 261.716L553.366 260.578L556.776 254.89H554.502ZM554.502 254.89L559.047 252.614V249.199L556.776 248.061L557.91 244.648H553.366V242.372L548.821 240.094L547.684 241.234L540.868 237.819L539.731 238.957V236.681L535.186 234.406L532.913 228.715H530.639L528.368 221.888L527.231 223.026L526.094 220.75V209.37L529.504 211.646L528.368 216.198L532.913 217.336L534.049 219.612L532.913 220.75L528.368 218.474L529.504 221.888L534.049 223.026L532.913 226.439L535.186 228.715L537.457 230.993V227.577L539.731 230.993V228.715L546.547 227.577L545.413 224.164H543.139L545.413 225.302L544.276 226.439L538.594 221.888L535.186 225.302L536.321 224.164L534.049 221.888L536.321 223.026L537.457 220.75H542.002L546.547 219.612L547.684 217.336L548.821 218.474M587.455 209.37L585.182 207.095V208.233L587.455 209.37ZM587.455 209.37L589.727 204.819H587.455L589.727 203.681L588.592 199.129L586.319 197.991L587.455 195.715L585.182 192.301M587.455 209.37L588.592 207.095H586.319V201.405V203.681H582.91L581.774 201.405L579.5 204.819V201.405L571.547 197.991H573.818L571.547 195.715H574.955L572.684 192.301L570.41 195.715L568.137 194.577V196.853L564.729 192.301L563.592 193.439L569.274 197.991L567.002 200.267L570.41 199.129L569.274 200.267L573.818 201.405L574.955 203.681L577.229 201.405L576.092 203.681L578.366 204.819L577.229 207.095L576.092 205.957L577.229 208.233H579.5L577.229 209.37L582.91 216.198L581.774 217.336L579.5 213.922L577.229 215.06L574.955 216.198L576.092 219.612L573.818 216.198H571.547V218.474L569.274 217.336V215.06H567.002L569.274 213.922L567.002 211.646H569.274L570.41 208.233L569.274 207.095L568.137 209.37H565.866M585.182 192.301L584.045 191.163L581.774 194.577M585.182 192.301L581.774 194.577M585.182 192.301L584.045 196.853L582.91 195.715L579.5 197.991L581.774 194.577M581.774 194.577L580.637 191.163L582.91 192.301L578.366 188.887L576.092 190.025L577.229 191.163H574.955L572.684 184.336L573.818 183.198H570.41L569.274 180.922L567.002 182.06L565.866 179.784L564.729 182.06L567.002 178.646H562.455H559.047L560.184 180.922L556.776 186.611L557.91 188.887L555.639 186.611H552.229L555.639 183.198L554.502 179.784L551.094 178.646V180.922L553.366 182.06L548.821 183.198V179.784L551.094 177.508L546.547 178.646V175.232L548.821 174.094L545.413 171.818L549.957 169.542H544.276V171.818L539.731 175.232V166.128L537.457 172.956L542.002 178.646L544.276 175.232V177.508L537.457 180.922L542.002 186.611L537.457 184.336V178.646L535.186 175.232H532.913V172.956L535.186 174.094L534.049 171.818L535.186 163.852L537.457 161.576V154.748L535.186 155.886V152.473L532.913 153.61L531.776 149.059L529.504 151.335V143.369V145.645L527.231 144.507V142.231L524.957 144.507L521.549 142.231V144.507L519.278 142.231V147.921L517.004 145.645L518.141 142.231L515.868 144.507L513.596 143.369L515.868 146.783L512.46 145.645V143.369L505.641 144.507L510.186 149.059L509.049 150.197L507.915 147.921L505.641 150.197L507.915 155.886H510.186L507.915 158.162L509.049 161.576L512.46 162.714H507.915L503.37 151.335L502.233 155.886L498.823 158.162L502.233 149.059L494.278 143.369L490.87 144.507L496.551 147.921H492.006L489.733 145.645L486.325 146.783V150.197L488.596 151.335L486.325 152.473L487.459 154.748L484.051 157.024H481.78V154.748L484.051 146.783L482.915 149.059L481.78 146.783V149.059H479.506V153.61L474.962 147.921H469.28V150.197H465.872L468.143 153.61H465.872L467.006 154.748L464.735 155.886L465.872 149.059H461.325L462.462 144.507L459.053 143.369L462.462 133.127L459.053 128.575V137.679H455.643L454.509 139.955L452.235 138.817V143.369H456.78L459.053 145.645L457.917 153.61L454.509 157.024L456.78 158.162L457.917 154.748L459.053 159.3L455.643 168.404L451.098 170.68L452.235 172.956L447.69 175.232L451.098 176.37L454.509 169.542L456.78 171.818L454.509 174.094L456.78 179.784L453.372 180.922L456.78 182.06L454.509 183.198L456.78 185.473H454.509V187.749L456.78 191.163L452.235 185.473V182.06L444.282 183.198L445.417 187.749L442.009 191.163V195.715M445.417 177.508L442.009 174.094V172.956M445.417 177.508L446.553 182.06L440.872 191.163L442.009 195.715M445.417 177.508L447.69 182.06H449.961V176.37L447.69 177.508M445.417 177.508H447.69M442.009 195.715L436.327 197.991L434.053 196.853L432.919 191.163L427.237 183.198L430.645 177.508L431.782 178.646V176.37L442.009 172.956M442.009 172.956L443.145 177.508H447.69M442.009 172.956L445.417 170.68L451.098 171.818L447.69 174.094L446.553 172.956V175.232L448.827 176.37L447.69 177.508M564.729 242.372L570.41 244.648L567.002 245.785L563.592 243.51L564.729 242.372ZM564.729 242.372L567.002 240.094L562.455 236.681L561.321 238.957L559.047 236.681L560.184 234.406H557.91L556.776 236.681L559.047 240.094L560.184 238.957L562.455 241.234L563.592 237.819L564.729 242.372ZM565.866 209.37L562.455 207.095L563.592 209.37H565.866ZM565.866 209.37V211.646L564.729 210.508L567.002 212.784H563.592L565.866 215.06L562.455 212.784L563.592 210.508L560.184 208.233M560.184 208.233L561.321 205.957L560.184 204.819V208.233ZM560.184 208.233L552.229 195.715L554.502 194.577L551.094 191.163V184.336L547.684 183.198V185.473H545.413V180.922L543.139 179.784V182.06H540.868L544.276 185.473L543.139 187.749L548.821 191.163L551.094 195.715L549.957 197.991L553.366 199.129L551.094 200.267L553.366 203.681H549.957H555.639L557.91 210.508L560.184 209.37V212.784H546.547L545.413 210.508V216.198H547.684L548.821 212.784H552.229V215.06L559.047 213.922L561.321 216.198L556.776 215.06L557.91 217.336H560.184L551.094 219.612L555.639 216.198L554.502 215.06L552.229 217.336L549.957 213.922L548.821 218.474M548.821 218.474L553.366 225.302L554.502 224.164L549.957 218.474H548.821ZM544.276 232.13L546.547 233.268M544.276 232.13V234.406L545.413 237.819L551.094 236.681H548.821V234.406H545.413L546.547 233.268M544.276 232.13L542.002 230.993M544.276 232.13H542.002V230.993M546.547 233.268L548.821 229.855H546.547H545.413L546.547 233.268ZM542.002 230.993L544.276 229.855L542.002 228.715V230.993ZM561.321 229.855L564.729 230.993L563.592 229.855H561.321ZM561.321 229.855V227.577L562.455 228.715L565.866 226.439L561.321 225.302L560.184 226.439L561.321 229.855ZM620.408 362.995L622.68 360.72L624.953 364.133L620.408 362.995ZM665.859 360.72L671.541 362.995L665.859 361.857V360.72ZM610.182 353.891L611.316 352.753L612.453 355.029H610.182V353.891ZM536.321 286.751L537.457 285.613V287.891L536.321 286.751ZM609.045 351.615L610.182 350.478V352.753L609.045 351.615ZM612.453 357.306L616.998 358.444L615.864 361.857L614.727 357.306L613.59 359.582L612.453 357.306ZM626.09 352.753L628.361 349.34V353.891L630.635 351.615L632.906 352.753L629.498 353.891H632.906L631.772 357.306L627.225 355.029L626.09 352.753ZM518.141 279.924H515.868L518.141 278.787V279.924ZM531.776 278.787L534.049 283.337L528.368 277.649L531.776 278.787ZM521.549 277.649L522.686 276.511V279.924L521.549 277.649ZM560.184 284.475L561.321 282.2L562.455 283.337L560.184 286.751V284.475ZM521.549 268.545L523.823 267.407L524.957 269.682H522.686L521.549 268.545ZM554.502 260.578L555.639 258.303V260.578H554.502ZM507.915 266.269L512.46 269.682H507.915V266.269ZM563.592 265.131L564.729 263.994L567.002 269.682L564.729 267.407L563.592 265.131ZM551.094 267.407V265.131L552.229 267.407H554.502L552.229 270.82L551.094 267.407ZM562.455 260.578L565.866 258.303L564.729 259.44L567.002 265.131L563.592 262.854V260.578H562.455ZM555.639 262.854L557.91 265.131L555.639 263.994V262.854ZM540.868 275.373L542.002 274.233L543.139 277.649L542.002 276.511L540.868 275.373ZM552.229 274.233L553.366 271.958L555.639 276.511L552.229 275.373V274.233ZM564.729 254.89L565.866 253.752L569.274 256.027V258.303H567.002V256.027L564.729 254.89ZM367.013 226.439L363.605 225.302L364.739 219.612L367.013 221.888V225.302V226.439ZM581.774 211.646L582.91 213.922L581.774 212.784V211.646ZM582.91 204.819L585.182 205.957H581.774L582.91 204.819ZM397.692 202.543L382.921 205.957H352.241L351.105 193.439L353.378 187.749L361.331 186.611L394.284 167.266L395.421 175.232V172.956L401.103 176.37L403.374 180.922L409.055 184.336L417.011 193.439H419.282V195.715L415.874 199.129L404.511 203.681H401.103L398.829 201.405L397.692 202.543ZM581.774 187.749H584.045L585.182 190.025L581.774 187.749ZM557.91 176.37V178.646L556.776 176.37H557.91ZM482.915 137.679L480.643 136.541L481.78 135.403L482.915 137.679ZM487.459 138.817L488.596 141.093H484.051V138.817H487.459ZM464.735 137.679H467.006L464.735 139.955V135.403V137.679ZM449.961 135.403L451.098 133.127L453.372 138.817L449.961 135.403ZM455.643 135.403H452.235H454.509V133.127L455.643 134.265V135.403ZM456.78 129.713L455.643 127.438L457.917 129.713H456.78ZM549.957 171.818L551.094 174.094L548.821 172.956L549.957 171.818ZM553.366 170.68L554.502 171.818L552.229 172.956V170.68H553.366ZM549.957 186.611V188.887L548.821 186.611H549.957ZM559.047 172.956L561.321 175.232L560.184 174.094L553.366 177.508V175.232L555.639 176.37L556.776 174.094L559.047 172.956ZM539.731 159.3L542.002 162.714L540.868 163.852V160.438L539.731 159.3ZM485.188 155.886L484.051 154.748H486.325L485.188 155.886ZM439.735 153.61L444.282 159.3V157.024H447.69L453.372 158.162L455.643 162.714L454.509 167.266L449.961 170.68L445.417 169.542L442.009 171.818L432.919 174.094L426.1 179.784L421.556 174.094L436.327 153.61H439.735ZM451.098 151.335L454.509 155.886L452.235 157.024V152.473L451.098 151.335ZM502.233 145.645L498.823 143.369L502.233 144.507V145.645ZM464.735 142.231L467.006 144.507H464.735V146.783L462.462 145.645L463.598 139.955L464.735 142.231ZM465.872 129.713L471.551 131.989L469.28 133.127L472.688 135.403L473.825 133.127L476.098 137.679L478.37 134.265L479.506 135.403L477.233 139.955H479.506V142.231H477.233L476.098 144.507L473.825 143.369L474.962 142.231H471.551V145.645H468.143L469.28 143.369L465.872 141.093L469.28 139.955L468.143 135.403L470.417 136.541L467.006 129.713V133.127L464.735 130.851V128.575L465.872 129.713ZM565.866 233.268L567.002 234.406L564.729 233.268H565.866ZM560.184 248.061L564.729 250.336L563.592 251.474L560.184 249.199V248.061ZM512.46 250.336L510.186 252.614L509.049 251.474L511.323 248.061L513.596 249.199L512.46 250.336ZM547.684 249.199V246.923H552.229L551.094 249.199H548.821H547.684ZM552.229 230.993L557.91 232.13L556.776 234.406L553.366 233.268L556.776 235.543H553.366L549.957 232.13L552.229 230.993ZM586.319 221.888V225.302L585.182 224.164L586.319 221.888ZM565.866 227.577L571.547 232.13V235.543L564.729 227.577H565.866ZM564.729 218.474L567.002 220.75H570.41L571.547 225.302V221.888L573.818 223.026L572.684 220.75L577.229 221.888L574.955 226.439L573.818 224.164L574.955 227.577L578.366 225.302L577.229 227.577L571.547 230.993L564.729 219.612V218.474ZM581.774 220.75L582.91 223.026L579.5 226.439V221.888L581.774 220.75ZM555.639 219.612L557.91 223.026H555.639V219.612ZM560.184 218.474V224.164L557.91 220.75L559.047 219.612L560.184 218.474Z" stroke="#0000FF" stroke-opacity="0.4"/>
</g>
<path id="15_KienThuy" fill-rule="evenodd" clip-rule="evenodd" d="M278.38 287.891L265.882 298.13L256.792 299.27V304.959L252.245 302.684L239.748 289.028H234.066L214.748 296.993L211.339 294.717L209.067 282.2L204.522 278.787H201.113L188.613 286.751L182.932 285.613L172.705 266.269L169.296 263.994L172.705 260.578L170.432 258.303L172.705 256.027L173.841 258.303L179.523 253.752L178.387 251.474L181.796 249.199L180.659 246.923H182.932L181.796 244.648L184.068 242.372L185.205 244.648L195.431 241.234L196.568 243.51L198.84 241.234L194.295 236.681L196.568 232.13L188.613 228.715L187.477 225.302L185.205 224.164L187.477 213.922H192.022V219.612L194.295 213.922L197.704 212.784L198.84 218.474L203.385 219.612V224.164L209.067 225.302L213.612 219.612L217.021 221.888L218.157 220.75L214.748 216.198L215.885 213.922H222.702L227.248 210.508V208.233H242.019L253.382 205.957L255.656 207.095L256.792 213.922L252.245 228.715H248.837L249.974 233.268L253.382 236.681L254.519 235.543L253.382 240.094H256.792V242.372L263.609 244.648L264.745 252.614L271.564 248.061L276.109 250.336L274.972 253.752L278.38 254.89V259.44L284.062 268.545L279.517 274.233L280.654 276.511L274.972 279.924L273.835 285.613L278.38 286.751V287.891Z" fill="#E83092" fill-opacity="0.5" stroke="#0000FF" stroke-opacity="0.4" stroke-linecap="round" stroke-linejoin="round"/>
<path id="15_ThuyNguyen" fill-rule="evenodd" clip-rule="evenodd" d="M229.521 135.403L218.157 127.438L190.886 126.3L185.205 122.886L184.068 117.196L186.341 111.506V93.2986L180.659 89.8847L169.296 87.6088V77.3673L168.16 73.9534L161.342 67.1256L162.478 63.7118L155.661 54.608V44.3664L153.388 42.0904L142.025 39.8145L138.616 37.5386L136.344 31.8487L131.798 27.2971L130.662 22.7453L132.935 13.6415L136.344 12.5035L139.753 3.39987L142.025 9.08967L145.434 11.3656L149.979 5.67577L160.206 7.9517L163.615 4.53783L169.296 5.67577L177.25 2.2619H180.659L189.75 10.2276H197.704L206.794 3.39987H211.339L229.521 10.2276L238.611 15.9174L257.927 21.6072H284.062L294.29 23.8832L297.699 27.2971L307.925 45.5043V70.5395L310.199 93.2986L305.651 108.092L297.699 117.196L294.29 127.438H289.743L282.927 133.127L278.38 139.955L276.109 138.817L272.701 141.093L255.656 128.575L237.474 137.679L230.656 136.541L229.521 135.403Z" fill="#E83D30" fill-opacity="0.5" stroke="#0000FF" stroke-opacity="0.4" stroke-linecap="round" stroke-linejoin="round"/>
<path id="15_TienLang" fill-rule="evenodd" clip-rule="evenodd" d="M226.111 357.306L214.748 364.133L210.203 358.444L196.568 350.478L186.341 352.753L177.25 350.478L169.296 340.236L165.887 327.718L146.57 307.235L137.48 303.821L130.662 302.684L123.844 310.65L109.072 318.614L96.573 311.788L95.4366 309.51L97.7093 278.787L95.4366 274.233L101.118 254.89L103.391 240.094L99.982 234.406L101.118 232.13L92.0277 228.717L84.0736 233.268L79.5285 230.992L84.0736 220.75L82.9373 213.922L79.5285 205.957L72.7108 197.991L85.2099 190.025L92.0277 196.853L95.4366 207.095L98.8456 209.37L102.254 208.233L110.209 199.129L114.754 200.267L119.299 213.922L127.253 221.888L128.389 225.302L123.844 230.992L124.981 234.406L128.389 237.819L142.025 243.51L172.705 266.269L182.932 285.613L188.613 286.753L196.568 281.062L204.522 278.787L209.067 282.2L211.339 294.717L214.748 296.993L234.066 289.028H239.748L244.292 292.442L252.245 302.684L256.793 304.959L257.927 318.614L248.837 336.822L242.019 345.927L226.111 357.306Z" fill="#D147AC" fill-opacity="0.5" stroke="#0000FF" stroke-opacity="0.4" stroke-linecap="round" stroke-linejoin="round"/>
<path id="15_VinhBao" fill-rule="evenodd" clip-rule="evenodd" d="M76.1195 367.546L70.4381 375.512L61.3477 376.65L60.2114 367.546L57.9387 364.133L52.2573 359.582L44.3032 357.306L47.712 348.202V340.236L39.7579 331.132V327.718L35.2128 320.89L11.3504 300.408L2.26001 295.855L13.623 281.062L12.4867 275.373H15.8956L14.7593 273.096L17.0319 271.958L10.2141 266.269L9.07782 260.578L13.623 254.89L26.1222 258.303L34.0765 268.545L39.7579 262.854L40.8943 256.027L43.1669 254.89L45.4393 256.027L46.5757 259.44L44.3032 266.269L48.8483 267.407L52.2573 266.269L56.8024 259.44L54.53 256.027L45.4393 250.336L46.5757 248.061H56.8024L61.3477 240.094L63.6204 238.957L71.5744 242.372L77.2558 240.094L84.0736 233.268L92.0279 228.717L101.118 232.13L99.9819 234.406L103.391 240.094L101.118 254.89L95.4366 274.233L97.7093 278.787L95.4366 309.51L96.573 311.788L109.072 318.614L123.844 310.65L130.662 302.684L137.48 303.821L146.57 307.235L165.887 327.718L169.296 339.098L162.478 342.511L156.797 350.478L142.025 357.306H139.753L134.071 351.615L124.98 350.478L119.299 355.029L118.163 367.546L110.209 372.099L101.118 373.237L99.9819 367.546L93.164 361.857L79.5285 359.582L78.3922 360.72L76.1195 367.546Z" fill="#D1475A" fill-opacity="0.5" stroke="#0000FF" stroke-opacity="0.4" stroke-linecap="round" stroke-linejoin="round"/>
</g>
</g>
</svg>
