<svg width="580" height="501" viewBox="0 0 580 501" fill="none" xmlns="http://www.w3.org/2000/svg">
<g id="26">
<g id="Group">
<path id="26_SonLa" fill-rule="evenodd" clip-rule="evenodd" d="M219.312 269.266L213.21 270.139L209.723 268.393V266.647H207.979L204.492 262.283L201.005 259.665L200.133 260.537L195.774 258.792L188.8 251.809L189.672 250.064L196.646 250.937L197.518 247.445L195.774 246.572L200.133 238.717V231.734L197.518 229.989L193.159 232.607L191.415 231.734L192.287 227.37L194.031 225.624L189.672 220.387L190.544 217.769L197.518 212.532L198.39 204.677L201.005 202.931L212.338 203.804V206.422H220.184L221.056 209.041L228.902 208.168L234.133 212.532L236.748 211.659L237.62 216.023H241.979L246.338 229.116H250.696L253.312 236.971L250.696 238.717L249.825 237.844L248.081 240.463L250.696 243.081V244.827L248.953 245.7L250.696 250.064L254.184 250.937L251.568 254.428L252.44 257.046L257.671 261.41L260.286 265.774L257.671 268.393L254.184 269.266L255.056 266.647L253.312 267.52L251.568 266.647L252.44 265.774H248.953L247.21 268.393L244.594 264.029L240.235 265.774L239.364 262.283L236.748 261.41L235.004 258.792L224.543 261.41V264.902L219.312 266.647V268.393V269.266Z" fill="#D147AC" fill-opacity="0.5" stroke="#0000FF" stroke-opacity="0.4" stroke-linecap="round" stroke-linejoin="round"/>
<path id="26_BacYen" fill-rule="evenodd" clip-rule="evenodd" d="M432.028 335.601L425.924 332.11V333.854L422.439 336.473L423.309 338.219L421.566 343.456L422.439 345.203H425.924V348.693L425.052 350.44L423.309 349.565L422.439 351.312H420.693L414.592 346.075L404.13 343.456L399.772 339.966L396.284 339.091L393.668 335.601L390.183 336.473L387.567 333.854L383.206 334.729L380.593 331.236L371.874 327.745L371.001 321.636L366.643 319.018L362.285 313.781L352.695 308.544L349.207 310.288L343.976 308.544L343.106 305.926L338.748 305.051L321.312 288.468L323.927 284.978L331.771 280.613L332.644 277.994L335.259 280.613H337.875L339.618 275.376L343.106 271.011L336.132 265.774L327.413 263.156L326.543 260.537L316.951 253.555L315.208 249.191L305.619 243.081L304.746 238.717L307.361 233.48L305.619 229.989H307.361L314.338 223.879L315.208 228.243L318.696 223.879L323.927 223.006H322.182L323.054 221.26L323.927 222.133L330.028 220.387L329.156 219.515L330.901 215.15L336.132 209.913H337.875L339.618 206.422L345.721 203.804L347.464 206.422L351.822 208.168L356.181 215.15H357.926L360.542 210.786L364.027 213.405L365.773 216.896L375.362 217.769L377.105 220.387L382.336 223.006L384.079 229.989L387.567 233.48L391.925 231.734L400.642 234.353L404.13 231.734L405.873 228.243L411.104 225.624L416.335 216.023L419.823 212.532L425.924 214.278L424.182 215.15L422.439 219.515L423.309 223.879L428.54 224.752L432.028 229.116L429.413 230.861L431.155 231.734L428.54 233.48V239.59L430.283 240.463L428.54 242.208L430.283 243.954L431.155 248.318L429.413 250.064V253.555L425.924 256.173L427.667 257.919H425.924L426.797 258.792L425.052 261.41L422.439 262.283L423.309 265.774L418.078 266.647L415.462 269.266L416.335 270.139L412.847 272.757V274.503L407.618 276.248L408.488 277.122L405.003 284.103L406.746 283.231L414.592 290.215L411.977 294.577L413.72 299.814L418.951 304.179L418.078 305.051L420.693 307.669L418.951 314.653L414.592 320.762L416.335 329.492L421.566 330.364L425.052 326.873L429.413 325.127L432.028 327.745V334.729V335.601Z" fill="#D1475A" fill-opacity="0.5" stroke="#0000FF" stroke-opacity="0.4" stroke-linecap="round" stroke-linejoin="round"/>
<path id="26_MaiSon" fill-rule="evenodd" clip-rule="evenodd" d="M290.798 349.565L287.313 352.184L290.798 354.802L289.055 357.421V363.532H287.313L284.697 360.914L280.336 365.276L274.235 367.023L268.132 363.532L267.26 360.914L259.414 353.93L257.671 354.802L258.542 355.677L256.799 354.802L251.568 344.328L239.364 349.565L238.492 348.693L240.235 346.075V338.219L238.492 337.347L235.004 336.473L232.389 339.091L227.158 339.966L222.8 338.219L221.056 335.601L218.441 337.347V339.091L214.954 338.219L215.825 336.473L210.595 333.854L207.107 334.729L204.492 332.11L198.39 329.492L196.646 330.364L191.415 328.617L187.928 325.127V321.636H185.313L179.211 315.525L178.339 310.288H174.851L170.493 299.814L167.877 297.195L154.801 291.087V287.596L160.903 282.359L161.775 277.122L166.134 273.63L167.005 270.139L170.493 266.647V270.139L172.236 272.757L178.339 276.248L180.082 282.359L182.698 280.613H186.185L191.415 284.978L194.031 280.613L192.287 268.393L194.031 265.774H195.774L198.39 259.665L204.492 261.41L205.364 264.029L213.21 270.139L219.312 269.266V266.647L224.543 264.902V262.283L226.287 260.537L232.389 258.792H235.004L239.364 262.283L240.235 265.774L243.722 264.029L246.338 265.774L247.21 268.393L248.953 265.774L249.825 266.647L252.44 264.902L251.568 265.774L255.056 266.647L254.184 269.266H255.927L260.286 265.774L252.44 257.046L251.568 254.428L254.184 250.937L250.696 250.064L248.953 245.7H250.696V243.954L248.081 240.463L249.825 237.844L250.696 238.717L253.312 236.971L251.568 233.48L255.056 232.607L256.799 229.116H258.542L262.03 225.624H264.645L265.517 223.879L279.466 243.081L282.952 244.827L286.44 243.081L287.313 245.7L293.414 248.318L294.286 245.7L290.798 239.59L295.156 232.607L299.518 230.861L303.003 231.734L304.746 229.116L307.361 233.48L304.746 237.844L305.619 243.081L315.208 249.191L316.951 253.555L326.543 260.537L327.413 263.156L336.132 265.774L342.233 271.011L337.875 280.613L332.644 277.994L330.028 282.359L326.543 283.231L321.312 287.596L322.182 291.958L317.823 294.577V297.195H316.081L314.338 300.689L316.081 305.926L313.465 310.288L317.823 317.271L316.081 320.762L316.951 328.617L308.234 333.854V335.601L304.746 339.091L305.619 339.966L299.518 347.821H292.541L290.798 349.565Z" fill="#D18847" fill-opacity="0.5" stroke="#0000FF" stroke-opacity="0.4" stroke-linecap="round" stroke-linejoin="round"/>
<path id="26_MocChau" fill-rule="evenodd" clip-rule="evenodd" d="M459.923 438.594V445.577L456.438 452.561L455.565 457.798H458.181L454.692 464.779H442.488L436.387 462.16L437.257 458.67L435.514 455.179L426.797 448.196L422.439 449.942L423.309 450.814L421.566 449.942L418.078 452.561L418.951 453.433L417.208 455.179L412.847 452.561V450.814L409.361 451.686L405.873 446.449L404.13 433.357L401.515 430.738L393.668 428.12L392.798 422.011L387.567 422.883L385.822 424.629L383.206 422.011L387.567 417.646V414.155L384.952 412.409L386.694 408.918L385.822 406.3L389.31 401.935V395.826L396.284 392.336L400.642 393.208V391.461L398.899 390.589V383.605H401.515L403.257 382.734V380.987L404.13 381.862L407.618 380.115L411.977 374.878L410.231 372.26L411.104 369.641L408.489 363.532L413.72 362.658L416.335 359.167L419.823 360.914L424.182 353.058L422.439 351.312L423.309 349.565L425.052 350.44L425.924 345.203L421.566 344.328L423.309 338.219L422.439 336.473L425.924 333.854V332.11H427.667L436.387 338.219L437.257 335.601L439.872 334.729L441.618 338.219L455.565 344.328L456.438 339.091L464.282 343.456L468.643 339.091L473.874 337.347L475.617 335.601L477.359 329.492L480.848 333.854L493.923 338.219V342.584L492.18 344.328L494.795 346.075L498.284 352.184L497.411 353.058L500.026 354.802L501.769 358.295L502.642 366.151L499.154 373.132H507.873L508.743 374.878L507.873 378.368L509.616 381.862L507.873 386.224H506.127L512.231 394.079L510.488 395.826L512.231 397.573V400.191H496.538L500.026 406.3L493.053 409.79V416.774L491.307 417.646L488.694 416.774L486.079 419.392L482.59 418.52L481.718 420.264L479.102 419.392L477.359 421.139L476.487 419.392H464.282L463.412 417.646H461.669L460.796 418.52L465.155 424.629L471.258 430.738H473.001V432.485H466.897L460.796 438.594H459.923Z" fill="#B7E830" fill-opacity="0.5" stroke="#0000FF" stroke-opacity="0.4" stroke-linecap="round" stroke-linejoin="round"/>
<path id="26_MuongLa" fill-rule="evenodd" clip-rule="evenodd" d="M294.286 245.7L293.414 247.445L287.313 245.7L286.44 243.081L282.952 244.827L279.466 243.081L273.363 233.48L267.26 227.37V224.752L265.517 223.879L264.645 225.624H262.03L258.542 229.116H256.799L255.056 232.607H251.568L250.696 229.116H246.338L244.594 226.497L245.466 225.624L242.85 221.26L243.722 220.387L241.979 216.023H237.62L236.748 211.659L234.133 212.532L229.774 209.041V207.295L234.133 202.931L233.261 202.058L236.748 196.821L235.876 195.948L237.62 194.203L241.979 195.076L244.594 193.33L243.722 192.457L246.338 191.584V188.093L244.594 186.347L239.364 185.474L241.107 183.729H244.594L238.492 175.873L233.261 175L229.774 177.619L227.158 173.255L217.569 168.018L210.595 167.145L205.364 169.763L197.518 166.272L190.544 161.035L189.672 159.29L191.415 155.798V148.816L187.928 145.324L189.672 142.706L186.185 140.087L188.8 135.723L184.441 131.359L181.826 132.232L172.236 126.995L173.98 121.758L180.954 117.394L185.313 111.284L189.672 107.793L190.544 101.683L195.774 103.429L198.39 99.9373L199.262 101.683L197.518 105.174L200.133 112.157L199.262 113.03L202.749 114.776L204.492 118.267L207.108 117.394L207.979 119.139L212.338 120.012L213.21 112.157L215.825 114.776L221.056 116.521H224.543L225.415 114.776L231.517 118.267L230.646 125.249H240.235L241.107 127.868L246.338 122.631L252.44 124.376L253.312 126.995L257.671 126.122L259.414 124.376L266.389 129.613L275.978 132.232L280.336 134.85L282.952 133.105L284.697 133.978L295.156 130.486L313.465 133.105L317.823 125.249L320.439 124.376L331.771 125.249V126.995L333.517 127.868H342.233L344.849 131.359L350.952 129.613L358.796 131.359L357.926 135.723L352.695 142.706L345.721 147.943H343.106L342.233 149.689L345.721 159.29L342.233 160.163L338.748 166.272L340.49 170.636L343.976 174.128L344.849 180.237L341.363 185.474L340.49 193.33L343.976 197.694H346.591L345.721 203.804L339.618 206.422L337.875 209.913H336.132L330.901 215.15L329.156 219.515L330.028 220.387L323.927 222.133L323.054 221.26V223.006L318.696 223.879L316.081 228.243L314.338 223.879L311.722 224.752L307.361 229.989L304.746 229.116L303.003 231.734L299.518 230.861L295.156 232.607L290.798 239.59L293.414 243.954L294.286 245.7Z" fill="#49E830" fill-opacity="0.5" stroke="#0000FF" stroke-opacity="0.4" stroke-linecap="round" stroke-linejoin="round"/>
<path id="26_PhuYen" fill-rule="evenodd" clip-rule="evenodd" d="M522.693 332.982L526.179 342.584L521.82 344.328L511.358 340.838L505.257 342.584L501.769 339.091L489.564 337.347L480.848 333.854L477.359 329.492L474.744 337.347L468.643 339.091L464.282 343.456L456.438 339.091L454.692 344.328L445.976 339.091L441.618 338.219L439.872 334.729H438.129L436.386 338.219L432.898 337.347L432.028 327.745L430.283 325.127L421.566 330.364H417.208L415.462 328.617L414.592 321.636L418.951 314.653L420.693 308.544L418.078 305.051L418.951 304.179L412.847 298.07L411.977 295.452L414.592 290.215L406.746 283.231L405.873 284.103V282.359L408.488 277.122L407.618 276.248H411.104L412.847 272.757L415.462 271.884V269.266L419.823 265.774H422.439V262.283L425.924 261.41V258.792L427.667 257.919L425.924 256.173L431.155 248.318L430.283 243.954L428.54 242.208L430.283 240.463L427.667 236.971L431.155 231.734H429.413V229.989H432.028L428.54 224.752L424.182 223.879L422.439 220.387L424.182 215.15L432.028 213.405L434.644 214.278L437.256 209.913L441.618 210.786L449.464 219.515L455.565 223.006L464.282 225.624H468.643L470.386 216.896L471.258 217.769L473.874 215.15L475.617 216.023V217.769H480.848L483.463 215.15L484.333 223.879L486.079 227.37L488.694 228.243L487.821 231.734L489.564 234.353L491.307 233.48L492.18 236.098H494.795V240.463L497.411 243.081L503.512 239.59L505.257 241.335L508.743 240.463L512.231 245.7L518.332 248.318L517.462 264.029L520.948 265.774L520.078 268.393L522.693 274.503L520.948 273.63L519.205 277.122L521.82 277.994L525.309 282.359L523.563 289.34L520.948 292.833L523.563 293.705L521.82 301.56L522.693 303.307L527.052 304.179L530.537 308.544L535.768 309.416V311.163L540.999 315.525H538.384L528.794 319.89L526.179 327.745H521.82L522.693 332.11V332.982Z" fill="#30E886" fill-opacity="0.5" stroke="#0000FF" stroke-opacity="0.4" stroke-linecap="round" stroke-linejoin="round"/>
<path id="26_QuynhNhai" fill-rule="evenodd" clip-rule="evenodd" d="M146.083 171.509L145.211 169.763H139.98L133.006 159.289V154.926L134.75 153.18L135.621 154.053L137.365 151.434L139.109 152.307L142.596 150.561L134.75 140.96L133.878 144.452L133.006 143.579L126.904 146.197L124.288 142.706L119.057 141.833L120.801 140.087L119.057 138.342L111.211 140.087L105.109 133.978L110.34 130.486L113.827 122.631L117.314 120.012H119.057L121.673 123.504L123.417 120.885L119.057 114.776L119.929 112.157L116.442 106.92L114.699 102.556L115.571 101.683L112.083 99.0646L111.211 94.7004L108.596 91.2091H106.853L105.109 88.5906L106.853 81.6079L105.109 76.371H103.365L105.981 73.7525L105.109 71.134L101.622 69.3885L99.0066 59.7873L94.6477 56.2961L90.2889 55.4231L86.8017 48.4406L87.6734 45.8221L85.9298 43.2037L86.8017 36.2209L88.5453 35.3482L86.8017 33.6024L92.0322 30.984V28.3655L93.7758 27.4927L91.1605 22.2557L96.3913 15.2731L95.5194 9.16333L99.8785 3.92639L105.109 2.18073L126.032 8.29051L127.775 11.7818L134.75 16.1459L139.98 14.4003L142.596 18.7644V24.0014L145.211 29.2385L152.185 32.7297L150.442 39.7122L156.544 43.2037L157.416 51.9318H160.903L160.031 52.8046L162.647 53.6776L160.903 59.7873L154.801 67.6428V72.8797H158.288L164.39 78.9894L166.134 77.244L174.851 78.1167L172.236 85.0992L173.98 88.5906L179.211 87.7176L181.826 90.3361V93.8276H184.441V95.5731L187.928 98.1916L190.544 103.429L189.672 106.92L183.569 114.776L173.98 121.758L172.236 126.995L178.339 128.741L180.954 132.232L184.441 131.359L188.8 135.723L186.185 140.087L189.672 142.706L187.928 145.324L191.415 148.816V155.798L189.672 158.417L190.544 161.035L194.031 163.654L193.159 166.272L189.672 167.145L187.057 169.763L186.185 173.255L177.467 167.145L167.005 169.763L164.39 172.382H160.031L158.288 175L156.544 170.636H146.955L146.083 171.509Z" fill="#30DCE8" fill-opacity="0.5" stroke="#0000FF" stroke-opacity="0.4" stroke-linecap="round" stroke-linejoin="round"/>
<path id="26_SongMa" fill-rule="evenodd" clip-rule="evenodd" d="M164.39 400.191L160.031 398.445L156.544 394.079L157.416 391.461L152.185 386.224L151.313 381.862L142.596 374.006L146.083 366.151L143.467 360.914L144.339 360.039L142.596 358.295L137.365 356.549L132.134 357.421L131.263 355.677L126.032 356.549L117.314 351.312L112.955 346.947H109.468L105.981 342.584L104.237 343.456L100.75 341.71L96.3913 336.473L92.0322 335.601L89.4169 330.364H86.8017L85.9298 332.11H81.5709L78.9557 338.219H72.8532L69.3661 335.601L71.9813 332.982L68.4941 331.236V329.492L63.2636 324.255L60.6481 316.4L61.5201 315.525L58.9045 302.432L61.5201 301.56L65.0072 296.324L68.4941 298.07L71.1097 296.324L72.8532 288.468L71.1097 283.231L71.9813 278.866L70.2377 277.122L71.9813 271.884L70.2377 266.647L72.8532 264.029L73.7249 260.537L70.2377 249.191L71.1097 248.318L65.0072 244.827L66.7505 242.208L70.2377 243.954L73.7249 236.971L77.2121 233.48L81.5709 234.353L86.8017 237.844L84.1862 243.081L85.9298 250.064L91.1605 257.919V261.41L92.9041 263.156L92.0322 264.029L97.263 267.52L99.0066 266.647L101.622 271.011H105.109L106.853 272.757L105.109 276.248L105.981 277.122L114.699 277.994L116.442 279.741V277.994L119.929 277.122L118.186 274.503V271.011H115.571L110.34 266.647L109.468 264.029L111.211 261.41L106.853 256.173L109.468 254.428L112.955 257.919H115.571L117.314 254.428L118.186 255.3V252.682L120.801 250.937L121.673 247.445L126.032 250.937L133.006 252.682L135.621 255.3L140.852 257.046L143.467 262.283L148.698 264.902L160.903 265.774L167.877 264.029L170.493 266.647L167.005 270.139L166.134 273.63L161.775 276.248V280.613L160.031 283.231L154.801 286.721V291.087L167.877 297.195L170.493 299.814L174.851 310.288H178.339L179.21 314.653L185.313 321.636H187.928V325.999L190.544 328.617H194.031L196.646 330.364L198.39 329.492L206.236 334.729L210.595 333.854L214.954 336.473L215.825 335.601L214.954 338.219L217.569 339.091L219.312 336.473L226.287 339.966H230.646L235.004 336.473L238.492 337.347L240.235 339.966V346.075L238.492 348.693L239.364 349.565L251.568 344.328L255.056 351.312L254.184 353.058L258.542 355.677V353.93L260.286 354.802L268.132 363.532L273.363 367.023L267.26 370.513L269.004 374.878L266.388 376.625V382.734L260.286 387.099L257.671 385.352L250.696 386.224L246.338 383.605L243.722 384.48L242.85 382.734L237.62 388.842L236.748 387.971L234.133 389.717L228.902 386.224H219.312L216.697 387.099V388.842H214.082L213.21 391.461H211.466L203.62 401.063L198.39 397.573H195.774L192.287 399.316L191.415 402.81L187.928 405.428L182.698 402.81L173.98 404.553L174.851 403.681H172.236L173.108 402.81L169.621 401.063L167.005 403.681L165.262 401.063L164.39 400.191Z" fill="#306EE8" fill-opacity="0.5" stroke="#0000FF" stroke-opacity="0.4" stroke-linecap="round" stroke-linejoin="round"/>
<path id="26_SopCop" fill-rule="evenodd" clip-rule="evenodd" d="M155.672 468.272L149.57 469.144L145.211 456.051H139.98L136.493 449.942L126.903 445.577L124.288 440.34L119.057 438.594L115.571 440.34L112.083 438.594L108.596 440.34L102.494 437.722L99.8785 438.594L94.6477 436.85L92.0322 429.866L85.9298 422.883L87.6734 418.52L80.6993 412.409L76.3402 415.902L72.8532 421.139V423.757L64.1353 422.883L62.3917 426.376L59.7765 427.248L55.4176 426.376L49.3149 419.392L44.9561 421.139L35.3665 415.027L28.3924 414.155L25.7769 408.918L17.9309 414.155L10.9566 409.79L8.34129 410.665L4.85416 404.553L6.59772 402.81L8.34129 396.698L5.72596 394.954L4.85416 392.336L1.36705 391.461L2.23883 389.717L11.8284 390.589L17.9309 387.099L23.1616 388.842L22.2898 387.971L25.7769 385.352L21.418 379.243V374.878L25.7769 371.388L27.5205 373.132L28.3924 372.26V364.404L24.9051 356.549L25.7769 355.677L22.2898 353.93V352.184H24.0334L24.9051 350.44L23.1616 349.565L26.6487 347.821L24.0334 341.71L21.418 339.091L20.5462 334.729L23.1616 331.236L28.3924 333.854L29.264 332.982L28.3924 330.364L24.9051 327.745L26.6487 325.127L24.0334 322.508L26.6487 320.762H31.8793L32.7512 322.508H39.7253L47.5716 329.492H49.3149L51.0585 332.982L58.0329 332.11L61.5201 333.854L68.4941 331.236L71.9813 332.982L69.3661 335.601L72.8532 338.219H78.9557L81.5709 335.601V332.11H85.9298L86.8017 330.364H89.4169L91.1605 334.729L96.3913 336.473L99.8785 341.71L104.237 343.456L105.981 342.584L107.725 346.075L112.083 347.821L112.955 346.947L117.314 351.312L126.032 356.549L130.391 355.677L132.134 357.421H142.596L144.339 359.167L143.467 360.914L146.083 366.151L142.596 373.132L150.442 380.115L152.185 383.605L151.313 384.48L155.672 390.589H157.416L156.544 394.079L160.903 399.316L164.39 400.191L167.005 403.681L169.621 401.063L171.364 402.81L172.236 401.935V403.681L177.467 404.553L181.826 402.81L188.8 406.3L190.544 411.537L189.672 414.155L186.185 415.027L180.954 421.139V424.629L184.441 428.12L183.569 431.613L181.826 432.485L184.441 438.594L178.339 443.831H166.134V456.923L169.621 463.035L168.749 464.779H167.005V466.525L158.288 467.397L155.672 468.272Z" fill="#6130E8" fill-opacity="0.5" stroke="#0000FF" stroke-opacity="0.4" stroke-linecap="round" stroke-linejoin="round"/>
<path id="26_ThuanChau" fill-rule="evenodd" clip-rule="evenodd" d="M105.109 276.248L106.853 274.503L105.109 271.011H101.622L99.0066 266.647L97.263 267.52L92.0322 264.029L92.9041 263.156L91.1605 261.41V257.919L88.5453 255.3V252.682L85.9298 250.937L84.1862 243.954V241.335L86.8017 237.844L81.5709 234.353L77.2121 233.48L70.2377 243.081L66.7506 242.208L63.2636 245.7L58.0329 244.827L51.9304 241.335L51.0585 238.717L54.5457 235.226L57.1609 228.243L48.4433 227.37L47.5716 221.26L41.4689 217.769L38.8537 212.532L43.2125 207.295L45.828 209.041L49.3149 207.295L52.8021 208.168L53.674 205.55L56.2893 206.422L58.0329 204.677L65.0072 208.168L71.1097 206.422L73.7249 207.295L76.3402 204.677L75.4685 202.931L78.0837 197.694V189.839L75.4685 188.093L79.8273 179.365L78.9557 177.619L87.6734 176.746L88.5453 174.128L92.9041 171.509L97.263 172.382L99.0066 168.891L98.1349 161.908L103.365 160.163L101.622 154.926L104.237 149.689L107.725 148.816V146.197L111.211 140.087L119.057 138.342L120.801 140.087L119.057 141.833L124.288 142.706L126.903 146.197L132.134 143.579L133.878 144.452L134.75 140.96L139.98 146.197L139.109 147.07L142.596 149.689L139.109 152.307L137.365 151.434L135.621 154.053L134.75 153.18L133.006 154.926V159.29L139.98 169.763L141.724 168.891L146.083 171.509L153.929 168.891L156.544 170.636L157.416 175L160.031 172.382H163.518L167.005 169.763L177.467 167.145L186.185 173.255L187.057 169.763L189.672 167.145L193.159 166.272L194.031 163.654L205.364 169.763L210.595 167.145L217.569 168.018L227.158 173.255L229.774 177.619L233.261 175L237.62 175.873L244.594 183.729H241.107L239.364 185.474L243.722 186.347L246.338 191.584L241.979 195.076L237.62 194.203L233.261 202.058L234.133 202.931L228.03 209.041H221.056L220.184 206.422H212.338L213.21 203.804L201.005 202.931L198.39 203.804L197.518 212.532L194.903 213.405L190.544 217.769V222.133L194.031 225.624L191.415 229.116V231.734L193.159 232.607L197.518 229.989L200.133 230.861V238.717L195.774 246.572L197.518 247.445L196.646 250.937H188.8L192.287 256.173L198.39 259.665L195.774 265.774L192.287 267.52L194.031 275.376L192.287 284.978L186.185 280.613L180.082 282.359L178.339 276.248L171.364 271.884L170.493 266.647L167.877 264.029L160.903 265.774L148.698 264.902L143.467 262.283L140.852 257.046L129.519 252.682L128.647 250.937L121.673 247.445L118.186 255.3L117.314 254.428L115.571 257.919H112.955L109.468 254.428L106.853 256.173L111.211 260.537L109.468 264.029L110.34 266.647H112.083L115.571 271.011H118.186V274.503L119.929 277.122L116.442 277.994V279.741L114.699 277.994L105.981 277.122L105.109 276.248Z" fill="#D030E8" fill-opacity="0.5" stroke="#0000FF" stroke-opacity="0.4" stroke-linecap="round" stroke-linejoin="round"/>
<path id="26_VanHo" fill-rule="evenodd" clip-rule="evenodd" d="M572.383 444.705L574.128 446.449L563.666 448.196L554.95 443.831L554.077 442.087H552.334V443.831L548.846 440.34L544.487 441.212L540.129 436.85L538.384 437.722L534.898 434.231L534.025 435.103L528.794 433.357L523.563 437.722L516.589 439.468V444.705L519.205 445.577L517.462 452.561H519.205L520.078 455.179L516.589 456.923L518.332 460.416L516.589 469.144L519.205 471.762L515.719 475.252L511.358 476.124L508.743 479.618L507.873 478.743L503.512 484.855L505.257 488.345V495.328H499.154L498.284 497.947H495.668L493.922 495.328H492.18L489.564 497.947L486.079 498.819L485.206 496.2L479.975 490.963L480.848 488.345H473.001L471.258 489.217V490.963H467.77L468.643 485.726L463.412 481.361H460.796L459.053 476.999L453.822 471.762L454.692 468.269L452.95 464.779H454.692L458.181 457.798H455.565L456.438 452.561L459.923 445.577L459.053 439.468L463.412 436.85L464.282 434.231L466.897 432.485L473.001 433.357V430.738H471.258L460.796 418.52H469.513L472.128 420.264L476.487 419.392L477.359 421.139L479.102 419.392H486.079L488.694 416.774H493.052V410.665L497.411 406.3H500.899L498.284 401.063L496.538 400.191H512.231L510.488 395.826L512.231 394.954L506.127 386.224H507.873L509.616 381.862L507.873 379.243L508.743 377.497L507 376.625L508.743 375.75L507.873 374.006H501.769L499.154 372.26L502.642 366.151L501.769 358.295L494.795 346.075L492.18 344.328L493.922 342.584V338.219L501.769 339.091L505.257 342.584L511.358 340.838L521.82 344.328L526.179 343.456L530.537 346.075L534.025 351.312V354.802L537.514 360.914L543.615 366.151L548.846 376.625L553.204 379.243L556.692 383.605L561.051 385.352L561.923 391.461L568.897 402.81L567.154 406.3L570.64 407.172L568.024 415.902L571.513 419.392L576.744 421.139L572.383 425.501V427.248L569.77 425.501V428.12L565.409 437.722L571.513 441.212L572.383 443.831V444.705Z" fill="#E83092" fill-opacity="0.5" stroke="#0000FF" stroke-opacity="0.4" stroke-linecap="round" stroke-linejoin="round"/>
<path id="26_YenChau" fill-rule="evenodd" clip-rule="evenodd" d="M383.206 422.011L372.747 412.409L369.258 414.155L364.027 408.047L363.157 408.918V407.172H361.412L357.926 401.063L356.181 402.81L355.311 401.935V400.191L357.054 399.316L355.311 391.461L349.207 385.352L343.976 383.605V379.243L343.106 380.115L339.618 378.368L334.387 381.862L333.517 387.971H331.771L328.286 384.48H326.543L327.413 380.987H325.67L327.413 380.115L328.286 376.625L323.927 375.75V374.006L318.696 374.878V373.132H316.951L316.081 371.388H312.592L310.85 367.895L301.26 368.769L294.286 371.388H292.541L290.798 367.895L289.055 363.532V357.421L290.798 354.802L287.313 352.184L292.541 347.821H299.518L305.619 340.838L304.746 339.091L308.234 335.601L307.361 333.854L316.951 328.617L316.081 320.762L317.823 317.271L313.465 310.288L316.081 306.797L314.338 300.689L316.081 297.195L318.696 296.324L317.823 294.577L323.054 290.215L338.748 305.051L343.106 305.926L343.976 308.544L349.207 310.288L352.695 308.544L362.285 313.781L366.643 319.018L371.001 321.636L371.874 327.745L376.232 330.364H380.593L383.206 334.729L387.567 333.854L390.183 336.473L393.668 335.601L396.284 339.091L399.772 339.966L402.387 342.584L411.104 344.328L414.592 346.075L417.208 349.565L424.182 352.184L419.823 360.039L416.335 359.167L413.72 362.658L408.488 363.532L411.104 368.769L410.231 372.26L411.977 374.006L407.618 380.115L404.13 381.862L403.257 380.987L404.13 382.734L398.899 383.605V390.589L400.642 393.208L396.284 392.336L389.31 395.826V401.935L384.952 411.537L387.567 414.155V419.392L383.206 422.011Z" fill="#E83D30" fill-opacity="0.5" stroke="#0000FF" stroke-opacity="0.4" stroke-linecap="round" stroke-linejoin="round"/>
</g>
</g>
</svg>
